<svg width="1052" height="519" viewBox="0 0 1052 519" fill="none" xmlns="http://www.w3.org/2000/svg">
<path d="M987.446 55.9382C961.743 35.4056 932.438 21.5939 900.974 12.4759C856.444 -0.4844 811.582 -4.11056 765.86 5.94511C726.454 14.509 690.005 29.6167 656.918 52.5328C629.813 71.2771 605.915 93.5257 583.153 117.153C551.51 150.056 524.331 186.584 500.48 225.36C487.834 245.761 475.238 266.32 462.85 286.987C460.438 290.891 458.226 291.596 454.581 289.45C454.164 289.235 453.539 288.912 453.122 288.697C415.996 271.111 377.68 256.343 338.496 243.767C285.362 226.76 231.433 214.36 175.421 212.897C140.125 211.966 105.212 213.873 78.3377 222.967C56.4769 229.765 41.671 234.662 28.0382 242.144C1.5695 256.332 -21.8569 274.6 -42.2914 296.788C-60.3851 316.489 -74.6831 338.81 -84.2438 363.973C-93.8045 389.136 -95.7192 415.343 -93.7031 441.864C-92.616 455.099 -91.3205 468.441 -86.3396 480.782C-75.5574 506.944 -59.008 529.352 -38.9611 549.076C-21.4019 566.46 0.0688684 577.547 22.1283 587.749C57.3844 603.842 94.7034 610.57 133.261 610.809C155.766 610.944 178.134 609.556 199.923 604.173C235.292 595.504 267.551 579.818 297.054 558.219C333.71 531.205 366.792 500.629 396.933 466.29C424.41 435.064 448.717 401.541 470.22 365.778C477.296 354.118 484.114 342.193 490.983 330.426C492.325 328.082 493.697 327.47 496.198 328.762C500.317 330.757 504.6 332.176 508.827 333.963C540.539 348.225 573.126 359.771 606.251 370.275C633.261 379.073 661.051 384.313 688.999 389.503C728.043 396.726 767.437 401.226 807.235 398.805C826.714 397.642 846.288 397.319 865.139 392.003C905.42 380.722 942.945 363.53 975.146 336.196C1006.28 309.897 1029.94 278.149 1042.51 238.965C1052.73 207.672 1054.72 175.695 1046.11 143.79C1036.45 108.042 1016.21 78.9764 987.446 55.9382ZM450.643 309.86C436.126 336.952 419.682 362.918 401.937 388.079C390.982 403.414 380.445 418.963 368.348 433.443C346.228 460.174 323.123 486.001 296.236 508.158C273.327 526.957 249.85 545.067 224.367 560.159C210.303 568.476 195.268 574.838 178.199 580.282C146.489 590.048 112.743 595.065 78.1471 588.687C28.7404 579.546 -9.00884 553.453 -32.1346 508.243C-57.9729 457.805 -55.953 407.361 -30.2781 357.383C-9.17437 316.001 22.8588 285.412 63.1757 263.324C80.1916 253.892 97.9772 245.781 116.727 240.149C139.429 233.257 162.903 231.516 186.406 231.507C213.79 231.653 240.545 235.831 267.286 241.057C295.859 246.57 324.254 253.707 351.667 263.769C369.836 270.511 387.956 277.095 405.587 284.879C420.192 291.364 434.64 297.9 448.98 304.645C451.898 306.151 452.042 307.15 450.643 309.86ZM989.52 247.509C974.941 279.322 952.676 305.055 925.171 326.365C902.276 344.115 877.23 357.849 846.935 367.686C817.381 377.112 784.135 379.88 750.514 379.286C688.567 378.323 629.413 364.281 571.727 342.283C549.123 333.647 527.373 323.869 505.579 313.407C503.494 312.331 501.769 311.836 503.542 308.659C519.28 280.481 534.601 252.088 552.733 225.41C580.226 184.95 610.313 146.623 645.851 112.827C677.353 82.7551 712.156 57.0283 751.9 38.6057C774.807 27.9911 799.472 23.4327 824.634 20.9793C853.209 18.3079 881.299 20.6667 908.237 30.8801C945.827 45.0093 973.674 70.0816 990.564 106.658C1011.88 153.838 1011.01 200.781 989.52 247.509Z" fill="#E79215"/>
</svg>
