<svg width="336" height="283" viewBox="0 0 336 283" fill="none" xmlns="http://www.w3.org/2000/svg">
<path fill-rule="evenodd" clip-rule="evenodd" d="M18.9282 70.3106L260.627 5.54757C271.047 2.75564 281.835 8.98431 284.627 19.4039L330.115 189.165C332.9 199.562 326.678 210.373 316.258 213.165L74.5592 277.928C64.1396 280.72 53.345 274.469 50.5592 264.072L5.07177 94.3105C2.27986 83.8909 8.5086 73.1025 18.9282 70.3106ZM167.922 206.485L108.529 189.214L103.268 169.581L146.069 124.926L152.323 148.268L125.957 174.084L161.705 183.28L167.922 206.485ZM199.682 197.976L242.482 153.321L237.222 133.688L177.828 116.416L184.082 139.758L219.824 148.932L193.464 174.77L199.682 197.976ZM282.582 56.4539L26.2322 125.143L63.0879 262.69C63.478 264.146 64.3881 265.268 65.6058 265.99C66.8173 266.689 68.2665 266.911 69.7225 266.52L315.516 200.66C316.972 200.27 318.094 199.36 318.816 198.142C319.532 196.902 319.737 195.482 319.347 194.026L282.491 56.4783L282.582 56.4539ZM248.309 31.6469C253.473 30.2631 258.781 33.3275 260.164 38.4918C261.548 43.6561 258.484 48.9637 253.319 50.3475C248.155 51.7313 242.847 48.6669 241.464 43.5026C240.103 38.3322 243.167 33.0246 248.309 31.6469ZM184.972 48.6179C190.136 47.2342 195.444 50.2985 196.828 55.4628C198.211 60.6271 195.147 65.9348 189.983 67.3185C184.818 68.7023 179.511 65.6379 178.127 60.4736C176.743 55.3094 179.807 50.0017 184.972 48.6179ZM216.64 40.1324C221.804 38.7486 227.112 41.813 228.496 46.9773C229.88 52.1416 226.815 57.4492 221.651 58.833C216.487 60.2168 211.179 57.1524 209.795 51.9881C208.411 46.8239 211.476 41.5162 216.64 40.1324Z" fill="#E79215"/>
</svg>
