<svg width="1564" height="1564" viewBox="0 0 1564 1564" fill="none" xmlns="http://www.w3.org/2000/svg">
<g opacity="0.07" clip-path="url(#clip0_420_62)">
<path d="M1291.28 531.941C1265.57 511.408 1236.27 497.597 1204.81 488.479C1160.28 475.518 1115.41 471.892 1069.69 481.948C1030.29 490.512 993.837 505.619 960.749 528.535C933.644 547.28 909.746 569.528 886.985 593.156C855.341 626.059 828.162 662.587 804.312 701.362C791.665 721.764 779.069 742.323 766.681 762.99C764.27 766.893 762.057 767.599 758.412 765.453C757.996 765.238 757.37 764.915 756.953 764.7C719.828 747.114 681.512 732.346 642.328 719.77C589.193 702.763 535.265 690.362 479.253 688.899C443.957 687.968 409.044 689.875 382.169 698.969C360.308 705.768 345.503 710.664 331.87 718.147C305.401 732.335 281.975 750.602 261.54 772.791C243.446 792.492 229.148 814.813 219.588 839.976C210.027 865.139 208.112 891.346 210.128 917.866C211.215 931.101 212.511 944.444 217.492 956.785C228.274 982.947 244.824 1005.35 264.87 1025.08C282.43 1042.46 303.9 1053.55 325.96 1063.75C361.216 1079.84 398.535 1086.57 437.092 1086.81C459.598 1086.95 481.965 1085.56 503.755 1080.18C539.123 1071.51 571.382 1055.82 600.885 1034.22C637.541 1007.21 670.624 976.632 700.764 942.293C728.242 911.067 752.548 877.544 774.051 841.781C781.128 830.121 787.946 818.196 794.814 806.428C796.156 804.085 797.528 803.473 800.03 804.765C804.148 806.759 808.432 808.179 812.658 809.965C844.371 824.228 876.958 835.774 910.083 846.278C937.092 855.075 964.882 860.316 992.83 865.506C1031.87 872.729 1071.27 877.228 1111.07 874.808C1130.55 873.644 1150.12 873.322 1168.97 868.006C1209.25 856.725 1246.78 839.533 1278.98 812.198C1310.12 785.899 1333.77 754.152 1346.35 714.967C1356.56 683.675 1358.55 651.698 1349.94 619.793C1340.28 584.045 1320.04 554.979 1291.28 531.941ZM754.475 785.863C739.957 812.955 723.513 838.92 705.768 864.082C694.814 879.416 684.277 894.966 672.179 909.446C650.059 936.177 626.954 962.004 600.067 984.161C577.159 1002.96 553.682 1021.07 528.198 1036.16C514.135 1044.48 499.1 1050.84 482.031 1056.28C450.321 1066.05 416.574 1071.07 381.979 1064.69C332.572 1055.55 294.823 1029.46 271.697 984.246C245.859 933.808 247.879 883.364 273.553 833.385C294.657 792.004 326.69 761.414 367.007 739.327C384.023 729.895 401.809 721.784 420.559 716.152C443.26 709.26 466.734 707.519 490.238 707.509C517.622 707.656 544.376 711.833 571.117 717.06C599.691 722.573 628.086 729.71 655.498 739.772C673.668 746.514 691.787 753.097 709.419 760.881C724.024 767.367 738.471 773.903 752.811 780.647C755.73 782.154 755.874 783.153 754.475 785.863ZM1293.35 723.512C1278.77 755.325 1256.51 781.058 1229 802.367C1206.11 820.117 1181.06 833.852 1150.77 843.688C1121.21 853.115 1087.97 855.883 1054.35 855.288C992.398 854.326 933.245 840.283 875.559 818.286C852.954 809.65 831.204 799.871 809.41 789.41C807.326 788.334 805.601 787.839 807.374 784.662C823.112 756.484 838.433 728.09 856.565 701.412C884.057 660.953 914.145 622.626 949.682 588.83C981.184 558.758 1015.99 533.031 1055.73 514.608C1078.64 503.994 1103.3 499.435 1128.47 496.982C1157.04 494.311 1185.13 496.669 1212.07 506.883C1249.66 521.012 1277.51 546.084 1294.4 582.661C1315.71 629.841 1314.84 676.784 1293.35 723.512Z" fill="#E79215"/>
</g>
<defs>
<clipPath id="clip0_420_62">
<rect width="1244.18" height="1244.18" fill="white" transform="translate(0 378.065) rotate(-17.6901)"/>
</clipPath>
</defs>
</svg>
