<svg width="22" height="23" viewBox="0 0 22 23" fill="none" xmlns="http://www.w3.org/2000/svg">
<path fill-rule="evenodd" clip-rule="evenodd" d="M11 6.99707C8.23858 6.99707 6 9.23565 6 11.9971C6 14.7585 8.23858 16.9971 11 16.9971C13.7614 16.9971 16 14.7585 16 11.9971C16 9.23565 13.7614 6.99707 11 6.99707ZM8 11.9971C8 13.6539 9.34315 14.9971 11 14.9971C12.6569 14.9971 14 13.6539 14 11.9971C14 10.3402 12.6569 8.99707 11 8.99707C9.34315 8.99707 8 10.3402 8 11.9971Z" fill="#233249"/>
<path d="M17 4.99707C16.4477 4.99707 16 5.44479 16 5.99707C16 6.54936 16.4477 6.99707 17 6.99707C17.5523 6.99707 18 6.54936 18 5.99707C18 5.44479 17.5523 4.99707 17 4.99707Z" fill="#233249"/>
<path fill-rule="evenodd" clip-rule="evenodd" d="M4 0.99707C1.79086 0.99707 0 2.78793 0 4.99707V18.9971C0 21.2062 1.79086 22.9971 4 22.9971H18C20.2091 22.9971 22 21.2062 22 18.9971V4.99707C22 2.78793 20.2091 0.99707 18 0.99707H4ZM18 2.99707H4C2.89543 2.99707 2 3.8925 2 4.99707V18.9971C2 20.1016 2.89543 20.9971 4 20.9971H18C19.1046 20.9971 20 20.1016 20 18.9971V4.99707C20 3.8925 19.1046 2.99707 18 2.99707Z" fill="#233249"/>
</svg>
