<svg width="30" height="27" viewBox="0 0 30 27" fill="none" xmlns="http://www.w3.org/2000/svg">
<path d="M6 11.1667C6.27614 11.1667 6.5 11.3906 6.5 11.6667V23.4167C6.5 23.6928 6.27614 23.9167 6 23.9167H1.33333C1.05719 23.9167 0.833334 23.6928 0.833334 23.4167V11.6667C0.833334 11.3906 1.05719 11.1667 1.33333 11.1667H6ZM10.75 26.75C9.99855 26.75 9.27788 26.4515 8.74653 25.9202C8.21518 25.3888 7.91667 24.6682 7.91667 23.9167V11.1667C7.91667 10.3875 8.22833 9.67921 8.7525 9.16921L17.7206 0.187464C17.9158 -0.00805081 18.2326 -0.00817099 18.428 0.187196L19.5758 1.33504C19.9583 1.71754 20.1992 2.24171 20.1992 2.82254L20.1567 3.27587L18.9359 9.14828C18.8714 9.45871 19.1084 9.75004 19.4255 9.75004H26.3333C27.9058 9.75004 29.1667 11.025 29.1667 12.5834V15.4167C29.1667 15.785 29.0958 16.125 28.9683 16.4509L24.69 25.0217C24.265 26.0417 23.2592 26.75 22.0833 26.75H10.75ZM10.75 23.4167C10.75 23.6928 10.9739 23.9167 11.25 23.9167H21.8154C22.0055 23.9167 22.1792 23.8089 22.2635 23.6385L26.2814 15.5215C26.3156 15.4526 26.3333 15.3767 26.3333 15.2997V13.0834C26.3333 12.8072 26.1095 12.5834 25.8333 12.5834H15.9149C15.5969 12.5834 15.3597 12.2905 15.4258 11.9795L16.547 6.7009C16.6505 6.21368 16.0557 5.89126 15.7039 6.24387L10.896 11.0628C10.8025 11.1566 10.75 11.2836 10.75 11.416V23.4167Z" fill="#E79215"/>
</svg>
