<svg width="30" height="37" viewBox="0 0 30 37" fill="none" xmlns="http://www.w3.org/2000/svg">
<path fill-rule="evenodd" clip-rule="evenodd" d="M22.1202 16.1202C22.1202 19.8021 19.1354 22.7868 15.4535 22.7868C11.7716 22.7868 8.78688 19.8021 8.78688 16.1202C8.78688 12.4383 11.7716 9.45349 15.4535 9.45349C19.1354 9.45349 22.1202 12.4383 22.1202 16.1202ZM18.7869 16.1202C18.7869 17.9611 17.2945 19.4535 15.4535 19.4535C13.6126 19.4535 12.1202 17.9611 12.1202 16.1202C12.1202 14.2792 13.6126 12.7868 15.4535 12.7868C17.2945 12.7868 18.7869 14.2792 18.7869 16.1202Z" fill="#E79215"/>
<path fill-rule="evenodd" clip-rule="evenodd" d="M4.65691 26.5304C-1.34296 20.8181 -1.57606 11.3234 4.13627 5.32357C9.84859 -0.676302 19.3432 -0.909402 25.3431 4.80292C31.343 10.5153 31.5761 20.0099 25.8637 26.0097L15.5206 36.8735L4.65691 26.5304ZM23.4496 23.7113L15.4049 32.1608L6.95538 24.1162C2.28881 19.6733 2.10751 12.2886 6.55043 7.62203C10.9934 2.95547 18.378 2.77417 23.0446 7.21709C27.7112 11.66 27.8925 19.0447 23.4496 23.7113Z" fill="#E79215"/>
</svg>
