<svg width="265" height="67" viewBox="0 0 265 67" fill="none" xmlns="http://www.w3.org/2000/svg">
<path d="M106.024 44.7045H120.965V41.7565H115.17V25.5425H120.865V22.5945H106.125V25.5425H111.853V41.7565H106.024V44.7045ZM135.391 27.5525C132.945 27.5525 130.801 28.658 129.394 30.5675V27.8875H126.379V44.7045H129.629V33.549C130.567 31.539 132.242 30.333 134.319 30.333C136.463 30.333 137.736 31.606 137.736 34.6545V44.7045H140.952V34.2525C140.952 29.663 138.841 27.5525 135.391 27.5525ZM161.24 23.7335V21.288C160.503 20.886 159.23 20.618 157.89 20.618C154.138 20.618 151.458 22.762 151.458 26.782V27.8875H146.131V30.5675H151.458V42.058H146.265V44.7045H161.575V42.058H154.741V30.5675H161.575V27.8875H154.741V26.916C154.741 24.6715 155.913 23.1305 158.627 23.1305C159.531 23.1305 160.57 23.365 161.24 23.7335ZM174.024 25.71C175.498 25.71 176.503 24.906 176.503 23.365C176.503 21.9245 175.665 20.9865 174.024 20.9865C172.483 20.9865 171.444 21.7905 171.444 23.365C171.444 24.772 172.282 25.71 174.024 25.71ZM165.85 44.7045H182.097V42.0245H176.101V27.8875H167.458V30.601H172.851V42.0245H165.85V44.7045ZM195.652 27.5525C193.206 27.5525 191.062 28.658 189.655 30.5675V27.8875H186.64V44.7045H189.89V33.549C190.828 31.539 192.503 30.333 194.58 30.333C196.724 30.333 197.997 31.606 197.997 34.6545V44.7045H201.213V34.2525C201.213 29.663 199.102 27.5525 195.652 27.5525ZM214.197 25.71C215.671 25.71 216.676 24.906 216.676 23.365C216.676 21.9245 215.839 20.9865 214.197 20.9865C212.656 20.9865 211.618 21.7905 211.618 23.365C211.618 24.772 212.455 25.71 214.197 25.71ZM206.023 44.7045H222.271V42.0245H216.274V27.8875H207.631V30.601H213.025V42.0245H206.023V44.7045ZM225.675 30.5675H231.169V38.2725C231.169 42.4265 232.978 45.0395 237.534 45.0395C239.142 45.0395 240.649 44.6375 241.386 44.1685V41.388C240.683 41.924 239.443 42.259 238.338 42.259C234.787 42.259 234.418 39.579 234.418 37.636V30.5675H242.391V27.8875H234.418V22.5945H231.169V27.8875H225.675V30.5675ZM245.058 27.8875L252.663 43.2975L251.792 45.2405C250.954 47.1165 250.05 48.289 248.073 48.289C247.403 48.289 246.633 48.1885 245.929 47.954V50.768C246.398 50.9355 247.772 51.0695 248.207 51.0695C250.954 51.0695 252.83 50.2655 254.472 46.7815L263.349 27.8875H259.731L254.371 39.981H254.271L248.71 27.8875H245.058Z" fill="#333333"/>
<path d="M63.7305 29.0244C62.7478 27.5504 61.4703 26.3623 60.0053 25.3796C57.9327 23.986 55.6905 23.0659 53.1802 22.8336C51.0183 22.6282 48.9011 22.8068 46.8286 23.4411C45.1313 23.9592 43.5411 24.7096 41.9867 25.5494C39.8249 26.7196 37.8327 28.149 35.9746 29.748C34.9919 30.5877 34.0093 31.4364 33.0355 32.294C32.8479 32.4548 32.7229 32.4548 32.571 32.2851C32.5531 32.2672 32.5263 32.2404 32.5085 32.2225C30.8915 30.7128 29.1674 29.3281 27.3629 28.0417C24.9151 26.2998 22.3513 24.7811 19.5015 23.7895C17.7059 23.1642 15.8835 22.6907 14.3559 22.7175C13.1231 22.7086 12.2834 22.7175 11.4615 22.8783C9.87139 23.1731 8.37059 23.727 6.95913 24.531C5.70846 25.2456 4.60966 26.1568 3.70739 27.2914C2.80513 28.4259 2.27806 29.7391 1.94753 31.1327C1.78673 31.8295 1.63486 32.5352 1.68846 33.2499C1.81353 34.7685 2.29593 36.1889 3.00166 37.5289C3.61806 38.7081 4.53819 39.6283 5.50299 40.5127C7.04846 41.9152 8.85299 42.8711 10.8273 43.5143C11.9797 43.8895 13.1499 44.1843 14.3559 44.2647C16.3123 44.3987 18.2241 44.1217 20.0911 43.4964C22.4138 42.7103 24.6114 41.6829 26.7197 40.4144C28.6403 39.262 30.4359 37.9399 32.1243 36.4569C32.6782 35.9745 33.2231 35.4743 33.7681 34.9829C33.8753 34.8847 33.9557 34.8757 34.0629 34.9829C34.2415 35.1527 34.4381 35.2956 34.6257 35.4564C36.0193 36.7071 37.5022 37.8327 39.0298 38.9136C40.2715 39.8069 41.6115 40.5305 42.9605 41.2541C44.8454 42.2636 46.7929 43.1391 48.8743 43.6661C49.8927 43.9252 50.9022 44.2289 51.9563 44.2647C54.2075 44.3451 56.4141 44.0771 58.5134 43.2016C60.5413 42.3619 62.2743 41.1201 63.5607 39.3156C64.597 37.8773 65.2223 36.2693 65.3027 34.4916C65.3921 32.4995 64.8293 30.6771 63.7305 29.0244ZM32.035 33.2677C30.8469 34.4201 29.5783 35.4832 28.2562 36.4837C27.4433 37.0912 26.6482 37.7165 25.7906 38.2615C24.2183 39.2709 22.6103 40.2179 20.8683 40.9147C19.3854 41.5043 17.8846 42.0492 16.3302 42.4065C15.4726 42.6031 14.5971 42.6835 13.6323 42.6835C11.8457 42.6656 10.0322 42.3708 8.36166 41.4775C5.97646 40.2 4.46673 38.2436 4.02006 35.5457C3.51979 32.5352 4.44886 29.9803 6.58393 27.8363C8.34379 26.0586 10.4878 25.0134 12.9177 24.5399C13.945 24.3344 14.9902 24.2094 16.0443 24.2272C17.3218 24.2451 18.5546 24.5399 19.7606 24.924C21.1631 25.3796 22.4674 26.0317 23.7538 26.7375C25.1295 27.4879 26.4695 28.3187 27.7113 29.2835C28.5331 29.9267 29.355 30.5609 30.1322 31.2488C30.7754 31.8205 31.4097 32.3923 32.035 32.9729C32.1601 33.098 32.1511 33.1516 32.035 33.2677ZM60.7021 38.8868C59.4335 40.2804 57.8702 41.2363 56.1103 41.8795C54.6453 42.4155 53.1355 42.7103 51.4203 42.7192C49.7498 42.7192 47.9989 42.3172 46.2837 41.7365C43.1213 40.6735 40.3162 38.9851 37.7166 36.9125C36.6982 36.0996 35.7423 35.242 34.7954 34.3487C34.7061 34.2593 34.6257 34.2057 34.7686 34.0717C36.0371 32.8836 37.2878 31.6776 38.6546 30.6056C40.7271 28.9798 42.8979 27.5058 45.2742 26.3534C47.3825 25.326 49.589 24.5756 51.9295 24.2808C53.2785 24.1111 54.6185 24.2808 55.9495 24.5667C57.4593 24.8972 58.8618 25.4779 60.0767 26.4427C61.7741 27.7827 62.7925 29.5247 63.0605 31.6776C63.3821 34.4469 62.5691 36.8411 60.7021 38.8868Z" fill="#333333"/>
<path opacity="0.2" d="M85.2727 9.89771V59.3863" stroke="#333333" stroke-width="1.52273"/>
</svg>
