<svg width="41" height="41" viewBox="0 0 41 41" fill="none" xmlns="http://www.w3.org/2000/svg">
<path d="M20.4998 0.166687C19.0961 0.166687 17.9582 1.30463 17.9582 2.70835V17.9584H2.70817C1.30445 17.9584 0.166504 19.0963 0.166504 20.5C0.166504 21.9037 1.30445 23.0417 2.70817 23.0417H17.9582V38.2917C17.9582 39.6954 19.0961 40.8334 20.4998 40.8334C21.9036 40.8334 23.0415 39.6954 23.0415 38.2917V23.0417H38.2915C39.6952 23.0417 40.8332 21.9037 40.8332 20.5C40.8332 19.0963 39.6952 17.9584 38.2915 17.9584H23.0415V2.70835C23.0415 1.30463 21.9036 0.166687 20.4998 0.166687Z" fill="#3F3D56"/>
</svg>
