<svg width="54" height="54" viewBox="0 0 54 54" fill="none" xmlns="http://www.w3.org/2000/svg">
<path fill-rule="evenodd" clip-rule="evenodd" d="M49.0448 0.82775C48.0523 -0.164833 46.443 -0.164833 45.4504 0.82775L43.2332 3.04498C40.3989 1.69103 36.9014 2.18784 34.5538 4.53541L7.59536 31.4939L21.9732 45.8717L48.9316 18.9133C51.2792 16.5657 51.776 13.0682 50.4221 10.2339L52.6393 8.01667C53.6319 7.02409 53.6319 5.41479 52.6393 4.42221L49.0448 0.82775ZM38.197 22.4589L21.9732 38.6828L14.7843 31.4939L31.0081 15.27L38.197 22.4589ZM42.8185 17.8375L45.3372 15.3188C46.3298 14.3262 46.3298 12.7169 45.3372 11.7243L41.7427 8.12987C40.7501 7.13729 39.1409 7.13729 38.1483 8.12987L35.6296 10.6486L42.8185 17.8375Z" fill="#3F3D56"/>
<path d="M0.0834961 53.3318L5.47617 33.5613L19.853 47.9401L0.0834961 53.3318Z" fill="#3F3D56"/>
</svg>
