<svg width="20" height="24" viewBox="0 0 20 24" fill="none" xmlns="http://www.w3.org/2000/svg">
<path fill-rule="evenodd" clip-rule="evenodd" d="M14.6282 10.1251C14.6282 12.5184 12.6881 14.4585 10.2948 14.4585C7.90159 14.4585 5.96149 12.5184 5.96149 10.1251C5.96149 7.73189 7.90159 5.79179 10.2948 5.79179C12.6881 5.79179 14.6282 7.73189 14.6282 10.1251ZM12.4615 10.1251C12.4615 11.3217 11.4914 12.2918 10.2948 12.2918C9.09821 12.2918 8.12816 11.3217 8.12816 10.1251C8.12816 8.9285 9.09821 7.95845 10.2948 7.95845C11.4914 7.95845 12.4615 8.9285 12.4615 10.1251Z" fill="#233249"/>
<path fill-rule="evenodd" clip-rule="evenodd" d="M3.27701 16.8918C-0.622903 13.1788 -0.774419 7.00725 2.93859 3.10734C6.65161 -0.792581 12.8231 -0.944096 16.723 2.76892C20.6229 6.48193 20.7745 12.6534 17.0614 16.5533L10.3384 23.6148L3.27701 16.8918ZM15.4922 15.0593L10.2632 20.5516L4.77101 15.3226C1.73775 12.4347 1.6199 7.6346 4.5078 4.60134C7.3957 1.56807 12.1958 1.45022 15.229 4.33812C18.2623 7.22602 18.3801 12.0261 15.4922 15.0593Z" fill="#233249"/>
</svg>
