<svg width="32" height="31" viewBox="0 0 32 31" fill="none" xmlns="http://www.w3.org/2000/svg">
<path d="M16.2584 21.8061C16.0995 21.7101 15.9005 21.7101 15.7416 21.8061L10.7453 24.8224C10.367 25.0508 9.90015 24.7122 9.99973 24.2817L11.3155 18.5932C11.3573 18.4128 11.2959 18.2242 11.156 18.1029L6.74481 14.2762C6.41076 13.9865 6.58971 13.4376 7.03036 13.4003L12.8493 12.9088C13.0342 12.8932 13.1953 12.7764 13.2676 12.6054L15.5396 7.23789C15.7117 6.83108 16.2883 6.83109 16.4605 7.23789L18.7324 12.6054C18.8047 12.7764 18.9658 12.8932 19.1507 12.9088L24.9697 13.4003C25.4103 13.4376 25.5893 13.9865 25.2552 14.2763L20.844 18.1029C20.7041 18.2242 20.6428 18.4128 20.6845 18.5932L22.0003 24.2817C22.0999 24.7122 21.633 25.0508 21.2547 24.8224L16.2584 21.8061ZM31.771 12.176C32.1053 11.8864 31.9266 11.3372 31.4859 11.2999L20.9838 10.4089C20.799 10.3932 20.6381 10.2765 20.5657 10.1058L16.4604 0.41956C16.2881 0.0130458 15.7119 0.0130448 15.5397 0.419559L11.4343 10.1058C11.362 10.2765 11.201 10.3932 11.0162 10.4089L0.512663 11.3C0.0721667 11.3374 -0.106668 11.886 0.227204 12.1758L8.18934 19.0861C8.3292 19.2075 8.39051 19.3962 8.34868 19.5766L5.96716 29.8479C5.86733 30.2784 6.33422 30.6173 6.7126 30.3889L15.7416 24.9393C15.9005 24.8434 16.0995 24.8434 16.2584 24.9393L25.2855 30.3877C25.6642 30.6163 26.1313 30.2768 26.0308 29.8461L23.6352 19.5773C23.5931 19.3965 23.6545 19.2073 23.7948 19.0858L31.771 12.176Z" fill="#E79215"/>
</svg>
