<svg width="24" height="23" viewBox="0 0 24 23" fill="none" xmlns="http://www.w3.org/2000/svg">
<path d="M19.3205 22.4647C19.1319 22.4647 18.9458 22.4084 18.7866 22.3007L12.7522 18.2083L9.51454 20.5374C9.25984 20.721 8.93412 20.7651 8.63778 20.6598C8.3439 20.5545 8.12104 20.3096 8.04022 20.0084L6.4165 13.849L0.60983 11.6277C0.244923 11.4881 0.0024678 11.1379 1.8758e-05 10.7461C-0.00243028 10.3542 0.235127 10.0016 0.597585 9.85709L22.6781 1.07238C22.7785 1.03074 22.8838 1.00625 22.9916 0.998907C23.0308 0.996458 23.0675 0.996458 23.1067 0.998907C23.3271 1.01115 23.5451 1.10177 23.7165 1.2683C23.7337 1.28544 23.7508 1.30259 23.7655 1.32218C23.9051 1.48382 23.9835 1.67974 23.9982 1.87811C24.0006 1.92709 24.0006 1.97852 23.9982 2.02995C23.9957 2.06669 23.9908 2.10342 23.9835 2.13771L20.2536 21.6933C20.1948 22.0068 19.9793 22.2713 19.6854 22.3937C19.5678 22.4403 19.4454 22.4647 19.3205 22.4647ZM13.2836 16.2711L18.6593 19.9177L21.5589 4.70186L11.0844 14.7797L13.2567 16.254C13.2665 16.2589 13.2738 16.2638 13.2836 16.2711ZM8.80922 15.4605L9.52678 18.1863L11.077 17.0695L9.04677 15.6932C8.95371 15.6295 8.87289 15.5511 8.80922 15.4605ZM3.56337 10.724L7.55041 12.2474C7.83695 12.3576 8.05246 12.5976 8.13083 12.8914L8.63533 14.809C8.65738 14.5886 8.75779 14.3805 8.92187 14.2237L18.9017 4.62104L3.56337 10.724Z" fill="#010409"/>
</svg>
