<svg width="51" height="51" viewBox="0 0 51 51" fill="none" xmlns="http://www.w3.org/2000/svg">
<path d="M20.4168 12.7916H25.5002V25.5H38.2085V30.5833H20.4168V12.7916Z" fill="#3F3D56"/>
<path fill-rule="evenodd" clip-rule="evenodd" d="M50.9168 25.5C50.9168 39.5372 39.5374 50.9166 25.5002 50.9166C11.4629 50.9166 0.0834961 39.5372 0.0834961 25.5C0.0834961 11.4627 11.4629 0.083313 25.5002 0.083313C39.5374 0.083313 50.9168 11.4627 50.9168 25.5ZM45.8335 25.5C45.8335 36.7298 36.73 45.8333 25.5002 45.8333C14.2704 45.8333 5.16683 36.7298 5.16683 25.5C5.16683 14.2702 14.2704 5.16665 25.5002 5.16665C36.73 5.16665 45.8335 14.2702 45.8335 25.5Z" fill="#3F3D56"/>
</svg>
