<svg width="587" height="519" viewBox="0 0 587 519" fill="none" xmlns="http://www.w3.org/2000/svg">
<path d="M305.068 501.418C443.562 501.418 555.834 389.172 555.834 250.709C555.834 112.246 443.562 0 305.068 0C166.574 0 54.3018 112.246 54.3018 250.709C54.3018 389.172 166.574 501.418 305.068 501.418Z" fill="#F2F2F2"/>
<path d="M142.753 427.839C126.6 452.605 131.026 484.104 131.026 484.104C131.026 484.104 161.641 475.45 177.794 450.684C193.947 425.918 189.522 394.419 189.522 394.419C189.522 394.419 158.906 403.073 142.753 427.839Z" fill="#3F3D56"/>
<path d="M130.94 483.816C130.94 483.816 130.547 483.754 129.823 483.607C129.245 483.49 128.451 483.323 127.48 483.093C118.804 481.048 95.737 474.134 80.6562 455.957C61.781 433.197 62.5758 401.398 62.5758 401.398C62.5758 401.398 91.4366 406.087 110.454 426.526C111.278 427.404 112.08 428.315 112.859 429.257C129.283 449.061 130.814 475.707 130.936 482.294C130.952 483.281 130.94 483.816 130.94 483.816Z" fill="#E79215"/>
<path d="M119.298 427.839C135.452 452.605 131.026 484.104 131.026 484.104C131.026 484.104 100.41 475.45 84.257 450.684C68.1038 425.918 72.5298 394.419 72.5298 394.419C72.5298 394.419 103.145 403.073 119.298 427.839Z" stroke="#3F3D56" stroke-width="2" stroke-miterlimit="10"/>
<path opacity="0.1" d="M130.936 482.294C130.509 482.808 130.132 483.248 129.823 483.607C129.137 484.389 128.748 484.799 128.748 484.799C128.748 484.799 128.275 484.205 127.48 483.093C123.117 477.012 109.082 455.389 110.165 430.412C110.224 429.102 110.32 427.807 110.454 426.526C111.278 427.404 112.08 428.315 112.859 429.257C129.283 449.061 130.814 475.707 130.936 482.294Z" fill="black"/>
<path d="M154.886 432.218C153.61 461.757 131.678 484.799 131.678 484.799C131.678 484.799 111.815 459.951 113.092 430.412C114.369 400.873 136.301 377.83 136.301 377.83C136.301 377.83 156.163 402.679 154.886 432.218Z" fill="#E79215"/>
<path d="M131.678 483.963L136.499 379.035" stroke="#3F3D56" stroke-width="2" stroke-miterlimit="10"/>
<path d="M293.5 519C455.596 519 587 508.276 587 495.046C587 481.817 455.596 471.093 293.5 471.093C131.404 471.093 0 481.817 0 495.046C0 508.276 131.404 519 293.5 519Z" fill="#3F3D56"/>
<path d="M340.146 207.651C332.829 210.122 326.2 215.9 324.701 223.475C324.007 226.986 324.433 230.637 323.848 234.168C322.492 242.357 316.062 248.612 310.132 254.422C304.201 260.231 298.076 266.982 297.643 275.271C297.17 284.349 303.754 292.853 302.615 301.871C301.291 312.349 290.222 319.138 287.486 329.338C285.659 336.149 287.898 343.486 291.582 349.5C298.601 360.959 310.599 368.74 323.376 372.91C336.153 377.081 349.761 377.958 363.202 378.099C379.567 378.271 397.335 376.866 409.631 366.068C416.654 359.845 421.065 351.197 421.979 341.859C423.147 329.35 417.925 316.426 421.527 304.391C423.794 296.816 429.478 289.899 428.63 282.038C427.8 274.352 421.086 268.905 416.48 262.696C412.18 256.899 409.57 250.052 407.012 243.303L398.261 220.209C396.541 215.67 394.652 210.895 390.818 207.915C383.641 202.337 372.101 203.433 363.708 204.584C355.923 205.651 347.633 205.123 340.146 207.651Z" fill="#2F2E41"/>
<path d="M342.887 274.923C342.887 274.923 346.766 287.528 317.671 302.072C288.577 316.616 320.581 332.129 320.581 332.129L354.524 339.886C354.524 339.886 389.438 335.038 393.317 329.22C397.196 323.403 403.985 304.011 402.045 301.102C400.594 299.031 398.972 297.085 397.196 295.285C397.196 295.285 373.921 291.406 374.891 280.741C375.86 270.075 342.887 274.923 342.887 274.923Z" fill="#FFB9B9"/>
<path opacity="0.1" d="M342.887 274.923C342.887 274.923 346.766 287.528 317.671 302.072C288.577 316.616 320.581 332.129 320.581 332.129L354.524 339.886C354.524 339.886 389.438 335.038 393.317 329.22C397.196 323.403 403.985 304.011 402.045 301.102C400.594 299.031 398.972 297.085 397.196 295.285C397.196 295.285 373.921 291.406 374.891 280.741C375.86 270.075 342.887 274.923 342.887 274.923Z" fill="black"/>
<path d="M361.798 294.8C378.938 294.8 392.832 280.908 392.832 263.773C392.832 246.637 378.938 232.746 361.798 232.746C344.658 232.746 330.764 246.637 330.764 263.773C330.764 280.908 344.658 294.8 361.798 294.8Z" fill="#FFB9B9"/>
<path d="M358.404 329.22C358.404 329.22 321.029 326.488 320.32 300.705C320.32 300.705 307.003 299.163 303.124 303.041C299.245 306.92 286.637 309.828 286.637 319.524C286.637 329.22 307.973 358.308 307.973 358.308C307.973 358.308 319.611 397.092 314.762 403.879C309.913 410.667 308.943 428.119 308.943 428.119C308.943 428.119 357.434 424.241 365.192 428.119C372.951 431.998 403.985 431.998 405.925 428.119C407.864 424.241 403.985 375.761 403.985 375.761C403.985 375.761 412.713 364.126 410.774 350.552L434.049 323.403C434.049 323.403 425.321 297.224 411.744 297.224C411.744 297.224 393.317 292.376 392.832 294.8C392.347 297.224 402.045 324.372 358.404 329.22Z" fill="#E79215"/>
<path d="M271.12 414.545C271.12 414.545 279.848 428.119 302.154 431.028C324.46 433.937 328.339 426.18 326.4 424.241C324.46 422.302 301.184 413.575 301.184 413.575L287.607 402.91L271.12 414.545Z" fill="#FFB9B9"/>
<path d="M430.17 402.91L404.955 417.454C404.955 417.454 371.981 415.515 384.589 425.211C397.196 434.907 420.472 431.028 420.472 431.028L442.778 420.363L430.17 402.91Z" fill="#FFB9B9"/>
<path d="M304.094 428.119C304.094 428.119 280.818 485.326 308.943 494.052C337.068 502.778 414.653 500.839 432.11 489.204C449.566 477.569 454.416 462.055 451.506 457.207C448.597 452.359 429.2 438.785 415.623 437.815C402.045 436.846 304.094 428.119 304.094 428.119Z" fill="#2F2E41"/>
<path opacity="0.05" d="M304.094 428.119C304.094 428.119 280.818 485.326 308.943 494.052C337.068 502.778 414.653 500.839 432.11 489.204C449.566 477.569 454.416 462.055 451.506 457.207C448.597 452.359 429.2 438.785 415.623 437.815C402.045 436.846 304.094 428.119 304.094 428.119Z" fill="black"/>
<path d="M413.961 431.673C413.961 431.673 496.118 401.94 495.148 437.815C494.178 473.69 442.778 483.386 442.778 483.386L427.261 485.326L341.917 488.234C341.917 488.234 344.826 472.721 338.037 470.782C338.037 470.782 360.343 464.964 361.313 463.994C362.283 463.025 417.563 443.633 421.442 442.663C425.321 441.694 436.959 433.937 445.687 434.907C445.687 434.907 455.385 427.15 466.053 429.089L435.989 431.028L413.961 431.673Z" fill="#2F2E41"/>
<path opacity="0.1" d="M413.961 431.673C413.961 431.673 496.118 401.94 495.148 437.815C494.178 473.69 442.778 483.386 442.778 483.386L427.261 485.326L341.917 488.234C341.917 488.234 344.826 472.721 338.037 470.782C338.037 470.782 360.343 464.964 361.313 463.994C362.283 463.025 417.563 443.633 421.442 442.663C425.321 441.694 436.959 433.937 445.687 434.907C445.687 434.907 455.385 427.15 466.053 429.089L435.989 431.028L413.961 431.673Z" fill="black"/>
<path d="M399.446 436.489L409.804 460.116L472.842 437.815L477.691 425.21L461.204 422.302L428.059 428.119L413.683 431.998L399.446 436.489Z" fill="#2F2E41"/>
<path opacity="0.1" d="M399.446 436.489L409.804 460.116L472.842 437.815L477.691 425.21L461.204 422.302L428.059 428.119L413.683 431.998L399.446 436.489Z" fill="black"/>
<path d="M265.301 464.964C265.301 464.964 283.728 488.234 305.064 494.052C326.4 499.87 338.037 492.113 338.037 492.113L331.249 464.964L328.339 447.511L315.732 438.785L290.516 427.15L260.452 417.454C260.452 417.454 247.844 415.515 247.844 417.454C247.844 419.393 259.482 448.481 259.482 448.481L265.301 464.964Z" fill="#2F2E41"/>
<path d="M287.607 477.569C287.607 477.569 291.486 505.687 296.335 507.626C301.184 509.565 315.732 505.687 319.611 503.748C323.49 501.809 336.676 492.862 336.676 492.862C336.676 492.862 290.516 475.63 287.607 477.569Z" fill="#F2F2F2"/>
<path d="M375.86 480.478L394.287 483.386L392.347 505.687L366.646 499.446L375.86 480.478Z" fill="#FFB9B9"/>
<path d="M387.406 486.684C387.406 486.684 378.77 496.961 387.498 502.778L393.317 507.626C393.317 507.626 412.713 511.505 414.653 513.444C416.593 515.383 424.351 510.535 424.351 510.535C424.351 510.535 425.321 481.447 424.351 479.508C423.381 477.569 411.744 475.63 410.774 477.569C409.804 479.508 398.166 482.417 391.377 480.478L387.406 486.684Z" fill="#F2F2F2"/>
<path d="M309.913 434.907C309.913 434.907 242.025 395.153 231.357 409.697C220.689 424.241 209.052 444.603 240.086 460.116C271.12 475.63 368.102 507.626 368.102 507.626C368.102 507.626 382.649 485.326 382.649 479.508C382.649 479.508 331.249 456.238 322.52 454.299C313.792 452.359 278.878 430.059 274.029 428.119C269.18 426.18 262.392 420.363 262.392 420.363L309.913 434.907Z" fill="#2F2E41"/>
<path d="M290.516 314.677L286.637 317.585C286.637 317.585 277.909 339.886 276.939 352.491C275.969 365.096 264.331 403.879 265.301 408.727C266.271 413.575 267.241 417.454 273.06 422.302C273.06 422.302 280.818 404.849 294.396 407.758L310.883 347.643L290.516 314.677Z" fill="#E79215"/>
<path d="M426.291 314.677L434.049 323.403C434.049 323.403 438.899 335.038 438.899 337.947C438.899 340.856 448.597 383.518 449.566 385.457C450.536 387.396 454.416 411.636 449.566 417.454C444.717 423.271 435.989 427.15 435.989 427.15C435.989 427.15 441.808 406.788 423.381 405.819L425.321 398.062L407.864 339.886L426.291 314.677Z" fill="#E79215"/>
<path d="M292.456 381.432V432.504C292.456 435.729 293.725 438.825 295.989 441.122C298.253 443.419 301.33 444.734 304.556 444.782L411.388 446.364C414.595 446.412 417.693 445.203 420.02 442.997C422.347 440.791 423.719 437.762 423.842 434.559L425.807 383.48C425.87 381.844 425.605 380.212 425.028 378.68C424.451 377.148 423.573 375.747 422.446 374.559C421.319 373.371 419.966 372.42 418.466 371.763C416.966 371.105 415.35 370.755 413.713 370.731L304.916 369.154C303.288 369.131 301.672 369.431 300.161 370.037C298.651 370.644 297.276 371.544 296.116 372.687C294.957 373.829 294.036 375.191 293.408 376.692C292.78 378.193 292.456 379.804 292.456 381.432Z" fill="#3F3D56"/>
<path d="M363.618 262.778C382.067 262.778 397.023 254.726 397.023 244.794C397.023 234.863 382.067 226.811 363.618 226.811C345.169 226.811 330.213 234.863 330.213 244.794C330.213 254.726 345.169 262.778 363.618 262.778Z" fill="#2F2E41"/>
<path d="M357.919 415.999C362.204 415.999 365.677 412.527 365.677 408.243C365.677 403.959 362.204 400.486 357.919 400.486C353.634 400.486 350.16 403.959 350.16 408.243C350.16 412.527 353.634 415.999 357.919 415.999Z" fill="#F2F2F2"/>
<path d="M569.096 406.671V495.25C569.096 496.772 568.277 496.989 566.946 497.727C562.454 500.217 551.383 504.655 538.091 497.632C536.727 496.911 535.886 496.667 535.886 495.124V407.238C535.886 407.238 552.775 414.049 569.096 406.671Z" fill="#2F2E41"/>
<path d="M552.491 410.137C561.662 410.137 569.096 408.559 569.096 406.611C569.096 404.664 561.662 403.086 552.491 403.086C543.321 403.086 535.886 404.664 535.886 406.611C535.886 408.559 543.321 410.137 552.491 410.137Z" fill="#3F3D56" stroke="#E79215" stroke-miterlimit="10"/>
<g opacity="0.8">
<path opacity="0.8" d="M567.584 443.826C567.79 443.826 567.956 443.659 567.956 443.453C567.956 443.248 567.79 443.081 567.584 443.081C567.378 443.081 567.211 443.248 567.211 443.453C567.211 443.659 567.378 443.826 567.584 443.826Z" fill="black"/>
<path opacity="0.8" d="M565.693 444.355C565.898 444.355 566.065 444.188 566.065 443.982C566.065 443.776 565.898 443.61 565.693 443.61C565.487 443.61 565.32 443.776 565.32 443.982C565.32 444.188 565.487 444.355 565.693 444.355Z" fill="black"/>
<path opacity="0.8" d="M563.356 445.099C563.562 445.099 563.728 444.933 563.728 444.727C563.728 444.521 563.562 444.355 563.356 444.355C563.15 444.355 562.983 444.521 562.983 444.727C562.983 444.933 563.15 445.099 563.356 445.099Z" fill="black"/>
<path opacity="0.8" d="M559.166 446.002C559.372 446.002 559.539 445.835 559.539 445.629C559.539 445.424 559.372 445.257 559.166 445.257C558.96 445.257 558.794 445.424 558.794 445.629C558.794 445.835 558.96 446.002 559.166 446.002Z" fill="black"/>
<path opacity="0.8" d="M554.749 446.537C554.955 446.537 555.122 446.37 555.122 446.164C555.122 445.958 554.955 445.792 554.749 445.792C554.543 445.792 554.376 445.958 554.376 446.164C554.376 446.37 554.543 446.537 554.749 446.537Z" fill="black"/>
<path opacity="0.8" d="M550.174 446.747C550.38 446.747 550.547 446.58 550.547 446.374C550.547 446.169 550.38 446.002 550.174 446.002C549.969 446.002 549.802 446.169 549.802 446.374C549.802 446.58 549.969 446.747 550.174 446.747Z" fill="black"/>
<path opacity="0.8" d="M543.608 445.844C543.814 445.844 543.98 445.678 543.98 445.472C543.98 445.266 543.814 445.099 543.608 445.099C543.402 445.099 543.235 445.266 543.235 445.472C543.235 445.678 543.402 445.844 543.608 445.844Z" fill="black"/>
<path opacity="0.8" d="M545.784 446.374C545.989 446.374 546.156 446.208 546.156 446.002C546.156 445.796 545.989 445.629 545.784 445.629C545.578 445.629 545.411 445.796 545.411 446.002C545.411 446.208 545.578 446.374 545.784 446.374Z" fill="black"/>
<path opacity="0.8" d="M539.544 445.099C539.749 445.099 539.916 444.933 539.916 444.727C539.916 444.521 539.749 444.355 539.544 444.355C539.338 444.355 539.171 444.521 539.171 444.727C539.171 444.933 539.338 445.099 539.544 445.099Z" fill="black"/>
<path opacity="0.8" d="M541.501 445.472C541.707 445.472 541.874 445.305 541.874 445.099C541.874 444.894 541.707 444.727 541.501 444.727C541.295 444.727 541.129 444.894 541.129 445.099C541.129 445.305 541.295 445.472 541.501 445.472Z" fill="black"/>
<path opacity="0.8" d="M537.399 444.355C537.604 444.355 537.771 444.188 537.771 443.982C537.771 443.776 537.604 443.61 537.399 443.61C537.193 443.61 537.026 443.776 537.026 443.982C537.026 444.188 537.193 444.355 537.399 444.355Z" fill="black"/>
<path opacity="0.8" d="M561.216 445.629C561.422 445.629 561.589 445.463 561.589 445.257C561.589 445.051 561.422 444.884 561.216 444.884C561.011 444.884 560.844 445.051 560.844 445.257C560.844 445.463 561.011 445.629 561.216 445.629Z" fill="black"/>
<path opacity="0.8" d="M556.894 446.374C557.1 446.374 557.266 446.208 557.266 446.002C557.266 445.796 557.1 445.629 556.894 445.629C556.688 445.629 556.521 445.796 556.521 446.002C556.521 446.208 556.688 446.374 556.894 446.374Z" fill="black"/>
<path opacity="0.8" d="M552.203 446.747C552.409 446.747 552.576 446.58 552.576 446.374C552.576 446.169 552.409 446.002 552.203 446.002C551.997 446.002 551.831 446.169 551.831 446.374C551.831 446.58 551.997 446.747 552.203 446.747Z" fill="black"/>
<path opacity="0.8" d="M547.936 446.747C548.142 446.747 548.309 446.58 548.309 446.374C548.309 446.169 548.142 446.002 547.936 446.002C547.73 446.002 547.563 446.169 547.563 446.374C547.563 446.58 547.73 446.747 547.936 446.747Z" fill="black"/>
</g>
<g opacity="0.8">
<path opacity="0.8" d="M567.584 445.659C567.79 445.659 567.956 445.492 567.956 445.286C567.956 445.081 567.79 444.914 567.584 444.914C567.378 444.914 567.211 445.081 567.211 445.286C567.211 445.492 567.378 445.659 567.584 445.659Z" fill="black"/>
<path opacity="0.8" d="M565.693 446.187C565.898 446.187 566.065 446.021 566.065 445.815C566.065 445.609 565.898 445.443 565.693 445.443C565.487 445.443 565.32 445.609 565.32 445.815C565.32 446.021 565.487 446.187 565.693 446.187Z" fill="black"/>
<path opacity="0.8" d="M563.356 446.932C563.562 446.932 563.728 446.766 563.728 446.56C563.728 446.354 563.562 446.187 563.356 446.187C563.15 446.187 562.983 446.354 562.983 446.56C562.983 446.766 563.15 446.932 563.356 446.932Z" fill="black"/>
<path opacity="0.8" d="M559.166 447.835C559.372 447.835 559.539 447.668 559.539 447.462C559.539 447.257 559.372 447.09 559.166 447.09C558.96 447.09 558.794 447.257 558.794 447.462C558.794 447.668 558.96 447.835 559.166 447.835Z" fill="black"/>
<path opacity="0.8" d="M554.749 448.369C554.955 448.369 555.122 448.203 555.122 447.997C555.122 447.791 554.955 447.625 554.749 447.625C554.543 447.625 554.376 447.791 554.376 447.997C554.376 448.203 554.543 448.369 554.749 448.369Z" fill="black"/>
<path opacity="0.8" d="M550.174 448.58C550.38 448.58 550.547 448.413 550.547 448.207C550.547 448.002 550.38 447.835 550.174 447.835C549.969 447.835 549.802 448.002 549.802 448.207C549.802 448.413 549.969 448.58 550.174 448.58Z" fill="black"/>
<path opacity="0.8" d="M543.608 447.677C543.814 447.677 543.98 447.51 543.98 447.305C543.98 447.099 543.814 446.932 543.608 446.932C543.402 446.932 543.235 447.099 543.235 447.305C543.235 447.51 543.402 447.677 543.608 447.677Z" fill="black"/>
<path opacity="0.8" d="M545.784 448.207C545.989 448.207 546.156 448.04 546.156 447.835C546.156 447.629 545.989 447.462 545.784 447.462C545.578 447.462 545.411 447.629 545.411 447.835C545.411 448.04 545.578 448.207 545.784 448.207Z" fill="black"/>
<path opacity="0.8" d="M539.544 446.932C539.749 446.932 539.916 446.766 539.916 446.56C539.916 446.354 539.749 446.187 539.544 446.187C539.338 446.187 539.171 446.354 539.171 446.56C539.171 446.766 539.338 446.932 539.544 446.932Z" fill="black"/>
<path opacity="0.8" d="M541.501 447.305C541.707 447.305 541.874 447.138 541.874 446.932C541.874 446.727 541.707 446.56 541.501 446.56C541.295 446.56 541.129 446.727 541.129 446.932C541.129 447.138 541.295 447.305 541.501 447.305Z" fill="black"/>
<path opacity="0.8" d="M537.399 446.187C537.604 446.187 537.771 446.021 537.771 445.815C537.771 445.609 537.604 445.443 537.399 445.443C537.193 445.443 537.026 445.609 537.026 445.815C537.026 446.021 537.193 446.187 537.399 446.187Z" fill="black"/>
<path opacity="0.8" d="M561.216 447.462C561.422 447.462 561.589 447.296 561.589 447.09C561.589 446.884 561.422 446.717 561.216 446.717C561.011 446.717 560.844 446.884 560.844 447.09C560.844 447.296 561.011 447.462 561.216 447.462Z" fill="black"/>
<path opacity="0.8" d="M556.894 448.207C557.1 448.207 557.266 448.04 557.266 447.835C557.266 447.629 557.1 447.462 556.894 447.462C556.688 447.462 556.521 447.629 556.521 447.835C556.521 448.04 556.688 448.207 556.894 448.207Z" fill="black"/>
<path opacity="0.8" d="M552.203 448.58C552.409 448.58 552.576 448.413 552.576 448.207C552.576 448.002 552.409 447.835 552.203 447.835C551.997 447.835 551.831 448.002 551.831 448.207C551.831 448.413 551.997 448.58 552.203 448.58Z" fill="black"/>
<path opacity="0.8" d="M547.936 448.58C548.142 448.58 548.309 448.413 548.309 448.207C548.309 448.002 548.142 447.835 547.936 447.835C547.73 447.835 547.563 448.002 547.563 448.207C547.563 448.413 547.73 448.58 547.936 448.58Z" fill="black"/>
</g>
<g opacity="0.8">
<path opacity="0.8" d="M567.584 447.492C567.79 447.492 567.956 447.325 567.956 447.119C567.956 446.914 567.79 446.747 567.584 446.747C567.378 446.747 567.211 446.914 567.211 447.119C567.211 447.325 567.378 447.492 567.584 447.492Z" fill="black"/>
<path opacity="0.8" d="M565.693 448.02C565.898 448.02 566.065 447.854 566.065 447.648C566.065 447.442 565.898 447.275 565.693 447.275C565.487 447.275 565.32 447.442 565.32 447.648C565.32 447.854 565.487 448.02 565.693 448.02Z" fill="black"/>
<path opacity="0.8" d="M563.356 448.765C563.562 448.765 563.728 448.598 563.728 448.393C563.728 448.187 563.562 448.02 563.356 448.02C563.15 448.02 562.983 448.187 562.983 448.393C562.983 448.598 563.15 448.765 563.356 448.765Z" fill="black"/>
<path opacity="0.8" d="M559.166 449.668C559.372 449.668 559.539 449.501 559.539 449.295C559.539 449.089 559.372 448.923 559.166 448.923C558.96 448.923 558.794 449.089 558.794 449.295C558.794 449.501 558.96 449.668 559.166 449.668Z" fill="black"/>
<path opacity="0.8" d="M554.749 450.202C554.955 450.202 555.122 450.036 555.122 449.83C555.122 449.624 554.955 449.457 554.749 449.457C554.543 449.457 554.376 449.624 554.376 449.83C554.376 450.036 554.543 450.202 554.749 450.202Z" fill="black"/>
<path opacity="0.8" d="M550.174 450.413C550.38 450.413 550.547 450.246 550.547 450.04C550.547 449.834 550.38 449.668 550.174 449.668C549.969 449.668 549.802 449.834 549.802 450.04C549.802 450.246 549.969 450.413 550.174 450.413Z" fill="black"/>
<path opacity="0.8" d="M543.608 449.51C543.814 449.51 543.98 449.343 543.98 449.138C543.98 448.932 543.814 448.765 543.608 448.765C543.402 448.765 543.235 448.932 543.235 449.138C543.235 449.343 543.402 449.51 543.608 449.51Z" fill="black"/>
<path opacity="0.8" d="M545.784 450.04C545.989 450.04 546.156 449.873 546.156 449.668C546.156 449.462 545.989 449.295 545.784 449.295C545.578 449.295 545.411 449.462 545.411 449.668C545.411 449.873 545.578 450.04 545.784 450.04Z" fill="black"/>
<path opacity="0.8" d="M539.544 448.765C539.749 448.765 539.916 448.598 539.916 448.393C539.916 448.187 539.749 448.02 539.544 448.02C539.338 448.02 539.171 448.187 539.171 448.393C539.171 448.598 539.338 448.765 539.544 448.765Z" fill="black"/>
<path opacity="0.8" d="M541.501 449.138C541.707 449.138 541.874 448.971 541.874 448.765C541.874 448.56 541.707 448.393 541.501 448.393C541.295 448.393 541.129 448.56 541.129 448.765C541.129 448.971 541.295 449.138 541.501 449.138Z" fill="black"/>
<path opacity="0.8" d="M537.399 448.02C537.604 448.02 537.771 447.854 537.771 447.648C537.771 447.442 537.604 447.275 537.399 447.275C537.193 447.275 537.026 447.442 537.026 447.648C537.026 447.854 537.193 448.02 537.399 448.02Z" fill="black"/>
<path opacity="0.8" d="M561.216 449.295C561.422 449.295 561.589 449.128 561.589 448.923C561.589 448.717 561.422 448.55 561.216 448.55C561.011 448.55 560.844 448.717 560.844 448.923C560.844 449.128 561.011 449.295 561.216 449.295Z" fill="black"/>
<path opacity="0.8" d="M556.894 450.04C557.1 450.04 557.266 449.873 557.266 449.668C557.266 449.462 557.1 449.295 556.894 449.295C556.688 449.295 556.521 449.462 556.521 449.668C556.521 449.873 556.688 450.04 556.894 450.04Z" fill="black"/>
<path opacity="0.8" d="M552.203 450.413C552.409 450.413 552.576 450.246 552.576 450.04C552.576 449.834 552.409 449.668 552.203 449.668C551.997 449.668 551.831 449.834 551.831 450.04C551.831 450.246 551.997 450.413 552.203 450.413Z" fill="black"/>
<path opacity="0.8" d="M547.936 450.413C548.142 450.413 548.309 450.246 548.309 450.04C548.309 449.834 548.142 449.668 547.936 449.668C547.73 449.668 547.563 449.834 547.563 450.04C547.563 450.246 547.73 450.413 547.936 450.413Z" fill="black"/>
</g>
<g opacity="0.8">
<path opacity="0.8" d="M567.584 449.325C567.79 449.325 567.956 449.158 567.956 448.952C567.956 448.746 567.79 448.58 567.584 448.58C567.378 448.58 567.211 448.746 567.211 448.952C567.211 449.158 567.378 449.325 567.584 449.325Z" fill="black"/>
<path opacity="0.8" d="M565.693 449.853C565.898 449.853 566.065 449.686 566.065 449.481C566.065 449.275 565.898 449.108 565.693 449.108C565.487 449.108 565.32 449.275 565.32 449.481C565.32 449.686 565.487 449.853 565.693 449.853Z" fill="black"/>
<path opacity="0.8" d="M563.356 450.598C563.562 450.598 563.728 450.431 563.728 450.226C563.728 450.02 563.562 449.853 563.356 449.853C563.15 449.853 562.983 450.02 562.983 450.226C562.983 450.431 563.15 450.598 563.356 450.598Z" fill="black"/>
<path opacity="0.8" d="M559.166 451.501C559.372 451.501 559.539 451.334 559.539 451.128C559.539 450.922 559.372 450.756 559.166 450.756C558.96 450.756 558.794 450.922 558.794 451.128C558.794 451.334 558.96 451.501 559.166 451.501Z" fill="black"/>
<path opacity="0.8" d="M554.749 452.035C554.955 452.035 555.122 451.869 555.122 451.663C555.122 451.457 554.955 451.29 554.749 451.29C554.543 451.29 554.376 451.457 554.376 451.663C554.376 451.869 554.543 452.035 554.749 452.035Z" fill="black"/>
<path opacity="0.8" d="M550.174 452.245C550.38 452.245 550.547 452.079 550.547 451.873C550.547 451.667 550.38 451.501 550.174 451.501C549.969 451.501 549.802 451.667 549.802 451.873C549.802 452.079 549.969 452.245 550.174 452.245Z" fill="black"/>
<path opacity="0.8" d="M543.608 451.343C543.814 451.343 543.98 451.176 543.98 450.971C543.98 450.765 543.814 450.598 543.608 450.598C543.402 450.598 543.235 450.765 543.235 450.971C543.235 451.176 543.402 451.343 543.608 451.343Z" fill="black"/>
<path opacity="0.8" d="M545.784 451.873C545.989 451.873 546.156 451.706 546.156 451.501C546.156 451.295 545.989 451.128 545.784 451.128C545.578 451.128 545.411 451.295 545.411 451.501C545.411 451.706 545.578 451.873 545.784 451.873Z" fill="black"/>
<path opacity="0.8" d="M539.544 450.598C539.749 450.598 539.916 450.431 539.916 450.226C539.916 450.02 539.749 449.853 539.544 449.853C539.338 449.853 539.171 450.02 539.171 450.226C539.171 450.431 539.338 450.598 539.544 450.598Z" fill="black"/>
<path opacity="0.8" d="M541.501 450.971C541.707 450.971 541.874 450.804 541.874 450.598C541.874 450.392 541.707 450.226 541.501 450.226C541.295 450.226 541.129 450.392 541.129 450.598C541.129 450.804 541.295 450.971 541.501 450.971Z" fill="black"/>
<path opacity="0.8" d="M537.399 449.853C537.604 449.853 537.771 449.686 537.771 449.481C537.771 449.275 537.604 449.108 537.399 449.108C537.193 449.108 537.026 449.275 537.026 449.481C537.026 449.686 537.193 449.853 537.399 449.853Z" fill="black"/>
<path opacity="0.8" d="M561.216 451.128C561.422 451.128 561.589 450.961 561.589 450.756C561.589 450.55 561.422 450.383 561.216 450.383C561.011 450.383 560.844 450.55 560.844 450.756C560.844 450.961 561.011 451.128 561.216 451.128Z" fill="black"/>
<path opacity="0.8" d="M556.894 451.873C557.1 451.873 557.266 451.706 557.266 451.501C557.266 451.295 557.1 451.128 556.894 451.128C556.688 451.128 556.521 451.295 556.521 451.501C556.521 451.706 556.688 451.873 556.894 451.873Z" fill="black"/>
<path opacity="0.8" d="M552.203 452.245C552.409 452.245 552.576 452.079 552.576 451.873C552.576 451.667 552.409 451.501 552.203 451.501C551.997 451.501 551.831 451.667 551.831 451.873C551.831 452.079 551.997 452.245 552.203 452.245Z" fill="black"/>
<path opacity="0.8" d="M547.936 452.245C548.142 452.245 548.309 452.079 548.309 451.873C548.309 451.667 548.142 451.501 547.936 451.501C547.73 451.501 547.563 451.667 547.563 451.873C547.563 452.079 547.73 452.245 547.936 452.245Z" fill="black"/>
</g>
<g opacity="0.8">
<path opacity="0.8" d="M567.584 451.158C567.79 451.158 567.956 450.991 567.956 450.785C567.956 450.579 567.79 450.413 567.584 450.413C567.378 450.413 567.211 450.579 567.211 450.785C567.211 450.991 567.378 451.158 567.584 451.158Z" fill="black"/>
<path opacity="0.8" d="M565.693 451.686C565.898 451.686 566.065 451.519 566.065 451.314C566.065 451.108 565.898 450.941 565.693 450.941C565.487 450.941 565.32 451.108 565.32 451.314C565.32 451.519 565.487 451.686 565.693 451.686Z" fill="black"/>
<path opacity="0.8" d="M563.356 452.431C563.562 452.431 563.728 452.264 563.728 452.059C563.728 451.853 563.562 451.686 563.356 451.686C563.15 451.686 562.983 451.853 562.983 452.059C562.983 452.264 563.15 452.431 563.356 452.431Z" fill="black"/>
<path opacity="0.8" d="M559.166 453.333C559.372 453.333 559.539 453.167 559.539 452.961C559.539 452.755 559.372 452.589 559.166 452.589C558.96 452.589 558.794 452.755 558.794 452.961C558.794 453.167 558.96 453.333 559.166 453.333Z" fill="black"/>
<path opacity="0.8" d="M554.749 453.868C554.955 453.868 555.122 453.701 555.122 453.496C555.122 453.29 554.955 453.123 554.749 453.123C554.543 453.123 554.376 453.29 554.376 453.496C554.376 453.701 554.543 453.868 554.749 453.868Z" fill="black"/>
<path opacity="0.8" d="M550.174 454.078C550.38 454.078 550.547 453.912 550.547 453.706C550.547 453.5 550.38 453.333 550.174 453.333C549.969 453.333 549.802 453.5 549.802 453.706C549.802 453.912 549.969 454.078 550.174 454.078Z" fill="black"/>
<path opacity="0.8" d="M543.608 453.176C543.814 453.176 543.98 453.009 543.98 452.803C543.98 452.598 543.814 452.431 543.608 452.431C543.402 452.431 543.235 452.598 543.235 452.803C543.235 453.009 543.402 453.176 543.608 453.176Z" fill="black"/>
<path opacity="0.8" d="M545.784 453.706C545.989 453.706 546.156 453.539 546.156 453.333C546.156 453.128 545.989 452.961 545.784 452.961C545.578 452.961 545.411 453.128 545.411 453.333C545.411 453.539 545.578 453.706 545.784 453.706Z" fill="black"/>
<path opacity="0.8" d="M539.544 452.431C539.749 452.431 539.916 452.264 539.916 452.059C539.916 451.853 539.749 451.686 539.544 451.686C539.338 451.686 539.171 451.853 539.171 452.059C539.171 452.264 539.338 452.431 539.544 452.431Z" fill="black"/>
<path opacity="0.8" d="M541.501 452.803C541.707 452.803 541.874 452.637 541.874 452.431C541.874 452.225 541.707 452.059 541.501 452.059C541.295 452.059 541.129 452.225 541.129 452.431C541.129 452.637 541.295 452.803 541.501 452.803Z" fill="black"/>
<path opacity="0.8" d="M537.399 451.686C537.604 451.686 537.771 451.519 537.771 451.314C537.771 451.108 537.604 450.941 537.399 450.941C537.193 450.941 537.026 451.108 537.026 451.314C537.026 451.519 537.193 451.686 537.399 451.686Z" fill="black"/>
<path opacity="0.8" d="M561.216 452.961C561.422 452.961 561.589 452.794 561.589 452.589C561.589 452.383 561.422 452.216 561.216 452.216C561.011 452.216 560.844 452.383 560.844 452.589C560.844 452.794 561.011 452.961 561.216 452.961Z" fill="black"/>
<path opacity="0.8" d="M556.894 453.706C557.1 453.706 557.266 453.539 557.266 453.333C557.266 453.128 557.1 452.961 556.894 452.961C556.688 452.961 556.521 453.128 556.521 453.333C556.521 453.539 556.688 453.706 556.894 453.706Z" fill="black"/>
<path opacity="0.8" d="M552.203 454.078C552.409 454.078 552.576 453.912 552.576 453.706C552.576 453.5 552.409 453.333 552.203 453.333C551.997 453.333 551.831 453.5 551.831 453.706C551.831 453.912 551.997 454.078 552.203 454.078Z" fill="black"/>
<path opacity="0.8" d="M547.936 454.078C548.142 454.078 548.309 453.912 548.309 453.706C548.309 453.5 548.142 453.333 547.936 453.333C547.73 453.333 547.563 453.5 547.563 453.706C547.563 453.912 547.73 454.078 547.936 454.078Z" fill="black"/>
</g>
<g opacity="0.8">
<path opacity="0.8" d="M567.584 452.99C567.79 452.99 567.956 452.824 567.956 452.618C567.956 452.412 567.79 452.245 567.584 452.245C567.378 452.245 567.211 452.412 567.211 452.618C567.211 452.824 567.378 452.99 567.584 452.99Z" fill="black"/>
<path opacity="0.8" d="M565.693 453.519C565.898 453.519 566.065 453.352 566.065 453.147C566.065 452.941 565.898 452.774 565.693 452.774C565.487 452.774 565.32 452.941 565.32 453.147C565.32 453.352 565.487 453.519 565.693 453.519Z" fill="black"/>
<path opacity="0.8" d="M563.356 454.264C563.562 454.264 563.728 454.097 563.728 453.891C563.728 453.686 563.562 453.519 563.356 453.519C563.15 453.519 562.983 453.686 562.983 453.891C562.983 454.097 563.15 454.264 563.356 454.264Z" fill="black"/>
<path opacity="0.8" d="M559.166 455.166C559.372 455.166 559.539 455 559.539 454.794C559.539 454.588 559.372 454.421 559.166 454.421C558.96 454.421 558.794 454.588 558.794 454.794C558.794 455 558.96 455.166 559.166 455.166Z" fill="black"/>
<path opacity="0.8" d="M554.749 455.701C554.955 455.701 555.122 455.534 555.122 455.329C555.122 455.123 554.955 454.956 554.749 454.956C554.543 454.956 554.376 455.123 554.376 455.329C554.376 455.534 554.543 455.701 554.749 455.701Z" fill="black"/>
<path opacity="0.8" d="M550.174 455.911C550.38 455.911 550.547 455.744 550.547 455.539C550.547 455.333 550.38 455.166 550.174 455.166C549.969 455.166 549.802 455.333 549.802 455.539C549.802 455.744 549.969 455.911 550.174 455.911Z" fill="black"/>
<path opacity="0.8" d="M543.608 455.009C543.814 455.009 543.98 454.842 543.98 454.636C543.98 454.431 543.814 454.264 543.608 454.264C543.402 454.264 543.235 454.431 543.235 454.636C543.235 454.842 543.402 455.009 543.608 455.009Z" fill="black"/>
<path opacity="0.8" d="M545.784 455.539C545.989 455.539 546.156 455.372 546.156 455.166C546.156 454.961 545.989 454.794 545.784 454.794C545.578 454.794 545.411 454.961 545.411 455.166C545.411 455.372 545.578 455.539 545.784 455.539Z" fill="black"/>
<path opacity="0.8" d="M539.544 454.264C539.749 454.264 539.916 454.097 539.916 453.891C539.916 453.686 539.749 453.519 539.544 453.519C539.338 453.519 539.171 453.686 539.171 453.891C539.171 454.097 539.338 454.264 539.544 454.264Z" fill="black"/>
<path opacity="0.8" d="M541.501 454.636C541.707 454.636 541.874 454.47 541.874 454.264C541.874 454.058 541.707 453.891 541.501 453.891C541.295 453.891 541.129 454.058 541.129 454.264C541.129 454.47 541.295 454.636 541.501 454.636Z" fill="black"/>
<path opacity="0.8" d="M537.399 453.519C537.604 453.519 537.771 453.352 537.771 453.147C537.771 452.941 537.604 452.774 537.399 452.774C537.193 452.774 537.026 452.941 537.026 453.147C537.026 453.352 537.193 453.519 537.399 453.519Z" fill="black"/>
<path opacity="0.8" d="M561.216 454.794C561.422 454.794 561.589 454.627 561.589 454.421C561.589 454.216 561.422 454.049 561.216 454.049C561.011 454.049 560.844 454.216 560.844 454.421C560.844 454.627 561.011 454.794 561.216 454.794Z" fill="black"/>
<path opacity="0.8" d="M556.894 455.539C557.1 455.539 557.266 455.372 557.266 455.166C557.266 454.961 557.1 454.794 556.894 454.794C556.688 454.794 556.521 454.961 556.521 455.166C556.521 455.372 556.688 455.539 556.894 455.539Z" fill="black"/>
<path opacity="0.8" d="M552.203 455.911C552.409 455.911 552.576 455.744 552.576 455.539C552.576 455.333 552.409 455.166 552.203 455.166C551.997 455.166 551.831 455.333 551.831 455.539C551.831 455.744 551.997 455.911 552.203 455.911Z" fill="black"/>
<path opacity="0.8" d="M547.936 455.911C548.142 455.911 548.309 455.744 548.309 455.539C548.309 455.333 548.142 455.166 547.936 455.166C547.73 455.166 547.563 455.333 547.563 455.539C547.563 455.744 547.73 455.911 547.936 455.911Z" fill="black"/>
</g>
<g opacity="0.8">
<path opacity="0.8" d="M567.584 454.823C567.79 454.823 567.956 454.657 567.956 454.451C567.956 454.245 567.79 454.078 567.584 454.078C567.378 454.078 567.211 454.245 567.211 454.451C567.211 454.657 567.378 454.823 567.584 454.823Z" fill="black"/>
<path opacity="0.8" d="M565.693 455.352C565.898 455.352 566.065 455.185 566.065 454.979C566.065 454.774 565.898 454.607 565.693 454.607C565.487 454.607 565.32 454.774 565.32 454.979C565.32 455.185 565.487 455.352 565.693 455.352Z" fill="black"/>
<path opacity="0.8" d="M563.356 456.097C563.562 456.097 563.728 455.93 563.728 455.724C563.728 455.519 563.562 455.352 563.356 455.352C563.15 455.352 562.983 455.519 562.983 455.724C562.983 455.93 563.15 456.097 563.356 456.097Z" fill="black"/>
<path opacity="0.8" d="M559.166 456.999C559.372 456.999 559.539 456.832 559.539 456.627C559.539 456.421 559.372 456.254 559.166 456.254C558.96 456.254 558.794 456.421 558.794 456.627C558.794 456.832 558.96 456.999 559.166 456.999Z" fill="black"/>
<path opacity="0.8" d="M554.749 457.534C554.955 457.534 555.122 457.367 555.122 457.162C555.122 456.956 554.955 456.789 554.749 456.789C554.543 456.789 554.376 456.956 554.376 457.162C554.376 457.367 554.543 457.534 554.749 457.534Z" fill="black"/>
<path opacity="0.8" d="M550.174 457.744C550.38 457.744 550.547 457.577 550.547 457.372C550.547 457.166 550.38 456.999 550.174 456.999C549.969 456.999 549.802 457.166 549.802 457.372C549.802 457.577 549.969 457.744 550.174 457.744Z" fill="black"/>
<path opacity="0.8" d="M543.608 456.842C543.814 456.842 543.98 456.675 543.98 456.469C543.98 456.264 543.814 456.097 543.608 456.097C543.402 456.097 543.235 456.264 543.235 456.469C543.235 456.675 543.402 456.842 543.608 456.842Z" fill="black"/>
<path opacity="0.8" d="M545.784 457.372C545.989 457.372 546.156 457.205 546.156 456.999C546.156 456.794 545.989 456.627 545.784 456.627C545.578 456.627 545.411 456.794 545.411 456.999C545.411 457.205 545.578 457.372 545.784 457.372Z" fill="black"/>
<path opacity="0.8" d="M539.544 456.097C539.749 456.097 539.916 455.93 539.916 455.724C539.916 455.519 539.749 455.352 539.544 455.352C539.338 455.352 539.171 455.519 539.171 455.724C539.171 455.93 539.338 456.097 539.544 456.097Z" fill="black"/>
<path opacity="0.8" d="M541.501 456.469C541.707 456.469 541.874 456.303 541.874 456.097C541.874 455.891 541.707 455.724 541.501 455.724C541.295 455.724 541.129 455.891 541.129 456.097C541.129 456.303 541.295 456.469 541.501 456.469Z" fill="black"/>
<path opacity="0.8" d="M537.399 455.352C537.604 455.352 537.771 455.185 537.771 454.979C537.771 454.774 537.604 454.607 537.399 454.607C537.193 454.607 537.026 454.774 537.026 454.979C537.026 455.185 537.193 455.352 537.399 455.352Z" fill="black"/>
<path opacity="0.8" d="M561.216 456.627C561.422 456.627 561.589 456.46 561.589 456.254C561.589 456.049 561.422 455.882 561.216 455.882C561.011 455.882 560.844 456.049 560.844 456.254C560.844 456.46 561.011 456.627 561.216 456.627Z" fill="black"/>
<path opacity="0.8" d="M556.894 457.372C557.1 457.372 557.266 457.205 557.266 456.999C557.266 456.794 557.1 456.627 556.894 456.627C556.688 456.627 556.521 456.794 556.521 456.999C556.521 457.205 556.688 457.372 556.894 457.372Z" fill="black"/>
<path opacity="0.8" d="M552.203 457.744C552.409 457.744 552.576 457.577 552.576 457.372C552.576 457.166 552.409 456.999 552.203 456.999C551.997 456.999 551.831 457.166 551.831 457.372C551.831 457.577 551.997 457.744 552.203 457.744Z" fill="black"/>
<path opacity="0.8" d="M547.936 457.744C548.142 457.744 548.309 457.577 548.309 457.372C548.309 457.166 548.142 456.999 547.936 456.999C547.73 456.999 547.563 457.166 547.563 457.372C547.563 457.577 547.73 457.744 547.936 457.744Z" fill="black"/>
</g>
<g opacity="0.8">
<path opacity="0.8" d="M567.584 456.656C567.79 456.656 567.956 456.489 567.956 456.284C567.956 456.078 567.79 455.911 567.584 455.911C567.378 455.911 567.211 456.078 567.211 456.284C567.211 456.489 567.378 456.656 567.584 456.656Z" fill="black"/>
<path opacity="0.8" d="M565.693 457.185C565.898 457.185 566.065 457.018 566.065 456.812C566.065 456.607 565.898 456.44 565.693 456.44C565.487 456.44 565.32 456.607 565.32 456.812C565.32 457.018 565.487 457.185 565.693 457.185Z" fill="black"/>
<path opacity="0.8" d="M563.356 457.93C563.562 457.93 563.728 457.763 563.728 457.557C563.728 457.352 563.562 457.185 563.356 457.185C563.15 457.185 562.983 457.352 562.983 457.557C562.983 457.763 563.15 457.93 563.356 457.93Z" fill="black"/>
<path opacity="0.8" d="M559.166 458.832C559.372 458.832 559.539 458.665 559.539 458.46C559.539 458.254 559.372 458.087 559.166 458.087C558.96 458.087 558.794 458.254 558.794 458.46C558.794 458.665 558.96 458.832 559.166 458.832Z" fill="black"/>
<path opacity="0.8" d="M554.749 459.367C554.955 459.367 555.122 459.2 555.122 458.994C555.122 458.789 554.955 458.622 554.749 458.622C554.543 458.622 554.376 458.789 554.376 458.994C554.376 459.2 554.543 459.367 554.749 459.367Z" fill="black"/>
<path opacity="0.8" d="M550.174 459.577C550.38 459.577 550.547 459.41 550.547 459.205C550.547 458.999 550.38 458.832 550.174 458.832C549.969 458.832 549.802 458.999 549.802 459.205C549.802 459.41 549.969 459.577 550.174 459.577Z" fill="black"/>
<path opacity="0.8" d="M543.608 458.675C543.814 458.675 543.98 458.508 543.98 458.302C543.98 458.096 543.814 457.93 543.608 457.93C543.402 457.93 543.235 458.096 543.235 458.302C543.235 458.508 543.402 458.675 543.608 458.675Z" fill="black"/>
<path opacity="0.8" d="M545.784 459.205C545.989 459.205 546.156 459.038 546.156 458.832C546.156 458.626 545.989 458.46 545.784 458.46C545.578 458.46 545.411 458.626 545.411 458.832C545.411 459.038 545.578 459.205 545.784 459.205Z" fill="black"/>
<path opacity="0.8" d="M539.544 457.93C539.749 457.93 539.916 457.763 539.916 457.557C539.916 457.352 539.749 457.185 539.544 457.185C539.338 457.185 539.171 457.352 539.171 457.557C539.171 457.763 539.338 457.93 539.544 457.93Z" fill="black"/>
<path opacity="0.8" d="M541.501 458.302C541.707 458.302 541.874 458.135 541.874 457.93C541.874 457.724 541.707 457.557 541.501 457.557C541.295 457.557 541.129 457.724 541.129 457.93C541.129 458.135 541.295 458.302 541.501 458.302Z" fill="black"/>
<path opacity="0.8" d="M537.399 457.185C537.604 457.185 537.771 457.018 537.771 456.812C537.771 456.607 537.604 456.44 537.399 456.44C537.193 456.44 537.026 456.607 537.026 456.812C537.026 457.018 537.193 457.185 537.399 457.185Z" fill="black"/>
<path opacity="0.8" d="M561.216 458.46C561.422 458.46 561.589 458.293 561.589 458.087C561.589 457.882 561.422 457.715 561.216 457.715C561.011 457.715 560.844 457.882 560.844 458.087C560.844 458.293 561.011 458.46 561.216 458.46Z" fill="black"/>
<path opacity="0.8" d="M556.894 459.205C557.1 459.205 557.266 459.038 557.266 458.832C557.266 458.626 557.1 458.46 556.894 458.46C556.688 458.46 556.521 458.626 556.521 458.832C556.521 459.038 556.688 459.205 556.894 459.205Z" fill="black"/>
<path opacity="0.8" d="M552.203 459.577C552.409 459.577 552.576 459.41 552.576 459.205C552.576 458.999 552.409 458.832 552.203 458.832C551.997 458.832 551.831 458.999 551.831 459.205C551.831 459.41 551.997 459.577 552.203 459.577Z" fill="black"/>
<path opacity="0.8" d="M547.936 459.577C548.142 459.577 548.309 459.41 548.309 459.205C548.309 458.999 548.142 458.832 547.936 458.832C547.73 458.832 547.563 458.999 547.563 459.205C547.563 459.41 547.73 459.577 547.936 459.577Z" fill="black"/>
</g>
<g opacity="0.8">
<path opacity="0.8" d="M567.584 458.489C567.79 458.489 567.956 458.322 567.956 458.117C567.956 457.911 567.79 457.744 567.584 457.744C567.378 457.744 567.211 457.911 567.211 458.117C567.211 458.322 567.378 458.489 567.584 458.489Z" fill="black"/>
<path opacity="0.8" d="M565.693 459.018C565.898 459.018 566.065 458.851 566.065 458.645C566.065 458.44 565.898 458.273 565.693 458.273C565.487 458.273 565.32 458.44 565.32 458.645C565.32 458.851 565.487 459.018 565.693 459.018Z" fill="black"/>
<path opacity="0.8" d="M563.356 459.763C563.562 459.763 563.728 459.596 563.728 459.39C563.728 459.184 563.562 459.018 563.356 459.018C563.15 459.018 562.983 459.184 562.983 459.39C562.983 459.596 563.15 459.763 563.356 459.763Z" fill="black"/>
<path opacity="0.8" d="M559.166 460.665C559.372 460.665 559.539 460.498 559.539 460.293C559.539 460.087 559.372 459.92 559.166 459.92C558.96 459.92 558.794 460.087 558.794 460.293C558.794 460.498 558.96 460.665 559.166 460.665Z" fill="black"/>
<path opacity="0.8" d="M554.749 461.2C554.955 461.2 555.122 461.033 555.122 460.827C555.122 460.622 554.955 460.455 554.749 460.455C554.543 460.455 554.376 460.622 554.376 460.827C554.376 461.033 554.543 461.2 554.749 461.2Z" fill="black"/>
<path opacity="0.8" d="M550.174 461.41C550.38 461.41 550.547 461.243 550.547 461.037C550.547 460.832 550.38 460.665 550.174 460.665C549.969 460.665 549.802 460.832 549.802 461.037C549.802 461.243 549.969 461.41 550.174 461.41Z" fill="black"/>
<path opacity="0.8" d="M543.608 460.508C543.814 460.508 543.98 460.341 543.98 460.135C543.98 459.929 543.814 459.763 543.608 459.763C543.402 459.763 543.235 459.929 543.235 460.135C543.235 460.341 543.402 460.508 543.608 460.508Z" fill="black"/>
<path opacity="0.8" d="M545.784 461.037C545.989 461.037 546.156 460.871 546.156 460.665C546.156 460.459 545.989 460.293 545.784 460.293C545.578 460.293 545.411 460.459 545.411 460.665C545.411 460.871 545.578 461.037 545.784 461.037Z" fill="black"/>
<path opacity="0.8" d="M539.544 459.763C539.749 459.763 539.916 459.596 539.916 459.39C539.916 459.184 539.749 459.018 539.544 459.018C539.338 459.018 539.171 459.184 539.171 459.39C539.171 459.596 539.338 459.763 539.544 459.763Z" fill="black"/>
<path opacity="0.8" d="M541.501 460.135C541.707 460.135 541.874 459.968 541.874 459.763C541.874 459.557 541.707 459.39 541.501 459.39C541.295 459.39 541.129 459.557 541.129 459.763C541.129 459.968 541.295 460.135 541.501 460.135Z" fill="black"/>
<path opacity="0.8" d="M537.399 459.018C537.604 459.018 537.771 458.851 537.771 458.645C537.771 458.44 537.604 458.273 537.399 458.273C537.193 458.273 537.026 458.44 537.026 458.645C537.026 458.851 537.193 459.018 537.399 459.018Z" fill="black"/>
<path opacity="0.8" d="M561.216 460.293C561.422 460.293 561.589 460.126 561.589 459.92C561.589 459.714 561.422 459.548 561.216 459.548C561.011 459.548 560.844 459.714 560.844 459.92C560.844 460.126 561.011 460.293 561.216 460.293Z" fill="black"/>
<path opacity="0.8" d="M556.894 461.037C557.1 461.037 557.266 460.871 557.266 460.665C557.266 460.459 557.1 460.293 556.894 460.293C556.688 460.293 556.521 460.459 556.521 460.665C556.521 460.871 556.688 461.037 556.894 461.037Z" fill="black"/>
<path opacity="0.8" d="M552.203 461.41C552.409 461.41 552.576 461.243 552.576 461.037C552.576 460.832 552.409 460.665 552.203 460.665C551.997 460.665 551.831 460.832 551.831 461.037C551.831 461.243 551.997 461.41 552.203 461.41Z" fill="black"/>
<path opacity="0.8" d="M547.936 461.41C548.142 461.41 548.309 461.243 548.309 461.037C548.309 460.832 548.142 460.665 547.936 460.665C547.73 460.665 547.563 460.832 547.563 461.037C547.563 461.243 547.73 461.41 547.936 461.41Z" fill="black"/>
</g>
<g opacity="0.8">
<path opacity="0.8" d="M567.584 460.322C567.79 460.322 567.956 460.155 567.956 459.95C567.956 459.744 567.79 459.577 567.584 459.577C567.378 459.577 567.211 459.744 567.211 459.95C567.211 460.155 567.378 460.322 567.584 460.322Z" fill="black"/>
<path opacity="0.8" d="M565.693 460.851C565.898 460.851 566.065 460.684 566.065 460.478C566.065 460.272 565.898 460.106 565.693 460.106C565.487 460.106 565.32 460.272 565.32 460.478C565.32 460.684 565.487 460.851 565.693 460.851Z" fill="black"/>
<path opacity="0.8" d="M563.356 461.596C563.562 461.596 563.728 461.429 563.728 461.223C563.728 461.017 563.562 460.851 563.356 460.851C563.15 460.851 562.983 461.017 562.983 461.223C562.983 461.429 563.15 461.596 563.356 461.596Z" fill="black"/>
<path opacity="0.8" d="M559.166 462.498C559.372 462.498 559.539 462.331 559.539 462.125C559.539 461.92 559.372 461.753 559.166 461.753C558.96 461.753 558.794 461.92 558.794 462.125C558.794 462.331 558.96 462.498 559.166 462.498Z" fill="black"/>
<path opacity="0.8" d="M554.749 463.033C554.955 463.033 555.122 462.866 555.122 462.66C555.122 462.455 554.955 462.288 554.749 462.288C554.543 462.288 554.376 462.455 554.376 462.66C554.376 462.866 554.543 463.033 554.749 463.033Z" fill="black"/>
<path opacity="0.8" d="M550.174 463.243C550.38 463.243 550.547 463.076 550.547 462.87C550.547 462.665 550.38 462.498 550.174 462.498C549.969 462.498 549.802 462.665 549.802 462.87C549.802 463.076 549.969 463.243 550.174 463.243Z" fill="black"/>
<path opacity="0.8" d="M543.608 462.34C543.814 462.34 543.98 462.174 543.98 461.968C543.98 461.762 543.814 461.596 543.608 461.596C543.402 461.596 543.235 461.762 543.235 461.968C543.235 462.174 543.402 462.34 543.608 462.34Z" fill="black"/>
<path opacity="0.8" d="M545.784 462.87C545.989 462.87 546.156 462.704 546.156 462.498C546.156 462.292 545.989 462.125 545.784 462.125C545.578 462.125 545.411 462.292 545.411 462.498C545.411 462.704 545.578 462.87 545.784 462.87Z" fill="black"/>
<path opacity="0.8" d="M539.544 461.596C539.749 461.596 539.916 461.429 539.916 461.223C539.916 461.017 539.749 460.851 539.544 460.851C539.338 460.851 539.171 461.017 539.171 461.223C539.171 461.429 539.338 461.596 539.544 461.596Z" fill="black"/>
<path opacity="0.8" d="M541.501 461.968C541.707 461.968 541.874 461.801 541.874 461.596C541.874 461.39 541.707 461.223 541.501 461.223C541.295 461.223 541.129 461.39 541.129 461.596C541.129 461.801 541.295 461.968 541.501 461.968Z" fill="black"/>
<path opacity="0.8" d="M537.399 460.851C537.604 460.851 537.771 460.684 537.771 460.478C537.771 460.272 537.604 460.106 537.399 460.106C537.193 460.106 537.026 460.272 537.026 460.478C537.026 460.684 537.193 460.851 537.399 460.851Z" fill="black"/>
<path opacity="0.8" d="M561.216 462.125C561.422 462.125 561.589 461.959 561.589 461.753C561.589 461.547 561.422 461.381 561.216 461.381C561.011 461.381 560.844 461.547 560.844 461.753C560.844 461.959 561.011 462.125 561.216 462.125Z" fill="black"/>
<path opacity="0.8" d="M556.894 462.87C557.1 462.87 557.266 462.704 557.266 462.498C557.266 462.292 557.1 462.125 556.894 462.125C556.688 462.125 556.521 462.292 556.521 462.498C556.521 462.704 556.688 462.87 556.894 462.87Z" fill="black"/>
<path opacity="0.8" d="M552.203 463.243C552.409 463.243 552.576 463.076 552.576 462.87C552.576 462.665 552.409 462.498 552.203 462.498C551.997 462.498 551.831 462.665 551.831 462.87C551.831 463.076 551.997 463.243 552.203 463.243Z" fill="black"/>
<path opacity="0.8" d="M547.936 463.243C548.142 463.243 548.309 463.076 548.309 462.87C548.309 462.665 548.142 462.498 547.936 462.498C547.73 462.498 547.563 462.665 547.563 462.87C547.563 463.076 547.73 463.243 547.936 463.243Z" fill="black"/>
</g>
<g opacity="0.8">
<path opacity="0.8" d="M567.584 462.155C567.79 462.155 567.956 461.988 567.956 461.782C567.956 461.577 567.79 461.41 567.584 461.41C567.378 461.41 567.211 461.577 567.211 461.782C567.211 461.988 567.378 462.155 567.584 462.155Z" fill="black"/>
<path opacity="0.8" d="M565.693 462.684C565.898 462.684 566.065 462.517 566.065 462.311C566.065 462.105 565.898 461.939 565.693 461.939C565.487 461.939 565.32 462.105 565.32 462.311C565.32 462.517 565.487 462.684 565.693 462.684Z" fill="black"/>
<path opacity="0.8" d="M563.356 463.428C563.562 463.428 563.728 463.262 563.728 463.056C563.728 462.85 563.562 462.684 563.356 462.684C563.15 462.684 562.983 462.85 562.983 463.056C562.983 463.262 563.15 463.428 563.356 463.428Z" fill="black"/>
<path opacity="0.8" d="M559.166 464.331C559.372 464.331 559.539 464.164 559.539 463.958C559.539 463.753 559.372 463.586 559.166 463.586C558.96 463.586 558.794 463.753 558.794 463.958C558.794 464.164 558.96 464.331 559.166 464.331Z" fill="black"/>
<path opacity="0.8" d="M554.749 464.866C554.955 464.866 555.122 464.699 555.122 464.493C555.122 464.287 554.955 464.121 554.749 464.121C554.543 464.121 554.376 464.287 554.376 464.493C554.376 464.699 554.543 464.866 554.749 464.866Z" fill="black"/>
<path opacity="0.8" d="M550.174 465.076C550.38 465.076 550.547 464.909 550.547 464.703C550.547 464.498 550.38 464.331 550.174 464.331C549.969 464.331 549.802 464.498 549.802 464.703C549.802 464.909 549.969 465.076 550.174 465.076Z" fill="black"/>
<path opacity="0.8" d="M543.608 464.173C543.814 464.173 543.98 464.007 543.98 463.801C543.98 463.595 543.814 463.428 543.608 463.428C543.402 463.428 543.235 463.595 543.235 463.801C543.235 464.007 543.402 464.173 543.608 464.173Z" fill="black"/>
<path opacity="0.8" d="M545.784 464.703C545.989 464.703 546.156 464.537 546.156 464.331C546.156 464.125 545.989 463.958 545.784 463.958C545.578 463.958 545.411 464.125 545.411 464.331C545.411 464.537 545.578 464.703 545.784 464.703Z" fill="black"/>
<path opacity="0.8" d="M539.544 463.428C539.749 463.428 539.916 463.262 539.916 463.056C539.916 462.85 539.749 462.684 539.544 462.684C539.338 462.684 539.171 462.85 539.171 463.056C539.171 463.262 539.338 463.428 539.544 463.428Z" fill="black"/>
<path opacity="0.8" d="M541.501 463.801C541.707 463.801 541.874 463.634 541.874 463.428C541.874 463.223 541.707 463.056 541.501 463.056C541.295 463.056 541.129 463.223 541.129 463.428C541.129 463.634 541.295 463.801 541.501 463.801Z" fill="black"/>
<path opacity="0.8" d="M537.399 462.684C537.604 462.684 537.771 462.517 537.771 462.311C537.771 462.105 537.604 461.939 537.399 461.939C537.193 461.939 537.026 462.105 537.026 462.311C537.026 462.517 537.193 462.684 537.399 462.684Z" fill="black"/>
<path opacity="0.8" d="M561.216 463.958C561.422 463.958 561.589 463.792 561.589 463.586C561.589 463.38 561.422 463.213 561.216 463.213C561.011 463.213 560.844 463.38 560.844 463.586C560.844 463.792 561.011 463.958 561.216 463.958Z" fill="black"/>
<path opacity="0.8" d="M556.894 464.703C557.1 464.703 557.266 464.537 557.266 464.331C557.266 464.125 557.1 463.958 556.894 463.958C556.688 463.958 556.521 464.125 556.521 464.331C556.521 464.537 556.688 464.703 556.894 464.703Z" fill="black"/>
<path opacity="0.8" d="M552.203 465.076C552.409 465.076 552.576 464.909 552.576 464.703C552.576 464.498 552.409 464.331 552.203 464.331C551.997 464.331 551.831 464.498 551.831 464.703C551.831 464.909 551.997 465.076 552.203 465.076Z" fill="black"/>
<path opacity="0.8" d="M547.936 465.076C548.142 465.076 548.309 464.909 548.309 464.703C548.309 464.498 548.142 464.331 547.936 464.331C547.73 464.331 547.563 464.498 547.563 464.703C547.563 464.909 547.73 465.076 547.936 465.076Z" fill="black"/>
</g>
<g opacity="0.8">
<path opacity="0.8" d="M567.584 463.988C567.79 463.988 567.956 463.821 567.956 463.615C567.956 463.41 567.79 463.243 567.584 463.243C567.378 463.243 567.211 463.41 567.211 463.615C567.211 463.821 567.378 463.988 567.584 463.988Z" fill="black"/>
<path opacity="0.8" d="M565.693 464.516C565.898 464.516 566.065 464.35 566.065 464.144C566.065 463.938 565.898 463.771 565.693 463.771C565.487 463.771 565.32 463.938 565.32 464.144C565.32 464.35 565.487 464.516 565.693 464.516Z" fill="black"/>
<path opacity="0.8" d="M563.356 465.261C563.562 465.261 563.728 465.095 563.728 464.889C563.728 464.683 563.562 464.516 563.356 464.516C563.15 464.516 562.983 464.683 562.983 464.889C562.983 465.095 563.15 465.261 563.356 465.261Z" fill="black"/>
<path opacity="0.8" d="M559.166 466.164C559.372 466.164 559.539 465.997 559.539 465.791C559.539 465.586 559.372 465.419 559.166 465.419C558.96 465.419 558.794 465.586 558.794 465.791C558.794 465.997 558.96 466.164 559.166 466.164Z" fill="black"/>
<path opacity="0.8" d="M554.749 466.698C554.955 466.698 555.122 466.532 555.122 466.326C555.122 466.12 554.955 465.954 554.749 465.954C554.543 465.954 554.376 466.12 554.376 466.326C554.376 466.532 554.543 466.698 554.749 466.698Z" fill="black"/>
<path opacity="0.8" d="M550.174 466.909C550.38 466.909 550.547 466.742 550.547 466.536C550.547 466.331 550.38 466.164 550.174 466.164C549.969 466.164 549.802 466.331 549.802 466.536C549.802 466.742 549.969 466.909 550.174 466.909Z" fill="black"/>
<path opacity="0.8" d="M543.608 466.006C543.814 466.006 543.98 465.839 543.98 465.634C543.98 465.428 543.814 465.261 543.608 465.261C543.402 465.261 543.235 465.428 543.235 465.634C543.235 465.839 543.402 466.006 543.608 466.006Z" fill="black"/>
<path opacity="0.8" d="M545.784 466.536C545.989 466.536 546.156 466.369 546.156 466.164C546.156 465.958 545.989 465.791 545.784 465.791C545.578 465.791 545.411 465.958 545.411 466.164C545.411 466.369 545.578 466.536 545.784 466.536Z" fill="black"/>
<path opacity="0.8" d="M539.544 465.261C539.749 465.261 539.916 465.095 539.916 464.889C539.916 464.683 539.749 464.516 539.544 464.516C539.338 464.516 539.171 464.683 539.171 464.889C539.171 465.095 539.338 465.261 539.544 465.261Z" fill="black"/>
<path opacity="0.8" d="M541.501 465.634C541.707 465.634 541.874 465.467 541.874 465.261C541.874 465.056 541.707 464.889 541.501 464.889C541.295 464.889 541.129 465.056 541.129 465.261C541.129 465.467 541.295 465.634 541.501 465.634Z" fill="black"/>
<path opacity="0.8" d="M537.399 464.516C537.604 464.516 537.771 464.35 537.771 464.144C537.771 463.938 537.604 463.771 537.399 463.771C537.193 463.771 537.026 463.938 537.026 464.144C537.026 464.35 537.193 464.516 537.399 464.516Z" fill="black"/>
<path opacity="0.8" d="M561.216 465.791C561.422 465.791 561.589 465.625 561.589 465.419C561.589 465.213 561.422 465.046 561.216 465.046C561.011 465.046 560.844 465.213 560.844 465.419C560.844 465.625 561.011 465.791 561.216 465.791Z" fill="black"/>
<path opacity="0.8" d="M556.894 466.536C557.1 466.536 557.266 466.369 557.266 466.164C557.266 465.958 557.1 465.791 556.894 465.791C556.688 465.791 556.521 465.958 556.521 466.164C556.521 466.369 556.688 466.536 556.894 466.536Z" fill="black"/>
<path opacity="0.8" d="M552.203 466.909C552.409 466.909 552.576 466.742 552.576 466.536C552.576 466.331 552.409 466.164 552.203 466.164C551.997 466.164 551.831 466.331 551.831 466.536C551.831 466.742 551.997 466.909 552.203 466.909Z" fill="black"/>
<path opacity="0.8" d="M547.936 466.909C548.142 466.909 548.309 466.742 548.309 466.536C548.309 466.331 548.142 466.164 547.936 466.164C547.73 466.164 547.563 466.331 547.563 466.536C547.563 466.742 547.73 466.909 547.936 466.909Z" fill="black"/>
</g>
<g opacity="0.8">
<path opacity="0.8" d="M567.584 465.821C567.79 465.821 567.956 465.654 567.956 465.448C567.956 465.242 567.79 465.076 567.584 465.076C567.378 465.076 567.211 465.242 567.211 465.448C567.211 465.654 567.378 465.821 567.584 465.821Z" fill="black"/>
<path opacity="0.8" d="M565.693 466.349C565.898 466.349 566.065 466.183 566.065 465.977C566.065 465.771 565.898 465.604 565.693 465.604C565.487 465.604 565.32 465.771 565.32 465.977C565.32 466.183 565.487 466.349 565.693 466.349Z" fill="black"/>
<path opacity="0.8" d="M563.356 467.094C563.562 467.094 563.728 466.927 563.728 466.722C563.728 466.516 563.562 466.349 563.356 466.349C563.15 466.349 562.983 466.516 562.983 466.722C562.983 466.927 563.15 467.094 563.356 467.094Z" fill="black"/>
<path opacity="0.8" d="M559.166 467.997C559.372 467.997 559.539 467.83 559.539 467.624C559.539 467.418 559.372 467.252 559.166 467.252C558.96 467.252 558.794 467.418 558.794 467.624C558.794 467.83 558.96 467.997 559.166 467.997Z" fill="black"/>
<path opacity="0.8" d="M554.749 468.531C554.955 468.531 555.122 468.365 555.122 468.159C555.122 467.953 554.955 467.786 554.749 467.786C554.543 467.786 554.376 467.953 554.376 468.159C554.376 468.365 554.543 468.531 554.749 468.531Z" fill="black"/>
<path opacity="0.8" d="M550.174 468.742C550.38 468.742 550.547 468.575 550.547 468.369C550.547 468.163 550.38 467.997 550.174 467.997C549.969 467.997 549.802 468.163 549.802 468.369C549.802 468.575 549.969 468.742 550.174 468.742Z" fill="black"/>
<path opacity="0.8" d="M543.608 467.839C543.814 467.839 543.98 467.672 543.98 467.467C543.98 467.261 543.814 467.094 543.608 467.094C543.402 467.094 543.235 467.261 543.235 467.467C543.235 467.672 543.402 467.839 543.608 467.839Z" fill="black"/>
<path opacity="0.8" d="M545.784 468.369C545.989 468.369 546.156 468.202 546.156 467.997C546.156 467.791 545.989 467.624 545.784 467.624C545.578 467.624 545.411 467.791 545.411 467.997C545.411 468.202 545.578 468.369 545.784 468.369Z" fill="black"/>
<path opacity="0.8" d="M539.544 467.094C539.749 467.094 539.916 466.927 539.916 466.722C539.916 466.516 539.749 466.349 539.544 466.349C539.338 466.349 539.171 466.516 539.171 466.722C539.171 466.927 539.338 467.094 539.544 467.094Z" fill="black"/>
<path opacity="0.8" d="M541.501 467.467C541.707 467.467 541.874 467.3 541.874 467.094C541.874 466.889 541.707 466.722 541.501 466.722C541.295 466.722 541.129 466.889 541.129 467.094C541.129 467.3 541.295 467.467 541.501 467.467Z" fill="black"/>
<path opacity="0.8" d="M537.399 466.349C537.604 466.349 537.771 466.183 537.771 465.977C537.771 465.771 537.604 465.604 537.399 465.604C537.193 465.604 537.026 465.771 537.026 465.977C537.026 466.183 537.193 466.349 537.399 466.349Z" fill="black"/>
<path opacity="0.8" d="M561.216 467.624C561.422 467.624 561.589 467.457 561.589 467.252C561.589 467.046 561.422 466.879 561.216 466.879C561.011 466.879 560.844 467.046 560.844 467.252C560.844 467.457 561.011 467.624 561.216 467.624Z" fill="black"/>
<path opacity="0.8" d="M556.894 468.369C557.1 468.369 557.266 468.202 557.266 467.997C557.266 467.791 557.1 467.624 556.894 467.624C556.688 467.624 556.521 467.791 556.521 467.997C556.521 468.202 556.688 468.369 556.894 468.369Z" fill="black"/>
<path opacity="0.8" d="M552.203 468.742C552.409 468.742 552.576 468.575 552.576 468.369C552.576 468.163 552.409 467.997 552.203 467.997C551.997 467.997 551.831 468.163 551.831 468.369C551.831 468.575 551.997 468.742 552.203 468.742Z" fill="black"/>
<path opacity="0.8" d="M547.936 468.742C548.142 468.742 548.309 468.575 548.309 468.369C548.309 468.163 548.142 467.997 547.936 467.997C547.73 467.997 547.563 468.163 547.563 468.369C547.563 468.575 547.73 468.742 547.936 468.742Z" fill="black"/>
</g>
<g opacity="0.8">
<path opacity="0.8" d="M567.584 467.654C567.79 467.654 567.956 467.487 567.956 467.281C567.956 467.075 567.79 466.909 567.584 466.909C567.378 466.909 567.211 467.075 567.211 467.281C567.211 467.487 567.378 467.654 567.584 467.654Z" fill="black"/>
<path opacity="0.8" d="M565.693 468.182C565.898 468.182 566.065 468.015 566.065 467.81C566.065 467.604 565.898 467.437 565.693 467.437C565.487 467.437 565.32 467.604 565.32 467.81C565.32 468.015 565.487 468.182 565.693 468.182Z" fill="black"/>
<path opacity="0.8" d="M563.356 468.927C563.562 468.927 563.728 468.76 563.728 468.555C563.728 468.349 563.562 468.182 563.356 468.182C563.15 468.182 562.983 468.349 562.983 468.555C562.983 468.76 563.15 468.927 563.356 468.927Z" fill="black"/>
<path opacity="0.8" d="M559.166 469.829C559.372 469.829 559.539 469.663 559.539 469.457C559.539 469.251 559.372 469.085 559.166 469.085C558.96 469.085 558.794 469.251 558.794 469.457C558.794 469.663 558.96 469.829 559.166 469.829Z" fill="black"/>
<path opacity="0.8" d="M554.749 470.364C554.955 470.364 555.122 470.197 555.122 469.992C555.122 469.786 554.955 469.619 554.749 469.619C554.543 469.619 554.376 469.786 554.376 469.992C554.376 470.197 554.543 470.364 554.749 470.364Z" fill="black"/>
<path opacity="0.8" d="M550.174 470.574C550.38 470.574 550.547 470.408 550.547 470.202C550.547 469.996 550.38 469.829 550.174 469.829C549.969 469.829 549.802 469.996 549.802 470.202C549.802 470.408 549.969 470.574 550.174 470.574Z" fill="black"/>
<path opacity="0.8" d="M543.608 469.672C543.814 469.672 543.98 469.505 543.98 469.3C543.98 469.094 543.814 468.927 543.608 468.927C543.402 468.927 543.235 469.094 543.235 469.3C543.235 469.505 543.402 469.672 543.608 469.672Z" fill="black"/>
<path opacity="0.8" d="M545.784 470.202C545.989 470.202 546.156 470.035 546.156 469.829C546.156 469.624 545.989 469.457 545.784 469.457C545.578 469.457 545.411 469.624 545.411 469.829C545.411 470.035 545.578 470.202 545.784 470.202Z" fill="black"/>
<path opacity="0.8" d="M539.544 468.927C539.749 468.927 539.916 468.76 539.916 468.555C539.916 468.349 539.749 468.182 539.544 468.182C539.338 468.182 539.171 468.349 539.171 468.555C539.171 468.76 539.338 468.927 539.544 468.927Z" fill="black"/>
<path opacity="0.8" d="M541.501 469.3C541.707 469.3 541.874 469.133 541.874 468.927C541.874 468.721 541.707 468.555 541.501 468.555C541.295 468.555 541.129 468.721 541.129 468.927C541.129 469.133 541.295 469.3 541.501 469.3Z" fill="black"/>
<path opacity="0.8" d="M537.399 468.182C537.604 468.182 537.771 468.015 537.771 467.81C537.771 467.604 537.604 467.437 537.399 467.437C537.193 467.437 537.026 467.604 537.026 467.81C537.026 468.015 537.193 468.182 537.399 468.182Z" fill="black"/>
<path opacity="0.8" d="M561.216 469.457C561.422 469.457 561.589 469.29 561.589 469.085C561.589 468.879 561.422 468.712 561.216 468.712C561.011 468.712 560.844 468.879 560.844 469.085C560.844 469.29 561.011 469.457 561.216 469.457Z" fill="black"/>
<path opacity="0.8" d="M556.894 470.202C557.1 470.202 557.266 470.035 557.266 469.829C557.266 469.624 557.1 469.457 556.894 469.457C556.688 469.457 556.521 469.624 556.521 469.829C556.521 470.035 556.688 470.202 556.894 470.202Z" fill="black"/>
<path opacity="0.8" d="M552.203 470.574C552.409 470.574 552.576 470.408 552.576 470.202C552.576 469.996 552.409 469.829 552.203 469.829C551.997 469.829 551.831 469.996 551.831 470.202C551.831 470.408 551.997 470.574 552.203 470.574Z" fill="black"/>
<path opacity="0.8" d="M547.936 470.574C548.142 470.574 548.309 470.408 548.309 470.202C548.309 469.996 548.142 469.829 547.936 469.829C547.73 469.829 547.563 469.996 547.563 470.202C547.563 470.408 547.73 470.574 547.936 470.574Z" fill="black"/>
</g>
<g opacity="0.8">
<path opacity="0.8" d="M567.584 469.486C567.79 469.486 567.956 469.32 567.956 469.114C567.956 468.908 567.79 468.742 567.584 468.742C567.378 468.742 567.211 468.908 567.211 469.114C567.211 469.32 567.378 469.486 567.584 469.486Z" fill="black"/>
<path opacity="0.8" d="M565.693 470.015C565.898 470.015 566.065 469.848 566.065 469.643C566.065 469.437 565.898 469.27 565.693 469.27C565.487 469.27 565.32 469.437 565.32 469.643C565.32 469.848 565.487 470.015 565.693 470.015Z" fill="black"/>
<path opacity="0.8" d="M563.356 470.76C563.562 470.76 563.728 470.593 563.728 470.388C563.728 470.182 563.562 470.015 563.356 470.015C563.15 470.015 562.983 470.182 562.983 470.388C562.983 470.593 563.15 470.76 563.356 470.76Z" fill="black"/>
<path opacity="0.8" d="M559.166 471.662C559.372 471.662 559.539 471.496 559.539 471.29C559.539 471.084 559.372 470.918 559.166 470.918C558.96 470.918 558.794 471.084 558.794 471.29C558.794 471.496 558.96 471.662 559.166 471.662Z" fill="black"/>
<path opacity="0.8" d="M554.749 472.197C554.955 472.197 555.122 472.03 555.122 471.825C555.122 471.619 554.955 471.452 554.749 471.452C554.543 471.452 554.376 471.619 554.376 471.825C554.376 472.03 554.543 472.197 554.749 472.197Z" fill="black"/>
<path opacity="0.8" d="M550.174 472.407C550.38 472.407 550.547 472.241 550.547 472.035C550.547 471.829 550.38 471.662 550.174 471.662C549.969 471.662 549.802 471.829 549.802 472.035C549.802 472.241 549.969 472.407 550.174 472.407Z" fill="black"/>
<path opacity="0.8" d="M543.608 471.505C543.814 471.505 543.98 471.338 543.98 471.132C543.98 470.927 543.814 470.76 543.608 470.76C543.402 470.76 543.235 470.927 543.235 471.132C543.235 471.338 543.402 471.505 543.608 471.505Z" fill="black"/>
<path opacity="0.8" d="M545.784 472.035C545.989 472.035 546.156 471.868 546.156 471.662C546.156 471.457 545.989 471.29 545.784 471.29C545.578 471.29 545.411 471.457 545.411 471.662C545.411 471.868 545.578 472.035 545.784 472.035Z" fill="black"/>
<path opacity="0.8" d="M539.544 470.76C539.749 470.76 539.916 470.593 539.916 470.388C539.916 470.182 539.749 470.015 539.544 470.015C539.338 470.015 539.171 470.182 539.171 470.388C539.171 470.593 539.338 470.76 539.544 470.76Z" fill="black"/>
<path opacity="0.8" d="M541.501 471.132C541.707 471.132 541.874 470.966 541.874 470.76C541.874 470.554 541.707 470.388 541.501 470.388C541.295 470.388 541.129 470.554 541.129 470.76C541.129 470.966 541.295 471.132 541.501 471.132Z" fill="black"/>
<path opacity="0.8" d="M537.399 470.015C537.604 470.015 537.771 469.848 537.771 469.643C537.771 469.437 537.604 469.27 537.399 469.27C537.193 469.27 537.026 469.437 537.026 469.643C537.026 469.848 537.193 470.015 537.399 470.015Z" fill="black"/>
<path opacity="0.8" d="M561.216 471.29C561.422 471.29 561.589 471.123 561.589 470.918C561.589 470.712 561.422 470.545 561.216 470.545C561.011 470.545 560.844 470.712 560.844 470.918C560.844 471.123 561.011 471.29 561.216 471.29Z" fill="black"/>
<path opacity="0.8" d="M556.894 472.035C557.1 472.035 557.266 471.868 557.266 471.662C557.266 471.457 557.1 471.29 556.894 471.29C556.688 471.29 556.521 471.457 556.521 471.662C556.521 471.868 556.688 472.035 556.894 472.035Z" fill="black"/>
<path opacity="0.8" d="M552.203 472.407C552.409 472.407 552.576 472.241 552.576 472.035C552.576 471.829 552.409 471.662 552.203 471.662C551.997 471.662 551.831 471.829 551.831 472.035C551.831 472.241 551.997 472.407 552.203 472.407Z" fill="black"/>
<path opacity="0.8" d="M547.936 472.407C548.142 472.407 548.309 472.241 548.309 472.035C548.309 471.829 548.142 471.662 547.936 471.662C547.73 471.662 547.563 471.829 547.563 472.035C547.563 472.241 547.73 472.407 547.936 472.407Z" fill="black"/>
</g>
<g opacity="0.8">
<path opacity="0.8" d="M567.584 471.319C567.79 471.319 567.956 471.153 567.956 470.947C567.956 470.741 567.79 470.574 567.584 470.574C567.378 470.574 567.211 470.741 567.211 470.947C567.211 471.153 567.378 471.319 567.584 471.319Z" fill="black"/>
<path opacity="0.8" d="M565.693 471.848C565.898 471.848 566.065 471.681 566.065 471.476C566.065 471.27 565.898 471.103 565.693 471.103C565.487 471.103 565.32 471.27 565.32 471.476C565.32 471.681 565.487 471.848 565.693 471.848Z" fill="black"/>
<path opacity="0.8" d="M563.356 472.593C563.562 472.593 563.728 472.426 563.728 472.22C563.728 472.015 563.562 471.848 563.356 471.848C563.15 471.848 562.983 472.015 562.983 472.22C562.983 472.426 563.15 472.593 563.356 472.593Z" fill="black"/>
<path opacity="0.8" d="M559.166 473.495C559.372 473.495 559.539 473.329 559.539 473.123C559.539 472.917 559.372 472.75 559.166 472.75C558.96 472.75 558.794 472.917 558.794 473.123C558.794 473.329 558.96 473.495 559.166 473.495Z" fill="black"/>
<path opacity="0.8" d="M554.749 474.03C554.955 474.03 555.122 473.863 555.122 473.658C555.122 473.452 554.955 473.285 554.749 473.285C554.543 473.285 554.376 473.452 554.376 473.658C554.376 473.863 554.543 474.03 554.749 474.03Z" fill="black"/>
<path opacity="0.8" d="M550.174 474.24C550.38 474.24 550.547 474.073 550.547 473.868C550.547 473.662 550.38 473.495 550.174 473.495C549.969 473.495 549.802 473.662 549.802 473.868C549.802 474.073 549.969 474.24 550.174 474.24Z" fill="black"/>
<path opacity="0.8" d="M543.608 473.338C543.814 473.338 543.98 473.171 543.98 472.965C543.98 472.76 543.814 472.593 543.608 472.593C543.402 472.593 543.235 472.76 543.235 472.965C543.235 473.171 543.402 473.338 543.608 473.338Z" fill="black"/>
<path opacity="0.8" d="M545.784 473.868C545.989 473.868 546.156 473.701 546.156 473.495C546.156 473.29 545.989 473.123 545.784 473.123C545.578 473.123 545.411 473.29 545.411 473.495C545.411 473.701 545.578 473.868 545.784 473.868Z" fill="black"/>
<path opacity="0.8" d="M539.544 472.593C539.749 472.593 539.916 472.426 539.916 472.22C539.916 472.015 539.749 471.848 539.544 471.848C539.338 471.848 539.171 472.015 539.171 472.22C539.171 472.426 539.338 472.593 539.544 472.593Z" fill="black"/>
<path opacity="0.8" d="M541.501 472.965C541.707 472.965 541.874 472.799 541.874 472.593C541.874 472.387 541.707 472.22 541.501 472.22C541.295 472.22 541.129 472.387 541.129 472.593C541.129 472.799 541.295 472.965 541.501 472.965Z" fill="black"/>
<path opacity="0.8" d="M537.399 471.848C537.604 471.848 537.771 471.681 537.771 471.476C537.771 471.27 537.604 471.103 537.399 471.103C537.193 471.103 537.026 471.27 537.026 471.476C537.026 471.681 537.193 471.848 537.399 471.848Z" fill="black"/>
<path opacity="0.8" d="M561.216 473.123C561.422 473.123 561.589 472.956 561.589 472.75C561.589 472.545 561.422 472.378 561.216 472.378C561.011 472.378 560.844 472.545 560.844 472.75C560.844 472.956 561.011 473.123 561.216 473.123Z" fill="black"/>
<path opacity="0.8" d="M556.894 473.868C557.1 473.868 557.266 473.701 557.266 473.495C557.266 473.29 557.1 473.123 556.894 473.123C556.688 473.123 556.521 473.29 556.521 473.495C556.521 473.701 556.688 473.868 556.894 473.868Z" fill="black"/>
<path opacity="0.8" d="M552.203 474.24C552.409 474.24 552.576 474.073 552.576 473.868C552.576 473.662 552.409 473.495 552.203 473.495C551.997 473.495 551.831 473.662 551.831 473.868C551.831 474.073 551.997 474.24 552.203 474.24Z" fill="black"/>
<path opacity="0.8" d="M547.936 474.24C548.142 474.24 548.309 474.073 548.309 473.868C548.309 473.662 548.142 473.495 547.936 473.495C547.73 473.495 547.563 473.662 547.563 473.868C547.563 474.073 547.73 474.24 547.936 474.24Z" fill="black"/>
</g>
<g opacity="0.8">
<path opacity="0.8" d="M567.584 473.152C567.79 473.152 567.956 472.985 567.956 472.78C567.956 472.574 567.79 472.407 567.584 472.407C567.378 472.407 567.211 472.574 567.211 472.78C567.211 472.985 567.378 473.152 567.584 473.152Z" fill="black"/>
<path opacity="0.8" d="M565.693 473.681C565.898 473.681 566.065 473.514 566.065 473.308C566.065 473.103 565.898 472.936 565.693 472.936C565.487 472.936 565.32 473.103 565.32 473.308C565.32 473.514 565.487 473.681 565.693 473.681Z" fill="black"/>
<path opacity="0.8" d="M563.356 474.426C563.562 474.426 563.728 474.259 563.728 474.053C563.728 473.848 563.562 473.681 563.356 473.681C563.15 473.681 562.983 473.848 562.983 474.053C562.983 474.259 563.15 474.426 563.356 474.426Z" fill="black"/>
<path opacity="0.8" d="M559.166 475.328C559.372 475.328 559.539 475.161 559.539 474.956C559.539 474.75 559.372 474.583 559.166 474.583C558.96 474.583 558.794 474.75 558.794 474.956C558.794 475.161 558.96 475.328 559.166 475.328Z" fill="black"/>
<path opacity="0.8" d="M554.749 475.863C554.955 475.863 555.122 475.696 555.122 475.49C555.122 475.285 554.955 475.118 554.749 475.118C554.543 475.118 554.376 475.285 554.376 475.49C554.376 475.696 554.543 475.863 554.749 475.863Z" fill="black"/>
<path opacity="0.8" d="M550.174 476.073C550.38 476.073 550.547 475.906 550.547 475.701C550.547 475.495 550.38 475.328 550.174 475.328C549.969 475.328 549.802 475.495 549.802 475.701C549.802 475.906 549.969 476.073 550.174 476.073Z" fill="black"/>
<path opacity="0.8" d="M543.608 475.171C543.814 475.171 543.98 475.004 543.98 474.798C543.98 474.593 543.814 474.426 543.608 474.426C543.402 474.426 543.235 474.593 543.235 474.798C543.235 475.004 543.402 475.171 543.608 475.171Z" fill="black"/>
<path opacity="0.8" d="M545.784 475.701C545.989 475.701 546.156 475.534 546.156 475.328C546.156 475.123 545.989 474.956 545.784 474.956C545.578 474.956 545.411 475.123 545.411 475.328C545.411 475.534 545.578 475.701 545.784 475.701Z" fill="black"/>
<path opacity="0.8" d="M539.544 474.426C539.749 474.426 539.916 474.259 539.916 474.053C539.916 473.848 539.749 473.681 539.544 473.681C539.338 473.681 539.171 473.848 539.171 474.053C539.171 474.259 539.338 474.426 539.544 474.426Z" fill="black"/>
<path opacity="0.8" d="M541.501 474.798C541.707 474.798 541.874 474.632 541.874 474.426C541.874 474.22 541.707 474.053 541.501 474.053C541.295 474.053 541.129 474.22 541.129 474.426C541.129 474.632 541.295 474.798 541.501 474.798Z" fill="black"/>
<path opacity="0.8" d="M537.399 473.681C537.604 473.681 537.771 473.514 537.771 473.308C537.771 473.103 537.604 472.936 537.399 472.936C537.193 472.936 537.026 473.103 537.026 473.308C537.026 473.514 537.193 473.681 537.399 473.681Z" fill="black"/>
<path opacity="0.8" d="M561.216 474.956C561.422 474.956 561.589 474.789 561.589 474.583C561.589 474.378 561.422 474.211 561.216 474.211C561.011 474.211 560.844 474.378 560.844 474.583C560.844 474.789 561.011 474.956 561.216 474.956Z" fill="black"/>
<path opacity="0.8" d="M556.894 475.701C557.1 475.701 557.266 475.534 557.266 475.328C557.266 475.123 557.1 474.956 556.894 474.956C556.688 474.956 556.521 475.123 556.521 475.328C556.521 475.534 556.688 475.701 556.894 475.701Z" fill="black"/>
<path opacity="0.8" d="M552.203 476.073C552.409 476.073 552.576 475.906 552.576 475.701C552.576 475.495 552.409 475.328 552.203 475.328C551.997 475.328 551.831 475.495 551.831 475.701C551.831 475.906 551.997 476.073 552.203 476.073Z" fill="black"/>
<path opacity="0.8" d="M547.936 476.073C548.142 476.073 548.309 475.906 548.309 475.701C548.309 475.495 548.142 475.328 547.936 475.328C547.73 475.328 547.563 475.495 547.563 475.701C547.563 475.906 547.73 476.073 547.936 476.073Z" fill="black"/>
</g>
<g opacity="0.8">
<path opacity="0.8" d="M567.584 474.985C567.79 474.985 567.956 474.818 567.956 474.613C567.956 474.407 567.79 474.24 567.584 474.24C567.378 474.24 567.211 474.407 567.211 474.613C567.211 474.818 567.378 474.985 567.584 474.985Z" fill="black"/>
<path opacity="0.8" d="M565.693 475.514C565.898 475.514 566.065 475.347 566.065 475.141C566.065 474.936 565.898 474.769 565.693 474.769C565.487 474.769 565.32 474.936 565.32 475.141C565.32 475.347 565.487 475.514 565.693 475.514Z" fill="black"/>
<path opacity="0.8" d="M563.356 476.259C563.562 476.259 563.728 476.092 563.728 475.886C563.728 475.681 563.562 475.514 563.356 475.514C563.15 475.514 562.983 475.681 562.983 475.886C562.983 476.092 563.15 476.259 563.356 476.259Z" fill="black"/>
<path opacity="0.8" d="M559.166 477.161C559.372 477.161 559.539 476.994 559.539 476.789C559.539 476.583 559.372 476.416 559.166 476.416C558.96 476.416 558.794 476.583 558.794 476.789C558.794 476.994 558.96 477.161 559.166 477.161Z" fill="black"/>
<path opacity="0.8" d="M554.749 477.696C554.955 477.696 555.122 477.529 555.122 477.323C555.122 477.118 554.955 476.951 554.749 476.951C554.543 476.951 554.376 477.118 554.376 477.323C554.376 477.529 554.543 477.696 554.749 477.696Z" fill="black"/>
<path opacity="0.8" d="M550.174 477.906C550.38 477.906 550.547 477.739 550.547 477.534C550.547 477.328 550.38 477.161 550.174 477.161C549.969 477.161 549.802 477.328 549.802 477.534C549.802 477.739 549.969 477.906 550.174 477.906Z" fill="black"/>
<path opacity="0.8" d="M543.608 477.004C543.814 477.004 543.98 476.837 543.98 476.631C543.98 476.425 543.814 476.259 543.608 476.259C543.402 476.259 543.235 476.425 543.235 476.631C543.235 476.837 543.402 477.004 543.608 477.004Z" fill="black"/>
<path opacity="0.8" d="M545.784 477.534C545.989 477.534 546.156 477.367 546.156 477.161C546.156 476.955 545.989 476.789 545.784 476.789C545.578 476.789 545.411 476.955 545.411 477.161C545.411 477.367 545.578 477.534 545.784 477.534Z" fill="black"/>
<path opacity="0.8" d="M539.544 476.259C539.749 476.259 539.916 476.092 539.916 475.886C539.916 475.681 539.749 475.514 539.544 475.514C539.338 475.514 539.171 475.681 539.171 475.886C539.171 476.092 539.338 476.259 539.544 476.259Z" fill="black"/>
<path opacity="0.8" d="M541.501 476.631C541.707 476.631 541.874 476.464 541.874 476.259C541.874 476.053 541.707 475.886 541.501 475.886C541.295 475.886 541.129 476.053 541.129 476.259C541.129 476.464 541.295 476.631 541.501 476.631Z" fill="black"/>
<path opacity="0.8" d="M537.399 475.514C537.604 475.514 537.771 475.347 537.771 475.141C537.771 474.936 537.604 474.769 537.399 474.769C537.193 474.769 537.026 474.936 537.026 475.141C537.026 475.347 537.193 475.514 537.399 475.514Z" fill="black"/>
<path opacity="0.8" d="M561.216 476.789C561.422 476.789 561.589 476.622 561.589 476.416C561.589 476.21 561.422 476.044 561.216 476.044C561.011 476.044 560.844 476.21 560.844 476.416C560.844 476.622 561.011 476.789 561.216 476.789Z" fill="black"/>
<path opacity="0.8" d="M556.894 477.534C557.1 477.534 557.266 477.367 557.266 477.161C557.266 476.955 557.1 476.789 556.894 476.789C556.688 476.789 556.521 476.955 556.521 477.161C556.521 477.367 556.688 477.534 556.894 477.534Z" fill="black"/>
<path opacity="0.8" d="M552.203 477.906C552.409 477.906 552.576 477.739 552.576 477.534C552.576 477.328 552.409 477.161 552.203 477.161C551.997 477.161 551.831 477.328 551.831 477.534C551.831 477.739 551.997 477.906 552.203 477.906Z" fill="black"/>
<path opacity="0.8" d="M547.936 477.906C548.142 477.906 548.309 477.739 548.309 477.534C548.309 477.328 548.142 477.161 547.936 477.161C547.73 477.161 547.563 477.328 547.563 477.534C547.563 477.739 547.73 477.906 547.936 477.906Z" fill="black"/>
</g>
<g opacity="0.8">
<path opacity="0.8" d="M567.584 476.818C567.79 476.818 567.956 476.651 567.956 476.446C567.956 476.24 567.79 476.073 567.584 476.073C567.378 476.073 567.211 476.24 567.211 476.446C567.211 476.651 567.378 476.818 567.584 476.818Z" fill="black"/>
<path opacity="0.8" d="M565.693 477.347C565.898 477.347 566.065 477.18 566.065 476.974C566.065 476.769 565.898 476.602 565.693 476.602C565.487 476.602 565.32 476.769 565.32 476.974C565.32 477.18 565.487 477.347 565.693 477.347Z" fill="black"/>
<path opacity="0.8" d="M563.356 478.092C563.562 478.092 563.728 477.925 563.728 477.719C563.728 477.513 563.562 477.347 563.356 477.347C563.15 477.347 562.983 477.513 562.983 477.719C562.983 477.925 563.15 478.092 563.356 478.092Z" fill="black"/>
<path opacity="0.8" d="M559.166 478.994C559.372 478.994 559.539 478.827 559.539 478.622C559.539 478.416 559.372 478.249 559.166 478.249C558.96 478.249 558.794 478.416 558.794 478.622C558.794 478.827 558.96 478.994 559.166 478.994Z" fill="black"/>
<path opacity="0.8" d="M554.749 479.529C554.955 479.529 555.122 479.362 555.122 479.156C555.122 478.951 554.955 478.784 554.749 478.784C554.543 478.784 554.376 478.951 554.376 479.156C554.376 479.362 554.543 479.529 554.749 479.529Z" fill="black"/>
<path opacity="0.8" d="M550.174 479.739C550.38 479.739 550.547 479.572 550.547 479.366C550.547 479.161 550.38 478.994 550.174 478.994C549.969 478.994 549.802 479.161 549.802 479.366C549.802 479.572 549.969 479.739 550.174 479.739Z" fill="black"/>
<path opacity="0.8" d="M543.608 478.837C543.814 478.837 543.98 478.67 543.98 478.464C543.98 478.258 543.814 478.092 543.608 478.092C543.402 478.092 543.235 478.258 543.235 478.464C543.235 478.67 543.402 478.837 543.608 478.837Z" fill="black"/>
<path opacity="0.8" d="M545.784 479.366C545.989 479.366 546.156 479.2 546.156 478.994C546.156 478.788 545.989 478.622 545.784 478.622C545.578 478.622 545.411 478.788 545.411 478.994C545.411 479.2 545.578 479.366 545.784 479.366Z" fill="black"/>
<path opacity="0.8" d="M539.544 478.092C539.749 478.092 539.916 477.925 539.916 477.719C539.916 477.513 539.749 477.347 539.544 477.347C539.338 477.347 539.171 477.513 539.171 477.719C539.171 477.925 539.338 478.092 539.544 478.092Z" fill="black"/>
<path opacity="0.8" d="M541.501 478.464C541.707 478.464 541.874 478.297 541.874 478.092C541.874 477.886 541.707 477.719 541.501 477.719C541.295 477.719 541.129 477.886 541.129 478.092C541.129 478.297 541.295 478.464 541.501 478.464Z" fill="black"/>
<path opacity="0.8" d="M537.399 477.347C537.604 477.347 537.771 477.18 537.771 476.974C537.771 476.769 537.604 476.602 537.399 476.602C537.193 476.602 537.026 476.769 537.026 476.974C537.026 477.18 537.193 477.347 537.399 477.347Z" fill="black"/>
<path opacity="0.8" d="M561.216 478.622C561.422 478.622 561.589 478.455 561.589 478.249C561.589 478.043 561.422 477.877 561.216 477.877C561.011 477.877 560.844 478.043 560.844 478.249C560.844 478.455 561.011 478.622 561.216 478.622Z" fill="black"/>
<path opacity="0.8" d="M556.894 479.366C557.1 479.366 557.266 479.2 557.266 478.994C557.266 478.788 557.1 478.622 556.894 478.622C556.688 478.622 556.521 478.788 556.521 478.994C556.521 479.2 556.688 479.366 556.894 479.366Z" fill="black"/>
<path opacity="0.8" d="M552.203 479.739C552.409 479.739 552.576 479.572 552.576 479.366C552.576 479.161 552.409 478.994 552.203 478.994C551.997 478.994 551.831 479.161 551.831 479.366C551.831 479.572 551.997 479.739 552.203 479.739Z" fill="black"/>
<path opacity="0.8" d="M547.936 479.739C548.142 479.739 548.309 479.572 548.309 479.366C548.309 479.161 548.142 478.994 547.936 478.994C547.73 478.994 547.563 479.161 547.563 479.366C547.563 479.572 547.73 479.739 547.936 479.739Z" fill="black"/>
</g>
<g opacity="0.8">
<path opacity="0.8" d="M567.584 478.651C567.79 478.651 567.956 478.484 567.956 478.278C567.956 478.073 567.79 477.906 567.584 477.906C567.378 477.906 567.211 478.073 567.211 478.278C567.211 478.484 567.378 478.651 567.584 478.651Z" fill="black"/>
<path opacity="0.8" d="M565.693 479.18C565.898 479.18 566.065 479.013 566.065 478.807C566.065 478.601 565.898 478.435 565.693 478.435C565.487 478.435 565.32 478.601 565.32 478.807C565.32 479.013 565.487 479.18 565.693 479.18Z" fill="black"/>
<path opacity="0.8" d="M563.356 479.924C563.562 479.924 563.728 479.758 563.728 479.552C563.728 479.346 563.562 479.18 563.356 479.18C563.15 479.18 562.983 479.346 562.983 479.552C562.983 479.758 563.15 479.924 563.356 479.924Z" fill="black"/>
<path opacity="0.8" d="M559.166 480.827C559.372 480.827 559.539 480.66 559.539 480.454C559.539 480.249 559.372 480.082 559.166 480.082C558.96 480.082 558.794 480.249 558.794 480.454C558.794 480.66 558.96 480.827 559.166 480.827Z" fill="black"/>
<path opacity="0.8" d="M554.749 481.362C554.955 481.362 555.122 481.195 555.122 480.989C555.122 480.783 554.955 480.617 554.749 480.617C554.543 480.617 554.376 480.783 554.376 480.989C554.376 481.195 554.543 481.362 554.749 481.362Z" fill="black"/>
<path opacity="0.8" d="M550.174 481.572C550.38 481.572 550.547 481.405 550.547 481.199C550.547 480.994 550.38 480.827 550.174 480.827C549.969 480.827 549.802 480.994 549.802 481.199C549.802 481.405 549.969 481.572 550.174 481.572Z" fill="black"/>
<path opacity="0.8" d="M543.608 480.669C543.814 480.669 543.98 480.503 543.98 480.297C543.98 480.091 543.814 479.924 543.608 479.924C543.402 479.924 543.235 480.091 543.235 480.297C543.235 480.503 543.402 480.669 543.608 480.669Z" fill="black"/>
<path opacity="0.8" d="M545.784 481.199C545.989 481.199 546.156 481.033 546.156 480.827C546.156 480.621 545.989 480.454 545.784 480.454C545.578 480.454 545.411 480.621 545.411 480.827C545.411 481.033 545.578 481.199 545.784 481.199Z" fill="black"/>
<path opacity="0.8" d="M539.544 479.924C539.749 479.924 539.916 479.758 539.916 479.552C539.916 479.346 539.749 479.18 539.544 479.18C539.338 479.18 539.171 479.346 539.171 479.552C539.171 479.758 539.338 479.924 539.544 479.924Z" fill="black"/>
<path opacity="0.8" d="M541.501 480.297C541.707 480.297 541.874 480.13 541.874 479.924C541.874 479.719 541.707 479.552 541.501 479.552C541.295 479.552 541.129 479.719 541.129 479.924C541.129 480.13 541.295 480.297 541.501 480.297Z" fill="black"/>
<path opacity="0.8" d="M537.399 479.18C537.604 479.18 537.771 479.013 537.771 478.807C537.771 478.601 537.604 478.435 537.399 478.435C537.193 478.435 537.026 478.601 537.026 478.807C537.026 479.013 537.193 479.18 537.399 479.18Z" fill="black"/>
<path opacity="0.8" d="M561.216 480.454C561.422 480.454 561.589 480.288 561.589 480.082C561.589 479.876 561.422 479.71 561.216 479.71C561.011 479.71 560.844 479.876 560.844 480.082C560.844 480.288 561.011 480.454 561.216 480.454Z" fill="black"/>
<path opacity="0.8" d="M556.894 481.199C557.1 481.199 557.266 481.033 557.266 480.827C557.266 480.621 557.1 480.454 556.894 480.454C556.688 480.454 556.521 480.621 556.521 480.827C556.521 481.033 556.688 481.199 556.894 481.199Z" fill="black"/>
<path opacity="0.8" d="M552.203 481.572C552.409 481.572 552.576 481.405 552.576 481.199C552.576 480.994 552.409 480.827 552.203 480.827C551.997 480.827 551.831 480.994 551.831 481.199C551.831 481.405 551.997 481.572 552.203 481.572Z" fill="black"/>
<path opacity="0.8" d="M547.936 481.572C548.142 481.572 548.309 481.405 548.309 481.199C548.309 480.994 548.142 480.827 547.936 480.827C547.73 480.827 547.563 480.994 547.563 481.199C547.563 481.405 547.73 481.572 547.936 481.572Z" fill="black"/>
</g>
<g opacity="0.8">
<path opacity="0.8" d="M567.584 480.484C567.79 480.484 567.956 480.317 567.956 480.111C567.956 479.906 567.79 479.739 567.584 479.739C567.378 479.739 567.211 479.906 567.211 480.111C567.211 480.317 567.378 480.484 567.584 480.484Z" fill="black"/>
<path opacity="0.8" d="M565.693 481.013C565.898 481.013 566.065 480.846 566.065 480.64C566.065 480.434 565.898 480.268 565.693 480.268C565.487 480.268 565.32 480.434 565.32 480.64C565.32 480.846 565.487 481.013 565.693 481.013Z" fill="black"/>
<path opacity="0.8" d="M563.356 481.757C563.562 481.757 563.728 481.591 563.728 481.385C563.728 481.179 563.562 481.013 563.356 481.013C563.15 481.013 562.983 481.179 562.983 481.385C562.983 481.591 563.15 481.757 563.356 481.757Z" fill="black"/>
<path opacity="0.8" d="M559.166 482.66C559.372 482.66 559.539 482.493 559.539 482.287C559.539 482.082 559.372 481.915 559.166 481.915C558.96 481.915 558.794 482.082 558.794 482.287C558.794 482.493 558.96 482.66 559.166 482.66Z" fill="black"/>
<path opacity="0.8" d="M554.749 483.194C554.955 483.194 555.122 483.028 555.122 482.822C555.122 482.616 554.955 482.45 554.749 482.45C554.543 482.45 554.376 482.616 554.376 482.822C554.376 483.028 554.543 483.194 554.749 483.194Z" fill="black"/>
<path opacity="0.8" d="M550.174 483.405C550.38 483.405 550.547 483.238 550.547 483.032C550.547 482.827 550.38 482.66 550.174 482.66C549.969 482.66 549.802 482.827 549.802 483.032C549.802 483.238 549.969 483.405 550.174 483.405Z" fill="black"/>
<path opacity="0.8" d="M543.608 482.502C543.814 482.502 543.98 482.336 543.98 482.13C543.98 481.924 543.814 481.757 543.608 481.757C543.402 481.757 543.235 481.924 543.235 482.13C543.235 482.336 543.402 482.502 543.608 482.502Z" fill="black"/>
<path opacity="0.8" d="M545.784 483.032C545.989 483.032 546.156 482.865 546.156 482.66C546.156 482.454 545.989 482.287 545.784 482.287C545.578 482.287 545.411 482.454 545.411 482.66C545.411 482.865 545.578 483.032 545.784 483.032Z" fill="black"/>
<path opacity="0.8" d="M539.544 481.757C539.749 481.757 539.916 481.591 539.916 481.385C539.916 481.179 539.749 481.013 539.544 481.013C539.338 481.013 539.171 481.179 539.171 481.385C539.171 481.591 539.338 481.757 539.544 481.757Z" fill="black"/>
<path opacity="0.8" d="M541.501 482.13C541.707 482.13 541.874 481.963 541.874 481.757C541.874 481.552 541.707 481.385 541.501 481.385C541.295 481.385 541.129 481.552 541.129 481.757C541.129 481.963 541.295 482.13 541.501 482.13Z" fill="black"/>
<path opacity="0.8" d="M537.399 481.013C537.604 481.013 537.771 480.846 537.771 480.64C537.771 480.434 537.604 480.268 537.399 480.268C537.193 480.268 537.026 480.434 537.026 480.64C537.026 480.846 537.193 481.013 537.399 481.013Z" fill="black"/>
<path opacity="0.8" d="M561.216 482.287C561.422 482.287 561.589 482.121 561.589 481.915C561.589 481.709 561.422 481.542 561.216 481.542C561.011 481.542 560.844 481.709 560.844 481.915C560.844 482.121 561.011 482.287 561.216 482.287Z" fill="black"/>
<path opacity="0.8" d="M556.894 483.032C557.1 483.032 557.266 482.865 557.266 482.66C557.266 482.454 557.1 482.287 556.894 482.287C556.688 482.287 556.521 482.454 556.521 482.66C556.521 482.865 556.688 483.032 556.894 483.032Z" fill="black"/>
<path opacity="0.8" d="M552.203 483.405C552.409 483.405 552.576 483.238 552.576 483.032C552.576 482.827 552.409 482.66 552.203 482.66C551.997 482.66 551.831 482.827 551.831 483.032C551.831 483.238 551.997 483.405 552.203 483.405Z" fill="black"/>
<path opacity="0.8" d="M547.936 483.405C548.142 483.405 548.309 483.238 548.309 483.032C548.309 482.827 548.142 482.66 547.936 482.66C547.73 482.66 547.563 482.827 547.563 483.032C547.563 483.238 547.73 483.405 547.936 483.405Z" fill="black"/>
</g>
<g opacity="0.8">
<path opacity="0.8" d="M567.584 482.317C567.79 482.317 567.956 482.15 567.956 481.944C567.956 481.739 567.79 481.572 567.584 481.572C567.378 481.572 567.211 481.739 567.211 481.944C567.211 482.15 567.378 482.317 567.584 482.317Z" fill="black"/>
<path opacity="0.8" d="M565.693 482.845C565.898 482.845 566.065 482.679 566.065 482.473C566.065 482.267 565.898 482.1 565.693 482.1C565.487 482.1 565.32 482.267 565.32 482.473C565.32 482.679 565.487 482.845 565.693 482.845Z" fill="black"/>
<path opacity="0.8" d="M563.356 483.59C563.562 483.59 563.728 483.424 563.728 483.218C563.728 483.012 563.562 482.845 563.356 482.845C563.15 482.845 562.983 483.012 562.983 483.218C562.983 483.424 563.15 483.59 563.356 483.59Z" fill="black"/>
<path opacity="0.8" d="M559.166 484.493C559.372 484.493 559.539 484.326 559.539 484.12C559.539 483.915 559.372 483.748 559.166 483.748C558.96 483.748 558.794 483.915 558.794 484.12C558.794 484.326 558.96 484.493 559.166 484.493Z" fill="black"/>
<path opacity="0.8" d="M554.749 485.027C554.955 485.027 555.122 484.861 555.122 484.655C555.122 484.449 554.955 484.282 554.749 484.282C554.543 484.282 554.376 484.449 554.376 484.655C554.376 484.861 554.543 485.027 554.749 485.027Z" fill="black"/>
<path opacity="0.8" d="M550.174 485.238C550.38 485.238 550.547 485.071 550.547 484.865C550.547 484.659 550.38 484.493 550.174 484.493C549.969 484.493 549.802 484.659 549.802 484.865C549.802 485.071 549.969 485.238 550.174 485.238Z" fill="black"/>
<path opacity="0.8" d="M543.608 484.335C543.814 484.335 543.98 484.168 543.98 483.963C543.98 483.757 543.814 483.59 543.608 483.59C543.402 483.59 543.235 483.757 543.235 483.963C543.235 484.168 543.402 484.335 543.608 484.335Z" fill="black"/>
<path opacity="0.8" d="M545.784 484.865C545.989 484.865 546.156 484.698 546.156 484.493C546.156 484.287 545.989 484.12 545.784 484.12C545.578 484.12 545.411 484.287 545.411 484.493C545.411 484.698 545.578 484.865 545.784 484.865Z" fill="black"/>
<path opacity="0.8" d="M539.544 483.59C539.749 483.59 539.916 483.424 539.916 483.218C539.916 483.012 539.749 482.845 539.544 482.845C539.338 482.845 539.171 483.012 539.171 483.218C539.171 483.424 539.338 483.59 539.544 483.59Z" fill="black"/>
<path opacity="0.8" d="M541.501 483.963C541.707 483.963 541.874 483.796 541.874 483.59C541.874 483.385 541.707 483.218 541.501 483.218C541.295 483.218 541.129 483.385 541.129 483.59C541.129 483.796 541.295 483.963 541.501 483.963Z" fill="black"/>
<path opacity="0.8" d="M537.399 482.845C537.604 482.845 537.771 482.679 537.771 482.473C537.771 482.267 537.604 482.1 537.399 482.1C537.193 482.1 537.026 482.267 537.026 482.473C537.026 482.679 537.193 482.845 537.399 482.845Z" fill="black"/>
<path opacity="0.8" d="M561.216 484.12C561.422 484.12 561.589 483.953 561.589 483.748C561.589 483.542 561.422 483.375 561.216 483.375C561.011 483.375 560.844 483.542 560.844 483.748C560.844 483.953 561.011 484.12 561.216 484.12Z" fill="black"/>
<path opacity="0.8" d="M556.894 484.865C557.1 484.865 557.266 484.698 557.266 484.493C557.266 484.287 557.1 484.12 556.894 484.12C556.688 484.12 556.521 484.287 556.521 484.493C556.521 484.698 556.688 484.865 556.894 484.865Z" fill="black"/>
<path opacity="0.8" d="M552.203 485.238C552.409 485.238 552.576 485.071 552.576 484.865C552.576 484.659 552.409 484.493 552.203 484.493C551.997 484.493 551.831 484.659 551.831 484.865C551.831 485.071 551.997 485.238 552.203 485.238Z" fill="black"/>
<path opacity="0.8" d="M547.936 485.238C548.142 485.238 548.309 485.071 548.309 484.865C548.309 484.659 548.142 484.493 547.936 484.493C547.73 484.493 547.563 484.659 547.563 484.865C547.563 485.071 547.73 485.238 547.936 485.238Z" fill="black"/>
</g>
<g opacity="0.8">
<path opacity="0.8" d="M567.584 484.15C567.79 484.15 567.956 483.983 567.956 483.777C567.956 483.571 567.79 483.405 567.584 483.405C567.378 483.405 567.211 483.571 567.211 483.777C567.211 483.983 567.378 484.15 567.584 484.15Z" fill="black"/>
<path opacity="0.8" d="M565.693 484.678C565.898 484.678 566.065 484.512 566.065 484.306C566.065 484.1 565.898 483.933 565.693 483.933C565.487 483.933 565.32 484.1 565.32 484.306C565.32 484.512 565.487 484.678 565.693 484.678Z" fill="black"/>
<path opacity="0.8" d="M563.356 485.423C563.562 485.423 563.728 485.256 563.728 485.051C563.728 484.845 563.562 484.678 563.356 484.678C563.15 484.678 562.983 484.845 562.983 485.051C562.983 485.256 563.15 485.423 563.356 485.423Z" fill="black"/>
<path opacity="0.8" d="M559.166 486.326C559.372 486.326 559.539 486.159 559.539 485.953C559.539 485.747 559.372 485.581 559.166 485.581C558.96 485.581 558.794 485.747 558.794 485.953C558.794 486.159 558.96 486.326 559.166 486.326Z" fill="black"/>
<path opacity="0.8" d="M554.749 486.86C554.955 486.86 555.122 486.694 555.122 486.488C555.122 486.282 554.955 486.115 554.749 486.115C554.543 486.115 554.376 486.282 554.376 486.488C554.376 486.694 554.543 486.86 554.749 486.86Z" fill="black"/>
<path opacity="0.8" d="M550.174 487.071C550.38 487.071 550.547 486.904 550.547 486.698C550.547 486.492 550.38 486.326 550.174 486.326C549.969 486.326 549.802 486.492 549.802 486.698C549.802 486.904 549.969 487.071 550.174 487.071Z" fill="black"/>
<path opacity="0.8" d="M543.608 486.168C543.814 486.168 543.98 486.001 543.98 485.796C543.98 485.59 543.814 485.423 543.608 485.423C543.402 485.423 543.235 485.59 543.235 485.796C543.235 486.001 543.402 486.168 543.608 486.168Z" fill="black"/>
<path opacity="0.8" d="M545.784 486.698C545.989 486.698 546.156 486.531 546.156 486.326C546.156 486.12 545.989 485.953 545.784 485.953C545.578 485.953 545.411 486.12 545.411 486.326C545.411 486.531 545.578 486.698 545.784 486.698Z" fill="black"/>
<path opacity="0.8" d="M539.544 485.423C539.749 485.423 539.916 485.256 539.916 485.051C539.916 484.845 539.749 484.678 539.544 484.678C539.338 484.678 539.171 484.845 539.171 485.051C539.171 485.256 539.338 485.423 539.544 485.423Z" fill="black"/>
<path opacity="0.8" d="M541.501 485.796C541.707 485.796 541.874 485.629 541.874 485.423C541.874 485.217 541.707 485.051 541.501 485.051C541.295 485.051 541.129 485.217 541.129 485.423C541.129 485.629 541.295 485.796 541.501 485.796Z" fill="black"/>
<path opacity="0.8" d="M537.399 484.678C537.604 484.678 537.771 484.512 537.771 484.306C537.771 484.1 537.604 483.933 537.399 483.933C537.193 483.933 537.026 484.1 537.026 484.306C537.026 484.512 537.193 484.678 537.399 484.678Z" fill="black"/>
<path opacity="0.8" d="M561.216 485.953C561.422 485.953 561.589 485.786 561.589 485.581C561.589 485.375 561.422 485.208 561.216 485.208C561.011 485.208 560.844 485.375 560.844 485.581C560.844 485.786 561.011 485.953 561.216 485.953Z" fill="black"/>
<path opacity="0.8" d="M556.894 486.698C557.1 486.698 557.266 486.531 557.266 486.326C557.266 486.12 557.1 485.953 556.894 485.953C556.688 485.953 556.521 486.12 556.521 486.326C556.521 486.531 556.688 486.698 556.894 486.698Z" fill="black"/>
<path opacity="0.8" d="M552.203 487.071C552.409 487.071 552.576 486.904 552.576 486.698C552.576 486.492 552.409 486.326 552.203 486.326C551.997 486.326 551.831 486.492 551.831 486.698C551.831 486.904 551.997 487.071 552.203 487.071Z" fill="black"/>
<path opacity="0.8" d="M547.936 487.071C548.142 487.071 548.309 486.904 548.309 486.698C548.309 486.492 548.142 486.326 547.936 486.326C547.73 486.326 547.563 486.492 547.563 486.698C547.563 486.904 547.73 487.071 547.936 487.071Z" fill="black"/>
</g>
<g opacity="0.8">
<path opacity="0.8" d="M567.584 485.983C567.79 485.983 567.956 485.816 567.956 485.61C567.956 485.404 567.79 485.238 567.584 485.238C567.378 485.238 567.211 485.404 567.211 485.61C567.211 485.816 567.378 485.983 567.584 485.983Z" fill="black"/>
<path opacity="0.8" d="M565.693 486.511C565.898 486.511 566.065 486.344 566.065 486.139C566.065 485.933 565.898 485.766 565.693 485.766C565.487 485.766 565.32 485.933 565.32 486.139C565.32 486.344 565.487 486.511 565.693 486.511Z" fill="black"/>
<path opacity="0.8" d="M563.356 487.256C563.562 487.256 563.728 487.089 563.728 486.884C563.728 486.678 563.562 486.511 563.356 486.511C563.15 486.511 562.983 486.678 562.983 486.884C562.983 487.089 563.15 487.256 563.356 487.256Z" fill="black"/>
<path opacity="0.8" d="M559.166 488.159C559.372 488.159 559.539 487.992 559.539 487.786C559.539 487.58 559.372 487.414 559.166 487.414C558.96 487.414 558.794 487.58 558.794 487.786C558.794 487.992 558.96 488.159 559.166 488.159Z" fill="black"/>
<path opacity="0.8" d="M554.749 488.693C554.955 488.693 555.122 488.526 555.122 488.321C555.122 488.115 554.955 487.948 554.749 487.948C554.543 487.948 554.376 488.115 554.376 488.321C554.376 488.526 554.543 488.693 554.749 488.693Z" fill="black"/>
<path opacity="0.8" d="M550.174 488.903C550.38 488.903 550.547 488.737 550.547 488.531C550.547 488.325 550.38 488.159 550.174 488.159C549.969 488.159 549.802 488.325 549.802 488.531C549.802 488.737 549.969 488.903 550.174 488.903Z" fill="black"/>
<path opacity="0.8" d="M543.608 488.001C543.814 488.001 543.98 487.834 543.98 487.629C543.98 487.423 543.814 487.256 543.608 487.256C543.402 487.256 543.235 487.423 543.235 487.629C543.235 487.834 543.402 488.001 543.608 488.001Z" fill="black"/>
<path opacity="0.8" d="M545.784 488.531C545.989 488.531 546.156 488.364 546.156 488.159C546.156 487.953 545.989 487.786 545.784 487.786C545.578 487.786 545.411 487.953 545.411 488.159C545.411 488.364 545.578 488.531 545.784 488.531Z" fill="black"/>
<path opacity="0.8" d="M539.544 487.256C539.749 487.256 539.916 487.089 539.916 486.884C539.916 486.678 539.749 486.511 539.544 486.511C539.338 486.511 539.171 486.678 539.171 486.884C539.171 487.089 539.338 487.256 539.544 487.256Z" fill="black"/>
<path opacity="0.8" d="M541.501 487.629C541.707 487.629 541.874 487.462 541.874 487.256C541.874 487.05 541.707 486.884 541.501 486.884C541.295 486.884 541.129 487.05 541.129 487.256C541.129 487.462 541.295 487.629 541.501 487.629Z" fill="black"/>
<path opacity="0.8" d="M537.399 486.511C537.604 486.511 537.771 486.344 537.771 486.139C537.771 485.933 537.604 485.766 537.399 485.766C537.193 485.766 537.026 485.933 537.026 486.139C537.026 486.344 537.193 486.511 537.399 486.511Z" fill="black"/>
<path opacity="0.8" d="M561.216 487.786C561.422 487.786 561.589 487.619 561.589 487.414C561.589 487.208 561.422 487.041 561.216 487.041C561.011 487.041 560.844 487.208 560.844 487.414C560.844 487.619 561.011 487.786 561.216 487.786Z" fill="black"/>
<path opacity="0.8" d="M556.894 488.531C557.1 488.531 557.266 488.364 557.266 488.159C557.266 487.953 557.1 487.786 556.894 487.786C556.688 487.786 556.521 487.953 556.521 488.159C556.521 488.364 556.688 488.531 556.894 488.531Z" fill="black"/>
<path opacity="0.8" d="M552.203 488.903C552.409 488.903 552.576 488.737 552.576 488.531C552.576 488.325 552.409 488.159 552.203 488.159C551.997 488.159 551.831 488.325 551.831 488.531C551.831 488.737 551.997 488.903 552.203 488.903Z" fill="black"/>
<path opacity="0.8" d="M547.936 488.903C548.142 488.903 548.309 488.737 548.309 488.531C548.309 488.325 548.142 488.159 547.936 488.159C547.73 488.159 547.563 488.325 547.563 488.531C547.563 488.737 547.73 488.903 547.936 488.903Z" fill="black"/>
</g>
</svg>
