<svg width="335" height="407" viewBox="0 0 335 407" fill="none" xmlns="http://www.w3.org/2000/svg">
<path d="M232.418 206.242C232.428 204.851 232.151 203.473 231.605 202.194C231.06 200.915 230.257 199.763 229.247 198.809C228.237 197.855 227.041 197.12 225.735 196.65C224.429 196.179 223.04 195.984 221.655 196.076C220.27 196.167 218.919 196.544 217.685 197.183C216.452 197.821 215.364 198.707 214.488 199.786C213.612 200.865 212.967 202.113 212.594 203.452C212.221 204.792 212.128 206.194 212.32 207.572L183.308 245.638C182.07 248.119 181.59 250.91 181.928 253.663C182.267 256.416 183.408 259.007 185.209 261.113L187.485 263.773L197.927 261.681L209.762 251.218L208.369 239.36L222.988 216.343L222.97 216.326C225.529 216.163 227.93 215.029 229.685 213.156C231.44 211.283 232.417 208.811 232.418 206.242Z" fill="#FFB9B9"/>
<path d="M31.7929 392.342L27.0571 374.719L92.6435 348.033L99.6327 374.042L31.7929 392.342Z" fill="#FFB8B8"/>
<path d="M15.9516 401.436L0.682617 344.614L1.39991 344.42C7.25411 342.841 13.4946 343.657 18.7487 346.687C24.0028 349.718 27.8402 354.716 29.4169 360.581L29.4173 360.583L38.743 395.288L15.9516 401.436Z" fill="#2F2E41"/>
<path d="M122.135 389.526L107.405 378.793L141.715 316.755L163.457 332.596L122.135 389.526Z" fill="#FFB8B8"/>
<path d="M115.509 406.572L68.0098 371.962L68.4467 371.36C72.0125 366.447 77.38 363.155 83.3684 362.207C89.3567 361.259 95.4756 362.734 100.379 366.306L100.38 366.307L129.391 387.446L115.509 406.572Z" fill="#2F2E41"/>
<path d="M247.354 302.834L210.284 266.753C207.049 263.604 202.788 261.731 198.285 261.479C193.781 261.227 189.339 262.613 185.774 265.381L115.781 343.289L122.047 353.054L188.877 307.716L234.127 367.004L277.288 345.382L247.354 302.834Z" fill="#2F2E41"/>
<path d="M231.343 310.506L204.193 308.414L184.531 303.638C183.42 301.902 181.807 300.547 179.907 299.755C178.007 298.963 175.91 298.772 173.899 299.207C171.887 299.641 170.056 300.682 168.65 302.188C167.245 303.694 166.332 305.595 166.034 307.635C165.737 309.675 166.068 311.758 166.985 313.604C167.901 315.451 169.358 316.972 171.162 317.966C172.965 318.959 175.028 319.377 177.075 319.164C179.122 318.95 181.055 318.114 182.615 316.77L182.612 316.784L194.447 321.666L245.265 339.104L251.531 334.221L231.343 310.506Z" fill="#FFB9B9"/>
<path d="M296.78 385.838L281.465 395.603H263.365L179.132 364.215L55.9133 386.535L52.4326 360.029L165.209 310.507L264.062 343.289L296.78 385.838Z" fill="#2F2E41"/>
<path d="M264.061 216.342C279.056 216.342 291.211 204.163 291.211 189.14C291.211 174.116 279.056 161.937 264.061 161.937C249.067 161.937 236.912 174.116 236.912 189.14C236.912 204.163 249.067 216.342 264.061 216.342Z" fill="#FFB9B9"/>
<path d="M334.31 297.749C334.31 314.166 331.728 330.481 326.659 346.093L324.627 352.357L314.88 396.997L304.438 399.787L296.781 390.022L281.465 378.862L270.327 360.727L260.776 344.782L257.796 339.802L247.354 287.488L207.674 265.168L194.447 263.076L197.231 255.403L209.066 239.36L220.9 237.965L224.381 235.175L227.166 236.57L242.516 242.495L292.283 221.427L299.565 222.62L324.626 243.545C331.033 260.896 334.312 279.249 334.31 297.749Z" fill="#CCCCCC"/>
<path opacity="0.1" d="M326.714 291.674L300.261 309.111L260.776 344.781L257.796 339.802L249.442 297.951H251.531L273.112 258.194L326.714 291.674Z" fill="black"/>
<path d="M273.112 254.008L251.531 293.766L239 307.716L227.863 310.507L257.796 343.289L300.261 304.926L326.714 287.488L273.112 254.008Z" fill="#CCCCCC"/>
<path d="M242.944 168.913L240.003 170.047C239.556 169.744 239.174 169.356 238.877 168.905C238.58 168.454 238.375 167.949 238.273 167.418C238.171 166.888 238.174 166.342 238.283 165.813C238.391 165.283 238.602 164.781 238.905 164.333C238.921 164.31 238.937 164.287 238.953 164.263L233.517 164.009C237.007 159.352 241.443 155.491 246.534 152.681C251.624 149.871 257.252 148.176 263.045 147.708C268.838 147.24 274.664 148.01 280.138 149.967C285.611 151.924 290.608 155.023 294.797 159.06C295.044 158.206 297.742 159.867 298.844 161.552C299.214 160.162 301.744 166.88 302.638 171.629C303.053 170.048 304.645 172.601 303.25 175.05C304.134 174.921 304.533 177.187 303.849 178.45C304.816 177.994 304.653 180.7 303.604 182.508C304.985 182.385 303.487 210.867 282.775 208.792C281.333 202.154 281.739 202.566 280.041 194.03C279.251 193.19 278.385 192.424 277.521 191.66L272.848 187.527C267.414 182.721 262.471 176.789 255.232 174.993C250.257 173.759 247.111 173.48 249.822 167.863C247.373 168.887 245.085 170.41 242.614 171.362C242.647 170.577 242.993 169.698 242.944 168.913Z" fill="#2F2E41"/>
<path d="M277.636 197.161C280.328 197.161 282.509 194.975 282.509 192.278C282.509 189.582 280.328 187.396 277.636 187.396C274.945 187.396 272.763 189.582 272.763 192.278C272.763 194.975 274.945 197.161 277.636 197.161Z" fill="#FFB9B9"/>
<path d="M50.3887 76.9627L48.9016 99.3362L71.2315 100.826L72.7186 78.4527L50.3887 76.9627Z" fill="#E6E6E6"/>
<path d="M35.9815 88.8428L63.0964 90.6521L61.2906 117.82L34.1758 116.011L35.9815 88.8428ZM61.8389 91.7546L37.0819 90.1027L35.4332 114.908L60.1902 116.56L61.8389 91.7546Z" fill="#CCCCCC"/>
<path d="M176.578 10.6184L154.698 15.329L159.4 37.2517L181.28 32.5411L176.578 10.6184Z" fill="#E6E6E6"/>
<path d="M161.221 0L166.93 26.6204L140.362 32.3403L134.653 5.71992L161.221 0ZM165.527 25.7117L160.314 1.40611L136.056 6.62863L141.269 30.9342L165.527 25.7117Z" fill="#CCCCCC"/>
<path d="M153.588 115.899L137.255 131.228L152.554 147.593L168.887 132.264L153.588 115.899Z" fill="#E6E6E6"/>
<path d="M170.061 113.606L150.228 132.219L131.651 112.347L151.484 93.7338L170.061 113.606ZM150.283 130.546L168.391 113.551L151.43 95.4071L133.321 112.402L150.283 130.546Z" fill="#CCCCCC"/>
</svg>
