<svg width="262" height="153" viewBox="0 0 262 153" fill="none" xmlns="http://www.w3.org/2000/svg">
<path d="M242.1 0.140991H15.7235C14.9053 0.14099 14.095 0.302469 13.3391 0.616209C12.5831 0.929948 11.8962 1.3898 11.3176 1.96952C10.7391 2.54923 10.2801 3.23746 9.96698 3.99489C9.65385 4.75233 9.49268 5.56414 9.49268 6.38398V132.763C9.49267 133.583 9.65384 134.395 9.96697 135.152C10.2801 135.91 10.7391 136.598 11.3176 137.177C11.8962 137.757 12.5831 138.217 13.3391 138.531C14.095 138.845 14.9053 139.006 15.7235 139.006H242.1C243.752 139.006 245.337 138.348 246.505 137.177C247.674 136.007 248.33 134.419 248.33 132.763V6.38398C248.33 4.72824 247.674 3.14031 246.505 1.96952C245.337 0.798734 243.752 0.140992 242.1 0.140991Z" fill="#3F3D56"/>
<path d="M239.977 11.1742H17.8464V136.723H239.977V11.1742Z" fill="white"/>
<path d="M128.722 7.75011C129.98 7.75011 131 6.72811 131 5.4674C131 4.2067 129.98 3.18469 128.722 3.18469C127.463 3.18469 126.443 4.2067 126.443 5.4674C126.443 6.72811 127.463 7.75011 128.722 7.75011Z" fill="white"/>
<path d="M176.451 136.724H17.8464V11.1743L176.451 136.724Z" fill="#F2F2F2"/>
<path d="M52.6031 127.328C64.3954 127.328 73.9549 117.75 73.9549 105.935C73.9549 94.1195 64.3954 84.5413 52.6031 84.5413C40.8108 84.5413 31.2512 94.1195 31.2512 105.935C31.2512 117.75 40.8108 127.328 52.6031 127.328Z" fill="#E79215"/>
<path d="M57.3563 122.014C52.1033 122.014 46.9682 120.453 42.6005 117.529C38.2328 114.605 34.8286 110.449 32.8184 105.586C30.8081 100.724 30.2822 95.373 31.307 90.2109C32.3318 85.0488 34.8614 80.307 38.5758 76.5854C42.2902 72.8637 47.0227 70.3292 52.1748 69.3024C57.3268 68.2756 62.6671 68.8025 67.5202 70.8167C72.3734 72.8309 76.5214 76.2417 79.4398 80.618C82.3582 84.9942 83.9159 90.1393 83.9159 95.4026C83.9159 98.8972 83.229 102.358 81.8942 105.586C80.5595 108.815 78.6031 111.749 76.1368 114.22C73.6705 116.691 70.7426 118.651 67.5202 119.988C64.2979 121.326 60.8441 122.014 57.3563 122.014ZM57.3563 69.1389C52.172 69.1389 47.104 70.6792 42.7934 73.5651C38.4828 76.451 35.1231 80.5528 33.1391 85.3519C31.1551 90.1509 30.6361 95.4317 31.6475 100.526C32.6589 105.621 35.1554 110.301 38.8212 113.974C42.4871 117.647 47.1577 120.148 52.2424 121.162C57.3272 122.175 62.5976 121.655 67.3873 119.667C72.177 117.679 76.2709 114.313 79.1511 109.994C82.0314 105.675 83.5687 100.597 83.5687 95.4026C83.5687 91.9536 82.8908 88.5384 81.5734 85.3519C80.2561 82.1654 78.3253 79.2702 75.8913 76.8313C73.4572 74.3925 70.5676 72.458 67.3873 71.1381C64.2071 69.8182 60.7985 69.1389 57.3563 69.1389L57.3563 69.1389Z" fill="#3F3D56"/>
<path d="M188.554 76.4005H167.805V80.7447H188.554V76.4005Z" fill="#3F3D56"/>
<path d="M208.185 52.8657H148.174V54.7275H208.185V52.8657Z" fill="#3F3D56"/>
<path d="M208.185 60.1804H148.174V62.0422H208.185V60.1804Z" fill="#3F3D56"/>
<path d="M208.185 67.495H148.174V69.3568H208.185V67.495Z" fill="#3F3D56"/>
<path d="M224.261 18.6877H215.59V27.3761H224.261V18.6877Z" fill="#E79215"/>
<path d="M228.287 31.4099H217.757V20.8597H228.287V31.4099ZM218.215 30.9512H227.829V21.3185H218.215L218.215 30.9512Z" fill="#CCCCCC"/>
<path d="M254.567 134.441H232.889V132.876C232.889 132.835 232.881 132.795 232.865 132.757C232.85 132.719 232.827 132.685 232.798 132.656C232.769 132.627 232.735 132.605 232.698 132.589C232.66 132.573 232.62 132.565 232.579 132.565H225.147C225.106 132.565 225.066 132.573 225.028 132.589C224.99 132.605 224.956 132.627 224.928 132.656C224.899 132.685 224.876 132.719 224.86 132.757C224.845 132.794 224.837 132.835 224.837 132.876V134.441H220.191V132.876C220.191 132.835 220.183 132.795 220.168 132.757C220.152 132.719 220.13 132.685 220.101 132.656C220.072 132.627 220.038 132.605 220 132.589C219.963 132.573 219.922 132.565 219.882 132.565H212.449C212.409 132.565 212.368 132.573 212.331 132.589C212.293 132.605 212.259 132.627 212.23 132.656C212.201 132.685 212.179 132.719 212.163 132.757C212.148 132.795 212.14 132.835 212.14 132.876V134.441H207.494V132.876C207.494 132.835 207.486 132.795 207.471 132.757C207.455 132.719 207.432 132.685 207.403 132.656C207.375 132.627 207.341 132.605 207.303 132.589C207.265 132.573 207.225 132.565 207.184 132.565H199.752C199.711 132.565 199.671 132.573 199.633 132.589C199.596 132.605 199.562 132.627 199.533 132.656C199.504 132.685 199.481 132.719 199.466 132.757C199.45 132.795 199.442 132.835 199.442 132.876V134.441H194.797V132.876C194.797 132.835 194.789 132.795 194.773 132.757C194.758 132.719 194.735 132.685 194.706 132.656C194.677 132.627 194.643 132.605 194.606 132.589C194.568 132.573 194.528 132.565 194.487 132.565H187.054C187.014 132.565 186.973 132.573 186.936 132.589C186.898 132.605 186.864 132.627 186.835 132.656C186.807 132.685 186.784 132.719 186.768 132.757C186.753 132.794 186.745 132.835 186.745 132.876V134.441H182.099V132.876C182.099 132.835 182.091 132.795 182.076 132.757C182.06 132.719 182.037 132.685 182.009 132.656C181.98 132.627 181.946 132.605 181.908 132.589C181.871 132.573 181.83 132.565 181.79 132.565H174.357C174.316 132.565 174.276 132.573 174.238 132.589C174.201 132.605 174.167 132.627 174.138 132.656C174.109 132.685 174.086 132.719 174.071 132.757C174.055 132.795 174.047 132.835 174.047 132.876V134.441H169.402V132.876C169.402 132.835 169.394 132.795 169.378 132.757C169.363 132.719 169.34 132.685 169.311 132.656C169.282 132.627 169.248 132.605 169.211 132.589C169.173 132.573 169.133 132.565 169.092 132.565H161.66C161.619 132.565 161.579 132.573 161.541 132.589C161.503 132.605 161.469 132.627 161.441 132.656C161.412 132.685 161.389 132.719 161.373 132.757C161.358 132.795 161.35 132.835 161.35 132.876V134.441H156.705V132.876C156.705 132.835 156.697 132.795 156.681 132.757C156.665 132.719 156.643 132.685 156.614 132.656C156.585 132.627 156.551 132.605 156.513 132.589C156.476 132.573 156.436 132.565 156.395 132.565H98.1726C98.1319 132.565 98.0917 132.573 98.0541 132.589C98.0165 132.605 97.9824 132.627 97.9536 132.656C97.9249 132.685 97.902 132.719 97.8865 132.757C97.8709 132.795 97.8629 132.835 97.8629 132.876V134.441H93.2175V132.876C93.2175 132.835 93.2095 132.795 93.1939 132.757C93.1784 132.719 93.1555 132.685 93.1268 132.656C93.098 132.627 93.0639 132.605 93.0263 132.589C92.9888 132.573 92.9485 132.565 92.9078 132.565H85.4752C85.4345 132.565 85.3943 132.573 85.3567 132.589C85.3191 132.605 85.285 132.627 85.2562 132.656C85.2275 132.685 85.2046 132.719 85.1891 132.757C85.1735 132.795 85.1655 132.835 85.1655 132.876V134.441H80.5201V132.876C80.5201 132.835 80.5121 132.795 80.4965 132.757C80.481 132.719 80.4582 132.685 80.4294 132.656C80.4007 132.627 80.3665 132.605 80.329 132.589C80.2914 132.573 80.2511 132.565 80.2105 132.565H72.7778C72.7371 132.565 72.6968 132.573 72.6593 132.589C72.6217 132.605 72.5876 132.627 72.5588 132.656C72.5301 132.685 72.5072 132.719 72.4917 132.757C72.4761 132.795 72.4681 132.835 72.4681 132.876V134.441H67.8227V132.876C67.8227 132.835 67.8147 132.795 67.7991 132.757C67.7836 132.719 67.7607 132.685 67.732 132.656C67.7032 132.627 67.6691 132.605 67.6315 132.589C67.594 132.573 67.5537 132.565 67.513 132.565H60.0804C60.0397 132.565 59.9994 132.573 59.9619 132.589C59.9243 132.605 59.8902 132.627 59.8614 132.656C59.8326 132.685 59.8098 132.719 59.7943 132.757C59.7787 132.795 59.7707 132.835 59.7707 132.876V134.441H55.1253V132.876C55.1253 132.835 55.1173 132.795 55.1017 132.757C55.0862 132.719 55.0634 132.685 55.0346 132.656C55.0058 132.627 54.9717 132.605 54.9341 132.589C54.8966 132.573 54.8563 132.565 54.8156 132.565H47.383C47.3423 132.565 47.3021 132.573 47.2645 132.589C47.2269 132.605 47.1928 132.627 47.164 132.656C47.1353 132.685 47.1124 132.719 47.0969 132.757C47.0813 132.795 47.0733 132.835 47.0733 132.876V134.441H42.4279V132.876C42.4279 132.835 42.4199 132.795 42.4043 132.757C42.3888 132.719 42.3659 132.685 42.3372 132.656C42.3084 132.627 42.2743 132.605 42.2367 132.589C42.1992 132.573 42.1589 132.565 42.1182 132.565H34.6856C34.6034 132.565 34.5247 132.598 34.4666 132.656C34.4085 132.714 34.3759 132.793 34.3759 132.876V134.441H29.7305V132.876C29.7305 132.835 29.7225 132.795 29.7069 132.757C29.6914 132.719 29.6686 132.685 29.6398 132.656C29.611 132.627 29.5769 132.605 29.5393 132.589C29.5018 132.573 29.4615 132.565 29.4208 132.565H21.9882C21.9061 132.565 21.8273 132.598 21.7692 132.656C21.7111 132.714 21.6785 132.793 21.6785 132.876V134.441H7.43261C5.46135 134.441 3.57085 135.225 2.17697 136.622C0.783081 138.018 0 139.913 0 141.888V145.255C4.69503e-06 147.23 0.783082 149.124 2.17697 150.521C3.57085 151.918 5.46136 152.702 7.43261 152.702H254.567C256.539 152.702 258.429 151.918 259.823 150.521C261.217 149.124 262 147.23 262 145.255V141.888C262 140.91 261.808 139.941 261.434 139.038C261.061 138.134 260.513 137.313 259.823 136.622C259.133 135.93 258.314 135.382 257.412 135.007C256.51 134.633 255.543 134.441 254.567 134.441Z" fill="#3F3D56"/>
</svg>
