<svg width="430" height="440" viewBox="0 0 430 440" fill="none" xmlns="http://www.w3.org/2000/svg">
<g clip-path="url(#clip0_614_141)">
<path d="M352.628 427.466H346.041L342.906 402.06H352.628V427.466Z" fill="#A0616A"/>
<path d="M354.778 422.954L344.254 422.326V426.835L334.248 433.744C333.753 434.086 333.381 434.576 333.185 435.144C332.989 435.711 332.98 436.327 333.159 436.9C333.338 437.473 333.695 437.975 334.179 438.33C334.663 438.686 335.248 438.878 335.848 438.878H348.378L350.538 434.418L351.381 438.878H356.105L354.778 422.954Z" fill="#2F2E41"/>
<path d="M299.94 427.466H293.353L290.217 402.06H299.94V427.466Z" fill="#A0616A"/>
<path d="M302.09 422.954L291.565 422.326V426.835L281.559 433.744C281.065 434.086 280.692 434.576 280.497 435.144C280.301 435.711 280.291 436.327 280.47 436.9C280.649 437.473 281.006 437.975 281.49 438.33C281.974 438.686 282.559 438.878 283.159 438.878H295.689L297.849 434.418L298.692 438.878H303.417L302.09 422.954Z" fill="#2F2E41"/>
<path d="M347.413 272.294L312.389 273.172V235.324L341.159 235.466L347.413 272.294Z" fill="#A0616A"/>
<path d="M312.211 245.045L307.529 260.641L297.809 281.1L277.278 399.268L280.417 415.614L310.854 414.335L324.409 313.018L324.627 327.005L324.733 333.775C324.733 333.775 319.789 377.808 325.552 386.354C331.315 394.9 325.669 393.894 325.669 393.894L325.944 411.522L362.008 411.778L354.051 361.027C354.051 361.027 350.012 357.837 352.173 354.631C354.334 351.425 350.078 347.499 350.078 347.499L351.987 307.879C351.987 307.879 349.873 301.036 352.36 300.146C354.846 299.257 352.686 293.372 352.686 293.372L353.056 285.703L344.874 254.773L312.211 245.045Z" fill="#2F2E41"/>
<path d="M346.15 235.324L349.731 224.584L352.288 221.003L353.311 210.774C353.311 183.155 347.15 187.754 347.15 187.754L339.113 178.041L329.969 177.755L322.743 177.529L316.736 187.503L308.04 190.571L304.635 208.263L310.853 227.141L310.579 225.738C307.652 231.141 308.396 231.954 310.82 236.011L310.941 237.476C311.226 240.94 308.812 241.537 312.21 242.265C341.399 248.519 344.179 261.027 347.654 256.162C348.428 255.079 345.144 242.153 346.264 242.265C349.332 242.572 346.15 235.324 346.15 235.324Z" fill="#E6E6E6"/>
<path d="M328.262 174.096C319.881 174.096 313.087 167.303 313.087 158.923C313.087 150.544 319.881 143.751 328.262 143.751C336.643 143.751 343.437 150.544 343.437 158.923C343.437 167.303 336.643 174.096 328.262 174.096Z" fill="#A0616A"/>
<path d="M360.271 267.175L358.717 213.726L348.596 218.153L353.642 266.98C352.849 267.632 352.274 268.51 351.993 269.498C351.713 270.485 351.74 271.535 352.072 272.506C352.405 273.478 353.025 274.325 353.852 274.934C354.678 275.543 355.671 275.886 356.697 275.916C357.723 275.946 358.734 275.662 359.595 275.103C360.456 274.543 361.125 273.734 361.514 272.784C361.902 271.834 361.991 270.787 361.769 269.785C361.547 268.783 361.025 267.872 360.271 267.175Z" fill="#A0616A"/>
<path d="M347.331 187.478L348.508 187.85C351.653 188.843 354.399 190.812 356.349 193.472C358.299 196.131 359.35 199.343 359.35 202.641L361.564 212.777C358.356 218.279 353.615 221.005 347.015 220.367L347.331 187.478Z" fill="#E6E6E6"/>
<path d="M278.146 205.927C278.146 205.178 278.312 204.438 278.634 203.762C278.955 203.085 279.423 202.489 280.004 202.016C280.585 201.544 281.264 201.206 281.992 201.029C282.72 200.852 283.478 200.839 284.211 200.991C284.944 201.144 285.635 201.458 286.231 201.91C286.828 202.363 287.316 202.943 287.66 203.608C288.005 204.273 288.196 205.007 288.221 205.755C288.247 206.504 288.104 207.249 287.805 207.935L297.73 223.571V214.193L308.925 215.403L307.357 232.116C307.232 233.454 306.683 234.717 305.789 235.721C304.896 236.725 303.706 237.417 302.391 237.697C301.077 237.978 299.708 237.831 298.482 237.279C297.257 236.727 296.24 235.798 295.58 234.628L282.165 210.861C281.03 210.627 280.01 210.007 279.278 209.109C278.546 208.21 278.146 207.086 278.146 205.927Z" fill="#A0616A"/>
<path d="M309.832 189.991L308.706 190.347C305.698 191.297 303.07 193.18 301.205 195.725C299.34 198.269 298.335 201.342 298.335 204.496L296.217 214.193C299.285 219.456 303.821 222.064 310.135 221.453L309.832 189.991Z" fill="#E6E6E6"/>
<path d="M347.74 162.312C346.892 159.087 346.573 155.711 345.349 152.609C344.134 149.529 342.074 146.854 339.407 144.891C336.741 142.928 333.574 141.757 330.272 141.511C326.97 141.265 323.665 141.955 320.737 143.502C317.809 145.049 315.376 147.389 313.718 150.255C312.265 152.581 311.652 155.334 311.982 158.056C312.465 161.017 314.427 163.832 313.812 166.769C313.402 168.734 311.917 170.26 310.739 171.885C309.561 173.51 308.63 175.659 309.479 177.478C310.401 179.453 312.963 180.037 315.135 179.852C317.307 179.666 319.483 178.965 321.627 179.358L320.606 175.357C323.148 177.803 325.69 180.25 328.232 182.696C327.95 180.15 329.133 177.707 329.949 175.279C330.765 172.851 331.146 169.925 329.529 167.938C328.562 166.75 327.073 166.149 325.743 165.388C324.414 164.627 323.094 163.488 322.959 161.962C322.791 160.075 324.482 158.561 326.142 157.649C327.802 156.737 329.715 155.972 330.646 154.323C329.978 155.759 329.309 157.194 328.64 158.63C330.864 158.473 333.008 157.732 334.854 156.482C336.7 155.231 338.184 153.517 339.156 151.51L340.073 152.11C347.693 160.654 337.935 173.456 343.655 177.936C341.143 173.457 349.045 167.279 347.74 162.312Z" fill="#2F2E41"/>
<path d="M149.363 1.61807L288.587 41.8894C310.24 48.1528 322.715 70.7811 316.451 92.4312L224.413 410.522C218.148 432.172 195.516 444.645 173.863 438.382L34.6395 398.111C12.986 391.847 0.510674 369.219 6.77505 347.569L98.8135 29.4781C105.078 7.82803 127.71 -4.64533 149.363 1.61807Z" fill="#3F3D56"/>
<path d="M148.301 5.28933L166.508 10.5557L164.688 16.8443C163.864 19.6907 164.205 22.7477 165.636 25.3427C167.067 27.9378 169.47 29.8582 172.317 30.6817L253.659 54.2105C256.506 55.0339 259.563 54.6929 262.159 53.2625C264.754 51.832 266.675 49.4293 267.498 46.5829L269.318 40.2942L287.524 45.5606C296.943 48.2964 304.891 54.6558 309.625 63.2436C314.36 71.8314 315.494 81.9463 312.779 91.3692L220.741 409.46C218.005 418.876 211.644 426.823 203.055 431.557C194.466 436.291 184.349 437.425 174.925 434.711L35.7018 394.439C26.2836 391.704 18.3354 385.344 13.6008 376.756C8.86624 368.169 7.73199 358.054 10.447 348.631L102.485 30.5403C105.222 21.1236 111.582 13.1766 120.171 8.44279C128.76 3.70896 138.877 2.57487 148.301 5.28933Z" fill="white"/>
<path d="M305.522 133.953C306.23 134.157 306.991 134.072 307.636 133.716C308.281 133.36 308.759 132.763 308.965 132.056L310.51 126.716C310.612 126.365 310.643 125.998 310.602 125.635C310.562 125.272 310.45 124.921 310.274 124.601C310.098 124.282 309.861 124 309.575 123.772C309.29 123.544 308.963 123.375 308.612 123.273C308.262 123.172 307.894 123.14 307.532 123.181C307.169 123.221 306.817 123.333 306.498 123.509C306.178 123.685 305.896 123.923 305.668 124.208C305.44 124.493 305.271 124.82 305.169 125.171L303.624 130.511C303.42 131.219 303.505 131.979 303.861 132.624C304.217 133.27 304.814 133.748 305.522 133.953Z" fill="#3F3D56"/>
<path d="M297.599 161.335C298.308 161.539 299.068 161.454 299.713 161.098C300.359 160.742 300.837 160.145 301.042 159.437L305.296 144.738C305.397 144.387 305.428 144.02 305.388 143.657C305.347 143.295 305.236 142.944 305.06 142.624C304.883 142.304 304.646 142.022 304.361 141.794C304.076 141.567 303.748 141.397 303.398 141.296C303.047 141.194 302.68 141.163 302.317 141.203C301.954 141.244 301.603 141.355 301.283 141.531C300.963 141.708 300.682 141.945 300.454 142.23C300.226 142.515 300.056 142.843 299.955 143.193L295.702 157.892C295.498 158.601 295.583 159.361 295.939 160.006C296.294 160.651 296.892 161.129 297.599 161.335Z" fill="#3F3D56"/>
<path d="M291.23 183.348C291.938 183.552 292.698 183.467 293.344 183.111C293.989 182.755 294.467 182.158 294.673 181.45L298.926 166.751C299.131 166.043 299.046 165.282 298.69 164.637C298.334 163.991 297.736 163.514 297.028 163.309C296.32 163.104 295.559 163.189 294.914 163.544C294.268 163.9 293.79 164.498 293.585 165.206L289.332 179.905C289.128 180.614 289.213 181.374 289.569 182.019C289.925 182.664 290.522 183.142 291.23 183.348Z" fill="#3F3D56"/>
<path d="M75.7337 107.994C76.4419 108.198 77.2021 108.112 77.8476 107.757C78.493 107.401 78.971 106.804 79.1766 106.096L89.5545 70.2293C89.7594 69.5211 89.6746 68.7607 89.3187 68.1151C88.9628 67.4695 88.365 66.9917 87.6567 66.7869C86.9485 66.582 86.1879 66.6668 85.5422 67.0227C84.8965 67.3786 84.4186 67.9763 84.2138 68.6844L73.8358 104.551C73.6318 105.259 73.7171 106.019 74.0729 106.665C74.4287 107.31 75.0259 107.788 75.7337 107.994Z" fill="#3F3D56"/>
<path d="M252.787 127.529C253.033 127.601 253.298 127.579 253.529 127.467L267.014 120.972C267.138 120.912 267.248 120.829 267.339 120.727C267.43 120.625 267.501 120.506 267.546 120.377C267.591 120.247 267.61 120.111 267.603 119.974C267.595 119.837 267.56 119.703 267.501 119.58L261.004 106.097C260.945 105.973 260.862 105.863 260.76 105.772C260.658 105.681 260.539 105.611 260.409 105.565C260.28 105.52 260.143 105.501 260.007 105.509C259.87 105.516 259.736 105.551 259.613 105.61C259.489 105.67 259.379 105.753 259.288 105.855C259.197 105.957 259.126 106.076 259.081 106.205C259.036 106.334 259.017 106.471 259.024 106.608C259.032 106.744 259.067 106.878 259.126 107.002L265.17 119.546L252.624 125.589C252.434 125.681 252.276 125.828 252.171 126.011C252.066 126.194 252.02 126.405 252.038 126.615C252.055 126.826 252.136 127.026 252.27 127.189C252.404 127.352 252.584 127.471 252.787 127.529V127.529Z" fill="#E79215"/>
<path d="M245.122 125.284C245.328 125.343 245.547 125.338 245.75 125.269C245.952 125.199 246.129 125.069 246.255 124.896C246.381 124.723 246.451 124.515 246.454 124.301C246.458 124.086 246.396 123.876 246.276 123.699L238.476 112.163L250.013 104.364C250.126 104.288 250.224 104.19 250.299 104.075C250.375 103.961 250.428 103.833 250.454 103.699C250.48 103.564 250.479 103.426 250.452 103.291C250.424 103.157 250.371 103.029 250.294 102.916C250.217 102.802 250.119 102.705 250.004 102.63C249.89 102.554 249.762 102.502 249.627 102.476C249.492 102.45 249.354 102.451 249.22 102.479C249.086 102.507 248.958 102.561 248.845 102.638L236.444 111.021C236.331 111.097 236.234 111.195 236.158 111.31C236.083 111.424 236.031 111.552 236.005 111.686C235.979 111.821 235.979 111.959 236.007 112.093C236.034 112.227 236.088 112.354 236.165 112.468L244.549 124.866C244.685 125.068 244.888 125.216 245.122 125.284Z" fill="#E79215"/>
<path d="M108.551 100.487L267.629 146.502C270.082 147.208 272.716 146.913 274.953 145.681C277.189 144.448 278.845 142.379 279.557 139.927L288.496 109.033C289.203 106.58 288.908 103.947 287.675 101.711C286.442 99.4748 284.373 97.8191 281.921 97.1069L122.843 51.0926C120.389 50.3858 117.756 50.681 115.519 51.9135C113.283 53.146 111.627 55.2151 110.915 57.6668L101.976 88.5606C101.269 91.014 101.564 93.6474 102.797 95.8833C104.029 98.1192 106.099 99.775 108.551 100.487ZM281.535 98.4418C283.633 99.0513 285.404 100.468 286.458 102.381C287.513 104.295 287.766 106.548 287.161 108.647L278.222 139.541C277.612 141.639 276.195 143.409 274.282 144.464C272.368 145.519 270.115 145.771 268.015 145.167L108.937 99.1522C106.839 98.5427 105.068 97.1259 104.013 95.2127C102.959 93.2995 102.706 91.0461 103.311 88.9468L112.25 58.053C112.859 55.9552 114.276 54.1847 116.19 53.1301C118.103 52.0755 120.357 51.8228 122.457 52.4275L281.535 98.4418Z" fill="#3F3D56"/>
<path d="M191.339 92.6063L218.043 100.331C218.751 100.535 219.512 100.451 220.158 100.095C220.803 99.7389 221.281 99.1412 221.486 98.4331C221.691 97.7249 221.606 96.9644 221.25 96.3189C220.894 95.6733 220.296 95.1955 219.588 94.9907L192.884 87.2664C192.176 87.0615 191.415 87.1463 190.77 87.5022C190.124 87.8581 189.646 88.4558 189.441 89.1639C189.236 89.872 189.321 90.6325 189.677 91.2781C190.033 91.9237 190.631 92.4015 191.339 92.6063Z" fill="#E6E6E6"/>
<path d="M129.676 90.684L214.461 115.209C215.17 115.414 215.93 115.329 216.576 114.973C217.222 114.617 217.7 114.019 217.904 113.311C218.109 112.603 218.024 111.842 217.669 111.197C217.313 110.551 216.715 110.074 216.007 109.869L131.221 85.344C130.513 85.1391 129.753 85.224 129.107 85.5798C128.461 85.9357 127.983 86.5334 127.778 87.2416C127.574 87.9497 127.658 88.7102 128.014 89.3558C128.37 90.0013 128.968 90.4791 129.676 90.684Z" fill="#E6E6E6"/>
<path d="M192.49 338.759C192.737 338.831 193.001 338.809 193.232 338.697L206.717 332.201C206.841 332.142 206.951 332.059 207.042 331.957C207.134 331.855 207.204 331.736 207.249 331.606C207.294 331.477 207.313 331.34 207.306 331.204C207.298 331.067 207.263 330.933 207.204 330.81L200.708 317.327C200.588 317.078 200.374 316.886 200.113 316.795C199.852 316.704 199.565 316.72 199.316 316.84C199.067 316.96 198.876 317.174 198.784 317.435C198.693 317.696 198.709 317.982 198.829 318.231L204.873 330.776L192.327 336.819C192.137 336.91 191.979 337.058 191.874 337.241C191.77 337.424 191.723 337.635 191.741 337.845C191.758 338.055 191.839 338.255 191.973 338.419C192.107 338.582 192.287 338.701 192.49 338.759Z" fill="#E79215"/>
<path d="M184.825 336.514C185.031 336.573 185.25 336.568 185.453 336.499C185.655 336.429 185.832 336.299 185.958 336.126C186.084 335.953 186.154 335.745 186.157 335.531C186.161 335.317 186.099 335.106 185.979 334.929L178.179 323.393L189.716 315.594C189.944 315.439 190.102 315.199 190.154 314.928C190.207 314.657 190.149 314.376 189.994 314.147C189.839 313.919 189.6 313.761 189.329 313.708C189.058 313.656 188.777 313.713 188.548 313.867L176.147 322.25C175.918 322.405 175.76 322.645 175.708 322.916C175.655 323.187 175.713 323.468 175.867 323.697L184.251 336.096C184.388 336.298 184.591 336.446 184.825 336.514Z" fill="#E79215"/>
<path d="M35.5446 352.801L194.622 398.815C197.076 399.522 199.71 399.226 201.946 397.994C204.183 396.761 205.839 394.692 206.551 392.241L229.589 312.62C230.296 310.166 230.001 307.533 228.768 305.297C227.535 303.061 225.466 301.405 223.014 300.693L63.9359 254.679C61.4822 253.972 58.8483 254.267 56.612 255.5C54.3758 256.732 52.7198 258.801 52.0074 261.253L28.9694 340.874C28.2625 343.327 28.5579 345.961 29.7905 348.197C31.0232 350.433 33.0926 352.088 35.5446 352.801ZM222.627 302.028C224.726 302.638 226.496 304.054 227.551 305.968C228.606 307.881 228.859 310.134 228.254 312.233L205.216 391.854C204.606 393.952 203.189 395.723 201.276 396.777C199.362 397.832 197.108 398.085 195.009 397.48L35.931 351.466C33.8327 350.856 32.062 349.439 31.0072 347.526C29.9524 345.613 29.6997 343.36 30.3046 341.26L53.3427 261.639C53.9523 259.541 55.3692 257.771 57.2828 256.716C59.1963 255.662 61.45 255.409 63.5496 256.014L222.627 302.028Z" fill="#3F3D56"/>
<path d="M131.042 303.836L157.746 311.56C158.097 311.662 158.464 311.694 158.828 311.654C159.191 311.614 159.542 311.503 159.863 311.327C160.183 311.151 160.465 310.913 160.693 310.628C160.921 310.342 161.091 310.015 161.193 309.664C161.294 309.313 161.326 308.945 161.285 308.582C161.244 308.219 161.133 307.868 160.956 307.548C160.779 307.228 160.541 306.946 160.256 306.719C159.97 306.491 159.642 306.321 159.291 306.22L132.587 298.496C131.879 298.292 131.119 298.378 130.475 298.734C129.83 299.09 129.353 299.687 129.148 300.395C128.943 301.102 129.028 301.862 129.383 302.507C129.738 303.152 130.335 303.63 131.042 303.836Z" fill="#E6E6E6"/>
<path d="M69.3795 301.914L154.165 326.438C154.515 326.54 154.883 326.572 155.246 326.532C155.609 326.492 155.961 326.38 156.281 326.204C156.601 326.028 156.883 325.791 157.111 325.505C157.339 325.22 157.509 324.893 157.611 324.542C157.712 324.191 157.744 323.823 157.703 323.46C157.662 323.097 157.551 322.746 157.374 322.426C157.198 322.106 156.96 321.825 156.674 321.597C156.389 321.369 156.061 321.2 155.71 321.098L70.9246 296.574C70.2164 296.369 69.4558 296.454 68.8101 296.81C68.1644 297.165 67.6866 297.763 67.4817 298.471C67.2768 299.179 67.3616 299.94 67.7175 300.586C68.0734 301.231 68.6713 301.709 69.3795 301.914Z" fill="#E6E6E6"/>
<path d="M254.883 186.315L262.675 188.569C263.737 188.876 264.349 189.986 264.042 191.048L263.392 193.292C263.085 194.354 261.975 194.966 260.914 194.659L253.122 192.405C252.06 192.098 251.448 190.988 251.755 189.926L252.405 187.682C252.712 186.62 253.822 186.008 254.883 186.315Z" fill="#E6E6E6"/>
<path d="M191.442 167.965L199.234 170.218C200.296 170.526 200.908 171.635 200.601 172.697L199.951 174.942C199.644 176.003 198.534 176.615 197.472 176.308L189.68 174.054C188.618 173.747 188.007 172.637 188.314 171.575L188.963 169.331C189.271 168.269 190.38 167.657 191.442 167.965Z" fill="#E79215"/>
<path d="M173.467 162.765L181.259 165.019C182.321 165.326 182.933 166.436 182.626 167.498L181.976 169.742C181.669 170.804 180.559 171.416 179.497 171.108L171.705 168.855C170.643 168.547 170.032 167.438 170.339 166.376L170.988 164.131C171.296 163.07 172.405 162.458 173.467 162.765Z" fill="#E6E6E6"/>
<path d="M208.845 172.448L245.566 183.07C246.628 183.377 247.24 184.487 246.933 185.549L246.283 187.793C245.976 188.855 244.866 189.467 243.804 189.159L207.083 178.538C206.021 178.231 205.41 177.121 205.717 176.059L206.366 173.815C206.674 172.753 207.783 172.141 208.845 172.448Z" fill="#E6E6E6"/>
<path d="M124.257 147.981L160.978 158.602C162.04 158.91 162.651 160.019 162.344 161.081L161.695 163.326C161.387 164.387 160.278 164.999 159.216 164.692L122.495 154.07C121.433 153.763 120.821 152.653 121.129 151.591L121.778 149.347C122.085 148.285 123.195 147.674 124.257 147.981Z" fill="#F2F2F2"/>
<path d="M250.679 199.993L258.471 202.247C259.533 202.554 260.145 203.664 259.838 204.725L259.188 206.97C258.881 208.032 257.771 208.643 256.709 208.336L248.917 206.082C247.856 205.775 247.244 204.666 247.551 203.604L248.2 201.359C248.508 200.298 249.617 199.686 250.679 199.993Z" fill="#E6E6E6"/>
<path d="M187.238 181.642L195.03 183.896C196.092 184.203 196.704 185.313 196.396 186.375L195.747 188.619C195.44 189.681 194.33 190.293 193.268 189.985L185.476 187.732C184.414 187.424 183.802 186.315 184.11 185.253L184.759 183.008C185.066 181.947 186.176 181.335 187.238 181.642Z" fill="#E79215"/>
<path d="M169.263 176.443L177.055 178.697C178.117 179.004 178.729 180.114 178.421 181.175L177.772 183.42C177.465 184.481 176.355 185.093 175.293 184.786L167.501 182.532C166.439 182.225 165.827 181.115 166.134 180.054L166.784 177.809C167.091 176.747 168.201 176.136 169.263 176.443Z" fill="#E6E6E6"/>
<path d="M204.641 186.126L241.362 196.748C242.424 197.055 243.036 198.165 242.728 199.226L242.079 201.471C241.772 202.533 240.662 203.144 239.6 202.837L202.879 192.215C201.817 191.908 201.206 190.799 201.513 189.737L202.162 187.492C202.469 186.431 203.579 185.819 204.641 186.126Z" fill="#E6E6E6"/>
<path d="M120.05 161.656L156.771 172.278C157.833 172.585 158.445 173.695 158.138 174.757L157.488 177.001C157.181 178.063 156.071 178.675 155.009 178.368L118.289 167.746C117.227 167.439 116.615 166.329 116.922 165.267L117.572 163.023C117.879 161.961 118.989 161.349 120.05 161.656Z" fill="#F2F2F2"/>
<path d="M213.095 204.015L220.887 206.269C221.949 206.576 222.561 207.686 222.253 208.748L221.604 210.992C221.297 212.054 220.187 212.666 219.125 212.359L211.333 210.105C210.271 209.797 209.659 208.688 209.967 207.626L210.616 205.381C210.923 204.32 212.033 203.708 213.095 204.015Z" fill="#E6E6E6"/>
<path d="M149.653 185.664L157.446 187.918C158.507 188.225 159.119 189.335 158.812 190.397L158.162 192.641C157.855 193.703 156.745 194.315 155.684 194.008L147.892 191.754C146.83 191.447 146.218 190.337 146.525 189.275L147.175 187.031C147.482 185.969 148.592 185.357 149.653 185.664Z" fill="#E79215"/>
<path d="M131.678 180.465L139.47 182.719C140.532 183.026 141.144 184.136 140.837 185.197L140.187 187.442C139.88 188.504 138.77 189.115 137.708 188.808L129.916 186.554C128.855 186.247 128.243 185.138 128.55 184.076L129.199 181.831C129.507 180.77 130.616 180.158 131.678 180.465Z" fill="#E6E6E6"/>
<path d="M167.057 190.148L203.778 200.77C204.839 201.077 205.451 202.187 205.144 203.249L204.494 205.493C204.187 206.555 203.077 207.167 202.016 206.859L165.295 196.238C164.233 195.93 163.621 194.821 163.928 193.759L164.578 191.515C164.885 190.453 165.995 189.841 167.057 190.148Z" fill="#E6E6E6"/>
<path d="M82.4663 165.678L119.187 176.3C120.249 176.608 120.861 177.717 120.554 178.779L119.904 181.024C119.597 182.085 118.487 182.697 117.425 182.39L80.7043 171.768C79.6424 171.461 79.0307 170.351 79.3379 169.289L79.9874 167.045C80.2946 165.983 81.4044 165.371 82.4663 165.678Z" fill="#F2F2F2"/>
<path d="M235.256 254.078L243.048 256.332C244.11 256.639 244.721 257.748 244.414 258.81L243.765 261.055C243.458 262.116 242.348 262.728 241.286 262.421L233.494 260.167C232.432 259.86 231.82 258.75 232.127 257.689L232.777 255.444C233.084 254.382 234.194 253.771 235.256 254.078Z" fill="#E79215"/>
<path d="M217.281 248.878L225.073 251.132C226.135 251.439 226.746 252.549 226.439 253.611L225.79 255.855C225.482 256.917 224.373 257.529 223.311 257.222L215.519 254.968C214.457 254.661 213.845 253.551 214.152 252.489L214.802 250.245C215.109 249.183 216.219 248.571 217.281 248.878Z" fill="#E6E6E6"/>
<path d="M167.777 235.109L204.498 245.731C205.559 246.038 206.171 247.148 205.864 248.209L205.214 250.454C204.907 251.516 203.797 252.127 202.736 251.82L166.015 241.198C164.953 240.891 164.341 239.782 164.648 238.72L165.298 236.475C165.605 235.414 166.715 234.802 167.777 235.109Z" fill="#F2F2F2"/>
<path d="M192.94 226.944L200.732 229.198C201.794 229.505 202.406 230.615 202.099 231.676L201.449 233.921C201.142 234.983 200.032 235.594 198.97 235.287L191.178 233.033C190.117 232.726 189.505 231.616 189.812 230.555L190.461 228.31C190.769 227.248 191.879 226.637 192.94 226.944Z" fill="#E79215"/>
<path d="M174.963 221.743L182.755 223.997C183.817 224.304 184.429 225.414 184.121 226.475L183.472 228.72C183.165 229.782 182.055 230.393 180.993 230.086L173.201 227.832C172.139 227.525 171.527 226.415 171.835 225.354L172.484 223.109C172.791 222.047 173.901 221.436 174.963 221.743Z" fill="#E79215"/>
<path d="M210.05 232.443L246.771 243.065C247.833 243.372 248.444 244.482 248.137 245.543L247.488 247.788C247.18 248.85 246.071 249.461 245.009 249.154L208.288 238.532C207.226 238.225 206.614 237.116 206.921 236.054L207.571 233.809C207.878 232.748 208.988 232.136 210.05 232.443Z" fill="#E6E6E6"/>
<path d="M125.459 207.973L162.18 218.595C163.242 218.903 163.854 220.012 163.546 221.074L162.897 223.319C162.59 224.38 161.48 224.992 160.418 224.685L123.697 214.063C122.635 213.756 122.023 212.646 122.331 211.584L122.98 209.34C123.287 208.278 124.397 207.666 125.459 207.973Z" fill="#F2F2F2"/>
<path d="M209.393 216.809L217.185 219.063C218.247 219.37 218.859 220.48 218.551 221.542L217.902 223.786C217.595 224.848 216.485 225.46 215.423 225.152L207.631 222.899C206.569 222.591 205.957 221.482 206.265 220.42L206.914 218.175C207.221 217.114 208.331 216.502 209.393 216.809Z" fill="#E6E6E6"/>
<path d="M145.952 198.458L153.744 200.712C154.806 201.019 155.417 202.129 155.11 203.191L154.461 205.435C154.154 206.497 153.044 207.109 151.982 206.802L144.19 204.548C143.128 204.241 142.516 203.131 142.823 202.069L143.473 199.825C143.78 198.763 144.89 198.151 145.952 198.458Z" fill="#E79215"/>
<path d="M127.977 193.259L135.769 195.513C136.831 195.82 137.442 196.93 137.135 197.991L136.486 200.236C136.179 201.298 135.069 201.909 134.007 201.602L126.215 199.348C125.153 199.041 124.541 197.932 124.848 196.87L125.498 194.625C125.805 193.564 126.915 192.952 127.977 193.259Z" fill="#E6E6E6"/>
<path d="M163.061 203.958L199.782 214.579C200.844 214.886 201.456 215.996 201.148 217.058L200.499 219.302C200.192 220.364 199.082 220.976 198.02 220.669L161.299 210.047C160.237 209.74 159.626 208.63 159.933 207.568L160.582 205.324C160.889 204.262 161.999 203.65 163.061 203.958Z" fill="#E6E6E6"/>
<path d="M78.4727 179.49L115.194 190.111C116.255 190.419 116.867 191.528 116.56 192.59L115.911 194.835C115.603 195.896 114.493 196.508 113.432 196.201L76.7107 185.579C75.6489 185.272 75.0371 184.162 75.3443 183.101L75.9938 180.856C76.301 179.794 77.4108 179.183 78.4727 179.49Z" fill="#F2F2F2"/>
<path d="M228.467 228.359C226.74 228.359 225.34 226.959 225.34 225.232C225.34 223.506 226.74 222.106 228.467 222.106C230.195 222.106 231.595 223.506 231.595 225.232C231.595 226.959 230.195 228.359 228.467 228.359Z" fill="#E79215"/>
<path d="M232.137 215.677C230.41 215.677 229.01 214.277 229.01 212.55C229.01 210.823 230.41 209.423 232.137 209.423C233.864 209.423 235.264 210.823 235.264 212.55C235.264 214.277 233.864 215.677 232.137 215.677Z" fill="#E79215"/>
<path d="M209.695 32.3402L230.391 38.3265C230.833 38.4525 231.307 38.3982 231.709 38.1755C232.111 37.9529 232.408 37.5801 232.536 37.1386C232.664 36.6972 232.611 36.2232 232.39 35.8203C232.169 35.4174 231.798 35.1185 231.357 34.9891L210.661 29.0027C210.441 28.9383 210.211 28.9178 209.984 28.9425C209.757 28.9672 209.536 29.0365 209.336 29.1465C209.135 29.2565 208.958 29.405 208.815 29.5836C208.672 29.7621 208.566 29.9671 208.502 30.1868C208.439 30.4065 208.419 30.6366 208.445 30.8638C208.47 31.0911 208.541 31.3111 208.652 31.5112C208.762 31.7112 208.912 31.8875 209.091 32.0297C209.27 32.172 209.475 32.2775 209.695 32.3402Z" fill="white"/>
<path d="M199.497 28.9715C198.729 28.9715 198.107 28.3493 198.107 27.5817C198.107 26.8142 198.729 26.192 199.497 26.192C200.264 26.192 200.886 26.8142 200.886 27.5817C200.886 28.3493 200.264 28.9715 199.497 28.9715Z" fill="white"/>
<path d="M406.11 439.058C406.3 438.534 406.431 437.991 406.502 437.439C406.51 437.398 406.513 437.357 406.511 437.316C406.865 433.952 405.128 430.833 403.16 427.667L400.461 423.332C400.21 422.928 399.844 422.609 399.41 422.414C398.976 422.219 398.494 422.159 398.025 422.24C397.556 422.321 397.122 422.54 396.779 422.869C396.435 423.198 396.198 423.622 396.096 424.087C395.95 424.76 395.803 425.443 395.663 426.123C394.21 424.915 392.694 423.796 391.365 422.83C387.858 420.285 384.351 417.738 380.846 415.187C380.462 414.907 380.003 414.749 379.528 414.731C379.052 414.714 378.583 414.838 378.179 415.089C377.775 415.34 377.456 415.706 377.261 416.14C377.066 416.573 377.005 417.055 377.086 417.524L377.753 421.391C378.639 426.523 379.643 432.339 382.019 437.424C382.285 438.007 382.57 438.573 382.865 439.108L382.964 439.288H406.028L406.11 439.058Z" fill="#F0F0F0"/>
<path d="M429.177 439.786L0.823273 440C0.604645 439.999 0.395355 439.911 0.241211 439.756C0.0870667 439.601 0.000518799 439.391 0.000518799 439.173C0.000518799 438.954 0.0870667 438.744 0.241211 438.589C0.395355 438.434 0.604645 438.347 0.823273 438.345L429.177 438.132C429.396 438.133 429.605 438.22 429.759 438.376C429.914 438.531 430 438.74 430 438.959C430 439.178 429.914 439.388 429.759 439.543C429.605 439.698 429.396 439.785 429.177 439.786Z" fill="#CACACA"/>
<path d="M133.676 361.643C135.931 362.295 138.328 362.264 140.566 361.554C142.803 360.843 144.78 359.486 146.246 357.652C147.711 355.819 148.6 353.592 148.8 351.253C149 348.915 148.502 346.569 147.369 344.514C146.235 342.458 144.518 340.785 142.433 339.705C140.349 338.626 137.991 338.188 135.658 338.448C133.325 338.709 131.122 339.655 129.326 341.167C127.531 342.679 126.225 344.69 125.572 346.945C124.698 349.968 125.06 353.215 126.579 355.972C128.099 358.728 130.652 360.768 133.676 361.643Z" fill="#E6E6E6"/>
<path d="M132.801 347.817L136.175 348.793L137.151 345.419C137.194 345.272 137.265 345.134 137.361 345.014C137.457 344.894 137.576 344.794 137.71 344.719C137.982 344.57 138.303 344.534 138.601 344.62C138.899 344.706 139.151 344.908 139.301 345.179C139.451 345.451 139.487 345.772 139.4 346.07L138.424 349.444L141.798 350.42C142.096 350.506 142.347 350.708 142.497 350.979C142.646 351.251 142.682 351.571 142.596 351.869C142.51 352.167 142.309 352.418 142.037 352.568C141.765 352.718 141.446 352.754 141.147 352.669L137.773 351.693L136.797 355.066C136.754 355.214 136.683 355.352 136.587 355.472C136.491 355.592 136.372 355.692 136.238 355.766C136.103 355.84 135.955 355.887 135.802 355.904C135.649 355.921 135.495 355.908 135.347 355.865C135.199 355.823 135.062 355.751 134.941 355.655C134.821 355.559 134.721 355.441 134.647 355.306C134.573 355.171 134.526 355.023 134.509 354.871C134.492 354.718 134.505 354.563 134.548 354.415L135.524 351.042L132.15 350.066C131.852 349.979 131.601 349.778 131.451 349.506C131.302 349.235 131.266 348.915 131.352 348.617C131.438 348.319 131.639 348.067 131.911 347.917C132.182 347.767 132.502 347.731 132.801 347.817Z" fill="white"/>
<path d="M100.318 351.994C102.573 352.646 104.97 352.615 107.208 351.905C109.445 351.194 111.422 349.837 112.888 348.003C114.353 346.17 115.242 343.943 115.442 341.604C115.642 339.266 115.144 336.92 114.011 334.865C112.877 332.809 111.16 331.136 109.076 330.056C106.991 328.977 104.633 328.539 102.3 328.8C99.9673 329.06 97.7638 330.006 95.9686 331.518C94.1733 333.03 92.8669 335.041 92.2145 337.296C91.3397 340.319 91.702 343.566 93.2216 346.323C94.7412 349.079 97.2938 351.119 100.318 351.994Z" fill="#E6E6E6"/>
<path d="M99.4428 338.168L102.817 339.144L105.066 339.795L108.44 340.771C108.739 340.857 108.991 341.058 109.14 341.33C109.29 341.602 109.326 341.922 109.24 342.22C109.153 342.519 108.952 342.77 108.68 342.92C108.408 343.07 108.088 343.106 107.79 343.02L104.416 342.044L102.166 341.393L98.7921 340.417C98.6442 340.374 98.5061 340.303 98.3857 340.207C98.2654 340.111 98.1652 339.993 98.0908 339.858C98.0163 339.723 97.9692 339.575 97.9521 339.422C97.935 339.269 97.9482 339.114 97.9909 338.967C98.0337 338.819 98.1052 338.681 98.2014 338.561C98.2975 338.441 98.4164 338.341 98.5512 338.266C98.6861 338.192 98.8343 338.145 98.9873 338.128C99.1402 338.112 99.295 338.125 99.4428 338.168Z" fill="white"/>
<path d="M66.9599 342.345C69.215 342.997 71.6128 342.966 73.8503 342.256C76.0877 341.545 78.0642 340.188 79.5299 338.354C80.9956 336.521 81.8846 334.294 82.0846 331.955C82.2845 329.617 81.7863 327.271 80.653 325.216C79.5198 323.16 77.8024 321.487 75.718 320.407C73.6335 319.328 71.2757 318.89 68.9426 319.151C66.6096 319.411 64.4061 320.357 62.6109 321.869C60.8156 323.382 59.5092 325.392 58.8568 327.647C57.982 330.67 58.3442 333.917 59.8639 336.674C61.3835 339.43 63.936 341.47 66.9599 342.345Z" fill="#E6E6E6"/>
<path d="M64.0007 328.548L68.5979 324.766C68.6991 324.682 68.8157 324.62 68.941 324.582C69.0664 324.544 69.198 324.53 69.3285 324.543C69.4589 324.556 69.5856 324.594 69.7012 324.656C69.8169 324.717 69.9193 324.801 70.0025 324.902C70.0858 325.003 70.1483 325.12 70.1865 325.245C70.2247 325.371 70.2379 325.502 70.2252 325.633C70.2125 325.763 70.1742 325.89 70.1126 326.005C70.051 326.121 69.9672 326.223 69.866 326.307L66.8928 328.753L69.459 329.495L71.7084 330.146L75.0825 331.122C75.3808 331.208 75.6326 331.409 75.7825 331.681C75.9324 331.953 75.9682 332.273 75.8819 332.571C75.7956 332.87 75.5943 333.121 75.3224 333.271C75.0504 333.421 74.7301 333.457 74.4318 333.371L71.0577 332.395L68.8082 331.744L66.1392 330.972L67.4064 334.807C67.4888 335.058 67.4682 335.332 67.3491 335.568C67.23 335.804 67.0222 335.983 66.7712 336.066C66.5203 336.149 66.2466 336.129 66.0104 336.01C65.7742 335.891 65.5947 335.684 65.5113 335.433L63.6439 329.781C63.5931 329.562 63.5993 329.334 63.6618 329.118C63.7242 328.902 63.8409 328.706 64.0007 328.548V328.548Z" fill="white"/>
</g>
<defs>
<clipPath id="clip0_614_141">
<rect width="430" height="440" fill="white" transform="matrix(-1 0 0 1 430 0)"/>
</clipPath>
</defs>
</svg>
