<svg width="470" height="428" viewBox="0 0 470 428" fill="none" xmlns="http://www.w3.org/2000/svg">
<path d="M145.023 144.358H4.34625C3.19355 144.358 2.08806 144.815 1.27298 145.63C0.457895 146.445 0 147.55 0 148.702C0 149.854 0.457895 150.959 1.27298 151.774C2.08806 152.588 3.19355 153.046 4.34625 153.046H145.023C146.176 153.046 147.281 152.588 148.096 151.774C148.911 150.959 149.369 149.854 149.369 148.702C149.369 147.55 148.911 146.445 148.096 145.63C147.281 144.815 146.176 144.358 145.023 144.358Z" fill="#F1EAE0"/>
<path d="M47.9634 120H4.34625C3.19355 120 2.08806 120.458 1.27298 121.272C0.457895 122.087 0 123.192 0 124.344C0 125.496 0.457895 126.601 1.27298 127.416C2.08806 128.231 3.19355 128.688 4.34625 128.688H47.9634C49.1161 128.688 50.2216 128.231 51.0367 127.416C51.8518 126.601 52.3097 125.496 52.3097 124.344C52.3097 123.192 51.8518 122.087 51.0367 121.272C50.2216 120.458 49.1161 120 47.9634 120H47.9634Z" fill="#F1EAE0"/>
<path d="M60.7482 262.012L24.229 260.858C19.164 260.698 13.4681 260.706 9.85546 263.322C5.75524 266.292 6.37605 271.552 9.78035 274.964C13.1847 278.377 18.6205 280.326 23.9557 281.911C52.2999 290.331 83.6691 292.041 114.128 290.136C144.586 288.23 174.418 282.844 204.103 277.476C206.918 276.967 210.109 276.234 211.257 274.276C212.368 272.381 210.915 270.097 208.657 268.873C206.4 267.648 203.538 267.236 200.778 266.871C150.771 260.303 100.224 258.862 49.9251 262.57" fill="#E6E6E6"/>
<path d="M150.13 338.34L113.611 337.186C108.546 337.026 102.85 337.034 99.2373 339.65C95.1371 342.62 95.7579 347.88 99.1622 351.293C102.566 354.705 108.002 356.654 113.338 358.239C141.682 366.66 173.051 368.369 203.51 366.464C233.968 364.558 263.8 359.172 293.485 353.804C296.3 353.295 299.491 352.562 300.639 350.604C301.75 348.71 300.297 346.425 298.039 345.201C295.782 343.976 292.92 343.564 290.159 343.199C240.153 336.631 189.606 335.19 139.307 338.898" fill="#E6E6E6"/>
<path d="M126.362 233.939V225.303C120.092 225.391 97.653 225.239 91.7993 225.303C91.3636 255.488 88.6934 249.575 113.436 249.692C114.573 249.697 115.662 250.151 116.465 250.955C117.268 251.76 117.72 252.85 117.722 253.987V254.116C117.721 255.255 117.269 256.346 116.463 257.152C115.658 257.957 114.565 258.409 113.426 258.409H91.7993V267.045H126.362C126.411 267.016 126.327 258.706 126.362 258.409C127.824 233.388 124.932 242.387 103.921 241.384C102.981 241.336 102.095 240.928 101.447 240.246C100.799 239.563 100.439 238.658 100.44 237.717V237.609C100.44 236.636 100.827 235.702 101.515 235.014C102.204 234.326 103.138 233.939 104.112 233.939H126.362Z" fill="#3F3D56"/>
<path d="M168.845 233.939V225.303C162.575 225.391 140.136 225.239 134.283 225.303C133.843 255.75 131.13 249.469 156.57 249.697C157.537 249.707 158.462 250.098 159.142 250.785C159.823 251.472 160.205 252.4 160.205 253.367C160.205 253.82 160.205 254.285 160.205 254.74C160.205 255.221 160.11 255.699 159.925 256.144C159.741 256.589 159.47 256.994 159.129 257.334C158.788 257.675 158.383 257.945 157.938 258.13C157.492 258.314 157.015 258.409 156.533 258.409H134.283V267.045H168.845C168.894 267.016 168.81 258.706 168.846 258.409C170.307 233.388 167.415 242.387 146.404 241.384C145.464 241.336 144.579 240.928 143.931 240.246C143.283 239.563 142.922 238.658 142.923 237.717V237.609C142.923 236.636 143.31 235.702 143.999 235.014C144.688 234.326 145.622 233.939 146.595 233.939H168.845Z" fill="#3F3D56"/>
<path d="M81.7182 233.939V225.303H47.1554C47.1309 233.006 47.173 253.394 47.1553 261.287C40.3804 272.751 78.8684 264.814 81.72 267.048C81.7181 267.045 81.7182 258.409 81.7182 258.409C55.4209 258.271 54.76 263.192 55.606 239.387C55.6569 237.926 56.2733 236.541 57.3255 235.524C58.3777 234.508 59.7835 233.939 61.2467 233.938C68.8493 233.939 81.7182 233.939 81.7182 233.939Z" fill="#3F3D56"/>
<path d="M150.035 158.855L113.516 157.893C108.451 157.76 102.755 157.766 99.1426 159.947C95.0423 162.422 95.6632 166.808 99.0675 169.652C102.472 172.496 107.908 174.121 113.243 175.442C141.587 182.462 172.956 183.886 203.415 182.298C233.874 180.71 263.705 176.22 293.39 171.745C296.205 171.321 299.396 170.71 300.544 169.078C301.655 167.499 300.202 165.594 297.944 164.574C295.687 163.553 292.825 163.209 290.065 162.905C239.974 157.428 189.507 156.229 139.212 159.32" fill="#E6E6E6"/>
<path d="M143.643 120.947C143.054 134.28 147.957 138.477 131.041 136.778C129.898 128.824 135.694 117.786 122.401 120.588C125.064 126.358 114.983 170.135 131.039 162.327C131.941 149.174 125.997 143.406 143.643 145.418C145.058 153.548 138.453 165.513 152.283 162.688C149.62 156.915 159.702 113.142 143.643 120.947Z" fill="#3F3D56"/>
<path d="M232.21 120.947C233.396 121.678 221.344 134.422 221.084 135.466C220.722 134.575 209.219 122.107 210.608 120.947C194.602 113.041 204.578 157.072 201.965 162.691C201.968 162.689 210.608 162.689 210.608 162.689V135.342C222.754 151.715 220.498 148.96 232.21 134.538L232.21 162.689C248.216 170.598 238.241 126.561 240.854 120.945C240.851 120.947 232.21 120.947 232.21 120.947Z" fill="#3F3D56"/>
<path d="M194.047 120.947H159.484C157.453 133.053 164.168 128.993 172.446 129.583L172.445 162.689H181.086V129.583C189.326 129.023 196.103 133 194.047 120.947Z" fill="#3F3D56"/>
<path d="M256.692 154.053C254.697 143.107 254.697 131.892 256.692 120.947H248.052C248.101 126.418 248.036 148.498 248.041 158.595C248.041 159.685 248.473 160.73 249.244 161.501C250.014 162.272 251.06 162.706 252.15 162.706C260.855 162.718 277.474 162.654 282.614 162.689L282.614 154.053H256.692Z" fill="#3F3D56"/>
<path d="M41.6007 185.432H6.48052C4.76178 185.432 3.11342 186.115 1.89808 187.329C0.682751 188.544 0 190.192 0 191.91C0 193.627 0.682751 195.275 1.89808 196.49C3.11342 197.704 4.76178 198.387 6.48052 198.387H41.6007C43.3195 198.387 44.9678 197.704 46.1832 196.49C47.3985 195.275 48.0813 193.627 48.0813 191.91C48.0813 190.192 47.3985 188.544 46.1832 187.329C44.9678 186.115 43.3195 185.432 41.6007 185.432H41.6007Z" fill="#F1EAE0"/>
<path d="M399.947 416.001L389.091 416L383.926 374.145L399.949 374.146L399.947 416.001Z" fill="#FFB6B6"/>
<path d="M400.329 427.321L366.943 427.32V426.898C366.943 423.453 368.312 420.15 370.749 417.714C373.186 415.279 376.491 413.91 379.938 413.91H379.938L386.037 409.286L397.415 413.911L400.329 413.911L400.329 427.321Z" fill="#2F2E41"/>
<path d="M438.325 416.001L427.468 416L422.303 374.145L438.327 374.146L438.325 416.001Z" fill="#FFB6B6"/>
<path d="M438.707 427.321L405.322 427.32V426.898C405.322 423.453 406.691 420.15 409.128 417.714C411.565 415.279 414.87 413.91 418.316 413.91H418.317L424.415 409.286L435.794 413.911L438.708 413.911L438.707 427.321Z" fill="#2F2E41"/>
<path d="M372.915 187.943C372.915 187.943 362.469 220.009 364.397 224.229C366.325 228.45 369.615 225.162 366.325 228.45C363.036 231.738 360.164 228.242 363.245 233.826C366.325 239.409 370.992 285.374 373.045 287.599C375.097 289.824 377.92 289.884 375.412 292.046C372.904 294.208 369.615 289.824 372.904 294.208C376.194 298.592 384.923 399.723 384.923 399.723H401.975C401.975 399.723 406.222 394.83 403.818 391.646C401.414 388.462 404.029 387.234 403.818 385.108C403.607 382.982 404.406 378.398 404.555 376.306C404.703 374.214 407.585 324.381 400.662 295.595L413.287 240.783L419.599 307.031C419.599 307.031 412.564 362.598 419.599 380.462C419.599 380.462 413.928 385.182 416.443 387.918C418.958 390.654 421.151 388.462 418.958 390.654C416.765 392.846 422.248 400.517 422.248 400.517L440.889 399.421L451.439 295.595C451.439 295.595 453.218 284.767 451.439 282.912C449.661 281.056 449.661 287.632 449.661 281.056V272.289C449.661 272.289 457.611 218.362 457.474 215.186C457.336 212.01 444.178 188.995 444.178 188.995L372.915 187.943Z" fill="#2F2E41"/>
<path d="M428.047 58.2532L400.828 56.3821L392.684 69.2181L373.068 77.189V140.421C375.109 146.543 376.164 152.95 376.194 159.403C376.119 172.001 372.879 186.841 374.001 190.091C384.966 221.874 445.274 190.091 445.274 190.091L444.178 156.116L445.666 79.3324L433.343 69.5083L428.047 58.2532Z" fill="#E6E6E6"/>
<path d="M371.81 201.669L369.933 181.677L358.357 181.155L361.094 202.222C360.392 203.257 359.993 204.467 359.941 205.716C359.89 206.966 360.188 208.205 360.802 209.294C361.417 210.383 362.323 211.28 363.419 211.883C364.515 212.485 365.758 212.771 367.007 212.706C368.257 212.642 369.463 212.23 370.492 211.518C371.52 210.806 372.329 209.821 372.828 208.674C373.327 207.527 373.496 206.264 373.316 205.027C373.136 203.789 372.615 202.627 371.81 201.669L371.81 201.669Z" fill="#FFB6B6"/>
<path d="M377.507 75.5029L377.186 75.5572C374.202 76.0629 371.385 77.2881 368.98 79.1269C366.576 80.9656 364.656 83.3623 363.387 86.1097C360.072 93.275 349.308 140.379 354.027 147.482C357.686 152.991 356.797 151.916 355.077 156.072C353.357 160.228 350.586 155.794 352.857 162.389C355.128 168.985 357.623 168.044 355.515 170.592C353.407 173.14 351.245 172.641 353.295 176.909C355.345 181.177 355.011 182.617 355.399 184.225C355.786 185.832 355.45 197.137 355.45 197.137C355.45 197.137 367.814 196.2 373.968 199.139C373.968 199.139 370.534 187.722 372.476 185.894C374.417 184.066 376.746 183.845 375.083 181.184C373.421 178.523 369.651 178.411 373.754 177.083C377.858 175.754 376.536 151.924 376.536 151.924C383.294 134.234 380.624 105.138 377.507 75.5029Z" fill="#E6E6E6"/>
<path d="M452.065 203.096L452.93 183.035L464.465 181.93L462.795 203.107C463.548 204.106 464.008 205.294 464.122 206.539C464.237 207.785 464.002 209.037 463.443 210.156C462.885 211.275 462.025 212.216 460.96 212.873C459.896 213.53 458.669 213.878 457.418 213.877C456.167 213.875 454.941 213.525 453.878 212.866C452.816 212.206 451.958 211.263 451.401 210.143C450.845 209.023 450.613 207.77 450.73 206.525C450.847 205.28 451.309 204.093 452.065 203.096Z" fill="#FFB6B6"/>
<path d="M440.008 77.3775L440.331 77.4155C443.337 77.77 446.212 78.8517 448.706 80.5669C451.201 82.282 453.239 84.5789 454.645 87.2588C458.318 94.2478 469.936 141.585 467.091 148.081C464.438 154.139 464.548 152.65 466.476 156.713C468.404 160.777 470.947 156.208 469.012 162.91C467.077 169.612 464.537 168.798 466.771 171.237C469.005 173.675 471.139 173.067 469.308 177.433C467.476 181.799 467.881 183.221 467.575 184.846C467.269 186.471 468.177 197.745 468.177 197.745C468.177 197.745 455.78 197.432 449.783 200.678C449.783 200.678 452.636 189.102 450.605 187.374C448.574 185.646 446.237 185.543 447.763 182.802C449.289 180.061 453.048 179.759 448.883 178.639C444.718 177.519 444.835 153.652 444.835 153.652L440.008 77.3775Z" fill="#E6E6E6"/>
<path d="M415.106 52.3624C426.832 52.3624 436.337 42.8617 436.337 31.142C436.337 19.4223 426.832 9.92157 415.106 9.92157C403.381 9.92157 393.875 19.4223 393.875 31.142C393.875 42.8617 403.381 52.3624 415.106 52.3624Z" fill="#FFB6B6"/>
<path d="M429.881 49.3065C432.834 46.9967 433.121 42.5942 435.64 39.819C439.853 35.1789 441.833 30.1868 439.626 24.6888C437.674 19.8259 438.089 13.8482 433.885 10.7181C435.95 9.97099 436.435 8.41954 434.614 8.39089C433.385 8.37158 428.805 10.7185 431.009 7.79488C433.213 4.87128 429.041 6.02532 429.317 4.82858C429.593 3.63185 431.362 2.96904 432.142 3.91767C431.484 3.24514 430.68 2.73188 429.792 2.41709C428.905 2.10231 427.957 1.99428 427.021 2.10126C426.086 2.20824 425.187 2.5274 424.393 3.03438C423.6 3.54136 422.933 4.22278 422.443 5.02665C419.96 1.30701 417.324 -1.25245 413.524 1.10804C409.792 3.42637 409.841 6.29217 405.828 5.60343C403.941 5.27967 403.763 8.84229 402.474 10.2569C401.878 11.0088 401.104 11.5997 400.221 11.9759C399.338 12.3522 398.375 12.5018 397.42 12.4111C395.539 12.0558 394.101 9.71292 395.155 8.11576L390.722 18.2245L388.935 16.034C386.096 17.8833 387.028 22.7088 389.886 24.529C392.744 26.3492 396.457 25.9602 399.749 25.1534C403.71 24.182 407.8 23.8429 411.867 24.1488C418.08 25.0261 422.408 32.4504 420.107 38.2853C422.494 35.9424 426.91 37.8867 428.147 40.9939C429.383 44.101 428.477 47.6016 427.56 50.8176" fill="#2F2E41"/>
<circle cx="161.382" cy="334.615" r="12" fill="#3F3D56"/>
<circle cx="198.382" cy="334.615" r="12" fill="#3F3D56"/>
<circle cx="235.382" cy="334.615" r="12" fill="#3F3D56"/>
</svg>
